STARTFONT 2.1
COMMENT
COMMENT Converted from OpenType font "Ubuntu-Regular.ttf" by "otf2bdf 3.0".
COMMENT
FONT -FreeType-Ubuntu-Medium-R-Normal--14-100-100-100-P-76-ISO10646-1
SIZE 10 100 100
FONTBOUNDINGBOX 50 16 -2 -3
STARTPROPERTIES 19
FOUNDRY "FreeType"
FAMILY_NAME "Ubuntu"
WEIGHT_NAME "Medium"
SLANT "R"
SETWIDTH_NAME "Normal"
ADD_STYLE_NAME ""
PIXEL_SIZE 14
POINT_SIZE 100
RESOLUTION_X 100
RESOLUTION_Y 100
SPACING "P"
AVERAGE_WIDTH 76
CHARSET_REGISTRY "ISO10646"
CHARSET_ENCODING "1"
FONT_ASCENT 13
FONT_DESCENT 2
COPYRIGHT "Copyright 2011 Canonical Ltd.  Licensed under the Ubuntu Font Licence 1.0"
_OTF_FONTFILE "Ubuntu-Regular.ttf"
_OTF_PSNAME "Ubuntu-Regular"
ENDPROPERTIES
CHARS 1194
STARTCHAR 0000
ENCODING 0
SWIDTH 0 0
DWIDTH 0 0
BBX 0 0 0 0
BITMAP
ENDCHAR
STARTCHAR 0008
ENCODING 8
SWIDTH 0 0
DWIDTH 0 0
BBX 0 0 0 0
BITMAP
ENDCHAR
STARTCHAR 0009
ENCODING 9
SWIDTH 216 0
DWIDTH 3 0
BBX 0 0 0 0
BITMAP
ENDCHAR
STARTCHAR 000D
ENCODING 13
SWIDTH 216 0
DWIDTH 3 0
BBX 0 0 0 0
BITMAP
ENDCHAR
STARTCHAR 001D
ENCODING 29
SWIDTH 0 0
DWIDTH 0 0
BBX 0 0 0 0
BITMAP
ENDCHAR
STARTCHAR 0020
ENCODING 32
SWIDTH 216 0
DWIDTH 3 0
BBX 0 0 0 0
BITMAP
ENDCHAR
STARTCHAR 0021
ENCODING 33
SWIDTH 216 0
DWIDTH 3 0
BBX 2 10 1 0
BITMAP
C0
C0
C0
C0
C0
80
80
00
80
C0
ENDCHAR
STARTCHAR 0022
ENCODING 34
SWIDTH 360 0
DWIDTH 5 0
BBX 4 4 1 7
BITMAP
B0
B0
90
90
ENDCHAR
STARTCHAR 0023
ENCODING 35
SWIDTH 648 0
DWIDTH 9 0
BBX 8 10 1 0
BITMAP
22
26
24
FF
64
44
FF
48
48
48
ENDCHAR
STARTCHAR 0024
ENCODING 36
SWIDTH 504 0
DWIDTH 7 0
BBX 6 13 1 -2
BITMAP
30
30
78
C0
80
E0
38
0C
04
8C
70
30
30
ENDCHAR
STARTCHAR 0025
ENCODING 37
SWIDTH 792 0
DWIDTH 11 0
BBX 10 10 1 0
BITMAP
6100
9300
9200
9600
F400
0980
0A40
1240
3240
23C0
ENDCHAR
STARTCHAR 0026
ENCODING 38
SWIDTH 648 0
DWIDTH 9 0
BBX 8 10 1 0
BITMAP
38
48
48
48
30
D2
8A
8E
86
7B
ENDCHAR
STARTCHAR 0027
ENCODING 39
SWIDTH 216 0
DWIDTH 3 0
BBX 1 4 1 7
BITMAP
80
80
80
80
ENDCHAR
STARTCHAR 0028
ENCODING 40
SWIDTH 288 0
DWIDTH 4 0
BBX 3 14 1 -3
BITMAP
20
20
40
40
C0
80
80
80
80
C0
40
40
20
20
ENDCHAR
STARTCHAR 0029
ENCODING 41
SWIDTH 288 0
DWIDTH 4 0
BBX 3 13 0 -3
BITMAP
80
40
40
20
20
20
20
20
20
20
60
40
C0
ENDCHAR
STARTCHAR 002A
ENCODING 42
SWIDTH 432 0
DWIDTH 6 0
BBX 5 6 1 4
BITMAP
20
20
F8
20
50
10
ENDCHAR
STARTCHAR 002B
ENCODING 43
SWIDTH 504 0
DWIDTH 7 0
BBX 6 7 1 1
BITMAP
20
20
20
FC
20
20
20
ENDCHAR
STARTCHAR 002C
ENCODING 44
SWIDTH 216 0
DWIDTH 3 0
BBX 1 4 1 -2
BITMAP
80
80
80
80
ENDCHAR
STARTCHAR 002D
ENCODING 45
SWIDTH 288 0
DWIDTH 4 0
BBX 4 1 0 4
BITMAP
F0
ENDCHAR
STARTCHAR 002E
ENCODING 46
SWIDTH 216 0
DWIDTH 3 0
BBX 2 2 1 0
BITMAP
80
C0
ENDCHAR
STARTCHAR 002F
ENCODING 47
SWIDTH 360 0
DWIDTH 5 0
BBX 6 14 0 -3
BITMAP
0C
08
08
10
10
30
20
20
60
40
40
C0
80
80
ENDCHAR
STARTCHAR 0030
ENCODING 48
SWIDTH 504 0
DWIDTH 7 0
BBX 6 10 1 0
BITMAP
30
48
8C
84
84
84
84
84
CC
78
ENDCHAR
STARTCHAR 0031
ENCODING 49
SWIDTH 504 0
DWIDTH 7 0
BBX 4 10 1 0
BITMAP
10
30
D0
10
10
10
10
10
10
10
ENDCHAR
STARTCHAR 0032
ENCODING 50
SWIDTH 504 0
DWIDTH 7 0
BBX 6 10 1 0
BITMAP
70
D8
08
08
18
30
60
40
80
FC
ENDCHAR
STARTCHAR 0033
ENCODING 51
SWIDTH 504 0
DWIDTH 7 0
BBX 6 10 1 0
BITMAP
70
98
08
08
70
18
0C
0C
0C
F8
ENDCHAR
STARTCHAR 0034
ENCODING 52
SWIDTH 504 0
DWIDTH 7 0
BBX 6 10 1 0
BITMAP
08
18
28
68
48
88
FC
FC
08
08
ENDCHAR
STARTCHAR 0035
ENCODING 53
SWIDTH 504 0
DWIDTH 7 0
BBX 6 10 1 0
BITMAP
78
40
40
40
70
18
0C
0C
0C
F8
ENDCHAR
STARTCHAR 0036
ENCODING 54
SWIDTH 504 0
DWIDTH 7 0
BBX 6 10 1 0
BITMAP
08
30
40
C0
F8
8C
84
84
CC
78
ENDCHAR
STARTCHAR 0037
ENCODING 55
SWIDTH 504 0
DWIDTH 7 0
BBX 6 10 1 0
BITMAP
FC
FC
08
18
10
30
20
20
60
60
ENDCHAR
STARTCHAR 0038
ENCODING 56
SWIDTH 504 0
DWIDTH 7 0
BBX 6 10 1 0
BITMAP
70
CC
84
8C
68
78
8C
84
8C
78
ENDCHAR
STARTCHAR 0039
ENCODING 57
SWIDTH 504 0
DWIDTH 7 0
BBX 6 10 1 0
BITMAP
70
C8
8C
84
84
7C
0C
08
18
E0
ENDCHAR
STARTCHAR 003A
ENCODING 58
SWIDTH 216 0
DWIDTH 3 0
BBX 2 7 1 0
BITMAP
C0
80
00
00
00
80
C0
ENDCHAR
STARTCHAR 003B
ENCODING 59
SWIDTH 216 0
DWIDTH 3 0
BBX 2 9 1 -2
BITMAP
C0
80
00
00
00
80
80
80
80
ENDCHAR
STARTCHAR 003C
ENCODING 60
SWIDTH 504 0
DWIDTH 7 0
BBX 6 6 1 1
BITMAP
0C
30
C0
E0
38
04
ENDCHAR
STARTCHAR 003D
ENCODING 61
SWIDTH 504 0
DWIDTH 7 0
BBX 6 4 1 2
BITMAP
FC
00
00
FC
ENDCHAR
STARTCHAR 003E
ENCODING 62
SWIDTH 504 0
DWIDTH 7 0
BBX 6 6 1 1
BITMAP
C0
70
0C
1C
70
80
ENDCHAR
STARTCHAR 003F
ENCODING 63
SWIDTH 360 0
DWIDTH 5 0
BBX 4 10 1 0
BITMAP
E0
30
10
10
20
40
40
00
40
C0
ENDCHAR
STARTCHAR 0040
ENCODING 64
SWIDTH 936 0
DWIDTH 13 0
BBX 11 12 1 -2
BITMAP
0F00
31C0
4040
CF20
9920
9120
9120
9120
CFC0
4000
6000
1F00
ENDCHAR
STARTCHAR 0041
ENCODING 65
SWIDTH 648 0
DWIDTH 9 0
BBX 9 10 0 0
BITMAP
0800
1C00
1400
1600
2200
2200
7F00
7F00
4180
C180
ENDCHAR
STARTCHAR 0042
ENCODING 66
SWIDTH 576 0
DWIDTH 8 0
BBX 7 10 1 0
BITMAP
F8
CC
C6
C6
FC
FE
C2
C2
C6
FC
ENDCHAR
STARTCHAR 0043
ENCODING 67
SWIDTH 576 0
DWIDTH 8 0
BBX 7 10 1 0
BITMAP
1E
62
C0
80
80
80
80
C0
60
3E
ENDCHAR
STARTCHAR 0044
ENCODING 68
SWIDTH 648 0
DWIDTH 9 0
BBX 8 10 1 0
BITMAP
F8
CE
C2
C3
C1
C1
C1
C3
C6
FC
ENDCHAR
STARTCHAR 0045
ENCODING 69
SWIDTH 504 0
DWIDTH 7 0
BBX 6 10 1 0
BITMAP
FC
FC
C0
C0
FC
FC
C0
C0
C0
FC
ENDCHAR
STARTCHAR 0046
ENCODING 70
SWIDTH 504 0
DWIDTH 7 0
BBX 6 10 1 0
BITMAP
FC
FC
C0
C0
FC
FC
C0
C0
C0
C0
ENDCHAR
STARTCHAR 0047
ENCODING 71
SWIDTH 648 0
DWIDTH 9 0
BBX 7 10 1 0
BITMAP
1E
62
C0
80
80
82
82
C2
62
3E
ENDCHAR
STARTCHAR 0048
ENCODING 72
SWIDTH 648 0
DWIDTH 9 0
BBX 8 10 1 0
BITMAP
C3
C3
C3
C3
FF
FF
C3
C3
C3
C3
ENDCHAR
STARTCHAR 0049
ENCODING 73
SWIDTH 216 0
DWIDTH 3 0
BBX 2 10 1 0
BITMAP
C0
C0
C0
C0
C0
C0
C0
C0
C0
C0
ENDCHAR
STARTCHAR 004A
ENCODING 74
SWIDTH 432 0
DWIDTH 6 0
BBX 6 10 0 0
BITMAP
0C
0C
0C
0C
0C
0C
0C
0C
0C
F8
ENDCHAR
STARTCHAR 004B
ENCODING 75
SWIDTH 576 0
DWIDTH 8 0
BBX 7 10 1 0
BITMAP
C2
C4
C8
D0
E0
F0
D8
CC
C6
C2
ENDCHAR
STARTCHAR 004C
ENCODING 76
SWIDTH 504 0
DWIDTH 7 0
BBX 6 10 1 0
BITMAP
C0
C0
C0
C0
C0
C0
C0
C0
C0
FC
ENDCHAR
STARTCHAR 004D
ENCODING 77
SWIDTH 864 0
DWIDTH 12 0
BBX 10 10 1 0
BITMAP
4080
40C0
E1C0
E140
D240
9240
8E40
8C40
8C40
8040
ENDCHAR
STARTCHAR 004E
ENCODING 78
SWIDTH 720 0
DWIDTH 10 0
BBX 8 10 1 0
BITMAP
81
C1
E1
F1
D9
C9
C5
C7
C3
C3
ENDCHAR
STARTCHAR 004F
ENCODING 79
SWIDTH 720 0
DWIDTH 10 0
BBX 9 10 1 0
BITMAP
1C00
6700
C100
8180
8080
8080
8180
C180
6300
3E00
ENDCHAR
STARTCHAR 0050
ENCODING 80
SWIDTH 576 0
DWIDTH 8 0
BBX 7 10 1 0
BITMAP
F8
CC
C6
C2
C6
FC
C0
C0
C0
C0
ENDCHAR
STARTCHAR 0051
ENCODING 81
SWIDTH 720 0
DWIDTH 10 0
BBX 9 12 1 -3
BITMAP
1C00
6700
C100
8180
8080
8080
8180
C180
6300
3E00
0C00
0700
ENDCHAR
STARTCHAR 0052
ENCODING 82
SWIDTH 576 0
DWIDTH 8 0
BBX 7 10 1 0
BITMAP
F8
CC
C6
C6
C6
FC
C8
CC
C6
C2
ENDCHAR
STARTCHAR 0053
ENCODING 83
SWIDTH 504 0
DWIDTH 7 0
BBX 7 10 0 0
BITMAP
3C
64
40
40
70
1C
06
02
06
FC
ENDCHAR
STARTCHAR 0054
ENCODING 84
SWIDTH 504 0
DWIDTH 7 0
BBX 8 10 0 0
BITMAP
FF
FF
18
18
18
18
18
18
18
18
ENDCHAR
STARTCHAR 0055
ENCODING 85
SWIDTH 648 0
DWIDTH 9 0
BBX 7 10 1 0
BITMAP
82
82
82
82
82
82
82
C2
46
7C
ENDCHAR
STARTCHAR 0056
ENCODING 86
SWIDTH 648 0
DWIDTH 9 0
BBX 9 10 0 0
BITMAP
C180
4180
4100
6300
2200
2200
3600
1400
1C00
0800
ENDCHAR
STARTCHAR 0057
ENCODING 87
SWIDTH 864 0
DWIDTH 12 0
BBX 12 10 0 0
BITMAP
C010
4010
4210
4710
6530
6520
29A0
28A0
38E0
1040
ENDCHAR
STARTCHAR 0058
ENCODING 88
SWIDTH 576 0
DWIDTH 8 0
BBX 7 10 1 0
BITMAP
82
C6
4C
28
30
38
68
4C
C6
82
ENDCHAR
STARTCHAR 0059
ENCODING 89
SWIDTH 576 0
DWIDTH 8 0
BBX 8 10 0 0
BITMAP
C1
43
62
24
3C
18
18
18
18
18
ENDCHAR
STARTCHAR 005A
ENCODING 90
SWIDTH 504 0
DWIDTH 7 0
BBX 7 10 0 0
BITMAP
7E
7E
04
0C
18
10
20
60
40
FE
ENDCHAR
STARTCHAR 005B
ENCODING 91
SWIDTH 288 0
DWIDTH 4 0
BBX 3 14 1 -3
BITMAP
E0
C0
C0
C0
C0
C0
C0
C0
C0
C0
C0
C0
C0
E0
ENDCHAR
STARTCHAR 005C
ENCODING 92
SWIDTH 360 0
DWIDTH 5 0
BBX 6 14 0 -3
BITMAP
80
80
C0
40
40
20
20
30
10
10
18
08
08
0C
ENDCHAR
STARTCHAR 005D
ENCODING 93
SWIDTH 288 0
DWIDTH 4 0
BBX 3 14 0 -3
BITMAP
E0
20
20
20
20
20
20
20
20
20
20
20
20
E0
ENDCHAR
STARTCHAR 005E
ENCODING 94
SWIDTH 504 0
DWIDTH 7 0
BBX 6 6 1 4
BITMAP
30
30
58
48
84
80
ENDCHAR
STARTCHAR 005F
ENCODING 95
SWIDTH 432 0
DWIDTH 6 0
BBX 7 2 0 -3
BITMAP
FE
FE
ENDCHAR
STARTCHAR 0060
ENCODING 96
SWIDTH 360 0
DWIDTH 5 0
BBX 2 3 1 8
BITMAP
80
C0
40
ENDCHAR
STARTCHAR 0061
ENCODING 97
SWIDTH 504 0
DWIDTH 7 0
BBX 5 7 1 0
BITMAP
F8
08
08
F8
88
88
F8
ENDCHAR
STARTCHAR 0062
ENCODING 98
SWIDTH 576 0
DWIDTH 8 0
BBX 6 11 1 0
BITMAP
80
80
80
80
F8
84
84
84
84
8C
F8
ENDCHAR
STARTCHAR 0063
ENCODING 99
SWIDTH 432 0
DWIDTH 6 0
BBX 5 7 1 0
BITMAP
78
C0
80
80
80
C0
78
ENDCHAR
STARTCHAR 0064
ENCODING 100
SWIDTH 576 0
DWIDTH 8 0
BBX 6 11 1 0
BITMAP
04
04
04
04
7C
C4
84
84
84
C4
7C
ENDCHAR
STARTCHAR 0065
ENCODING 101
SWIDTH 504 0
DWIDTH 7 0
BBX 6 7 1 0
BITMAP
78
8C
84
FC
80
C0
78
ENDCHAR
STARTCHAR 0066
ENCODING 102
SWIDTH 360 0
DWIDTH 5 0
BBX 4 11 1 0
BITMAP
70
C0
80
80
F0
80
80
80
80
80
80
ENDCHAR
STARTCHAR 0067
ENCODING 103
SWIDTH 576 0
DWIDTH 8 0
BBX 6 10 1 -3
BITMAP
7C
C4
84
84
84
CC
34
0C
F8
70
ENDCHAR
STARTCHAR 0068
ENCODING 104
SWIDTH 504 0
DWIDTH 7 0
BBX 6 11 1 0
BITMAP
80
80
80
80
F8
8C
84
84
84
84
84
ENDCHAR
STARTCHAR 0069
ENCODING 105
SWIDTH 216 0
DWIDTH 3 0
BBX 2 10 1 0
BITMAP
C0
00
00
80
80
80
80
80
80
80
ENDCHAR
STARTCHAR 006A
ENCODING 106
SWIDTH 216 0
DWIDTH 3 0
BBX 4 13 -1 -3
BITMAP
30
00
00
20
20
20
20
20
20
20
20
E0
C0
ENDCHAR
STARTCHAR 006B
ENCODING 107
SWIDTH 504 0
DWIDTH 7 0
BBX 6 11 1 0
BITMAP
80
80
80
80
88
90
A0
E0
90
98
8C
ENDCHAR
STARTCHAR 006C
ENCODING 108
SWIDTH 216 0
DWIDTH 3 0
BBX 2 11 1 0
BITMAP
80
80
80
80
80
80
80
80
80
80
C0
ENDCHAR
STARTCHAR 006D
ENCODING 109
SWIDTH 792 0
DWIDTH 11 0
BBX 10 7 1 0
BITMAP
FF80
8CC0
8C40
8C40
8C40
8C40
8C40
ENDCHAR
STARTCHAR 006E
ENCODING 110
SWIDTH 504 0
DWIDTH 7 0
BBX 6 7 1 0
BITMAP
F8
8C
84
84
84
84
84
ENDCHAR
STARTCHAR 006F
ENCODING 111
SWIDTH 576 0
DWIDTH 8 0
BBX 6 7 1 0
BITMAP
78
C4
84
84
84
CC
78
ENDCHAR
STARTCHAR 0070
ENCODING 112
SWIDTH 576 0
DWIDTH 8 0
BBX 6 10 1 -3
BITMAP
F8
84
84
84
84
8C
F8
80
80
80
ENDCHAR
STARTCHAR 0071
ENCODING 113
SWIDTH 576 0
DWIDTH 8 0
BBX 6 10 1 -3
BITMAP
7C
C4
84
84
84
C4
7C
04
04
04
ENDCHAR
STARTCHAR 0072
ENCODING 114
SWIDTH 360 0
DWIDTH 5 0
BBX 4 7 1 0
BITMAP
F0
80
80
80
80
80
80
ENDCHAR
STARTCHAR 0073
ENCODING 115
SWIDTH 432 0
DWIDTH 6 0
BBX 5 7 1 0
BITMAP
F0
80
C0
70
18
18
F0
ENDCHAR
STARTCHAR 0074
ENCODING 116
SWIDTH 360 0
DWIDTH 5 0
BBX 4 9 1 0
BITMAP
80
80
F0
80
80
80
80
C0
70
ENDCHAR
STARTCHAR 0075
ENCODING 117
SWIDTH 504 0
DWIDTH 7 0
BBX 6 7 1 0
BITMAP
84
84
84
84
84
C4
7C
ENDCHAR
STARTCHAR 0076
ENCODING 118
SWIDTH 432 0
DWIDTH 6 0
BBX 7 7 0 0
BITMAP
C6
44
44
6C
28
38
10
ENDCHAR
STARTCHAR 0077
ENCODING 119
SWIDTH 720 0
DWIDTH 10 0
BBX 10 7 0 0
BITMAP
C440
4C40
4A40
6A80
2A80
3380
3100
ENDCHAR
STARTCHAR 0078
ENCODING 120
SWIDTH 504 0
DWIDTH 7 0
BBX 7 7 0 0
BITMAP
44
28
38
18
28
44
C6
ENDCHAR
STARTCHAR 0079
ENCODING 121
SWIDTH 432 0
DWIDTH 6 0
BBX 6 10 0 -3
BITMAP
C4
44
44
6C
28
38
18
10
A0
C0
ENDCHAR
STARTCHAR 007A
ENCODING 122
SWIDTH 432 0
DWIDTH 6 0
BBX 6 7 0 0
BITMAP
7C
08
10
30
20
40
FC
ENDCHAR
STARTCHAR 007B
ENCODING 123
SWIDTH 288 0
DWIDTH 4 0
BBX 4 14 1 -3
BITMAP
30
40
40
40
40
40
C0
C0
40
40
40
40
60
10
ENDCHAR
STARTCHAR 007C
ENCODING 124
SWIDTH 216 0
DWIDTH 3 0
BBX 2 14 1 -3
BITMAP
C0
C0
C0
C0
C0
C0
C0
C0
C0
C0
C0
C0
C0
C0
ENDCHAR
STARTCHAR 007D
ENCODING 125
SWIDTH 288 0
DWIDTH 4 0
BBX 4 14 0 -3
BITMAP
C0
60
20
20
20
20
30
20
20
20
20
20
60
80
ENDCHAR
STARTCHAR 007E
ENCODING 126
SWIDTH 504 0
DWIDTH 7 0
BBX 6 2 1 3
BITMAP
E4
9C
ENDCHAR
STARTCHAR 00A0
ENCODING 160
SWIDTH 216 0
DWIDTH 3 0
BBX 0 0 0 0
BITMAP
ENDCHAR
STARTCHAR 00A1
ENCODING 161
SWIDTH 216 0
DWIDTH 3 0
BBX 2 10 1 -3
BITMAP
C0
80
00
80
80
C0
C0
C0
C0
C0
ENDCHAR
STARTCHAR 00A2
ENCODING 162
SWIDTH 504 0
DWIDTH 7 0
BBX 6 12 1 -2
BITMAP
10
10
38
60
C0
C0
C0
C0
7C
18
10
10
ENDCHAR
STARTCHAR 00A3
ENCODING 163
SWIDTH 504 0
DWIDTH 7 0
BBX 6 10 1 0
BITMAP
3C
24
60
40
40
F8
40
40
40
7C
ENDCHAR
STARTCHAR 00A4
ENCODING 164
SWIDTH 504 0
DWIDTH 7 0
BBX 6 6 1 2
BITMAP
84
F8
8C
84
48
BC
ENDCHAR
STARTCHAR 00A5
ENCODING 165
SWIDTH 504 0
DWIDTH 7 0
BBX 8 10 0 0
BITMAP
C3
42
64
24
18
7E
18
18
7E
18
ENDCHAR
STARTCHAR 00A6
ENCODING 166
SWIDTH 216 0
DWIDTH 3 0
BBX 2 14 1 -3
BITMAP
C0
C0
C0
C0
C0
00
00
00
C0
C0
C0
C0
C0
C0
ENDCHAR
STARTCHAR 00A7
ENCODING 167
SWIDTH 432 0
DWIDTH 6 0
BBX 5 11 1 -2
BITMAP
78
C8
80
60
98
88
88
70
18
08
F8
ENDCHAR
STARTCHAR 00A8
ENCODING 168
SWIDTH 360 0
DWIDTH 5 0
BBX 5 1 0 9
BITMAP
D8
ENDCHAR
STARTCHAR 00A9
ENCODING 169
SWIDTH 792 0
DWIDTH 11 0
BBX 9 10 1 0
BITMAP
1C00
6300
4C80
9080
A080
A080
B080
9E80
4100
3E00
ENDCHAR
STARTCHAR 00AA
ENCODING 170
SWIDTH 360 0
DWIDTH 5 0
BBX 4 5 1 5
BITMAP
E0
10
F0
90
F0
ENDCHAR
STARTCHAR 00AB
ENCODING 171
SWIDTH 432 0
DWIDTH 6 0
BBX 5 6 1 1
BITMAP
48
58
90
90
D8
48
ENDCHAR
STARTCHAR 00AC
ENCODING 172
SWIDTH 504 0
DWIDTH 7 0
BBX 6 4 1 1
BITMAP
FC
04
04
04
ENDCHAR
STARTCHAR 00AD
ENCODING 173
SWIDTH 288 0
DWIDTH 4 0
BBX 4 1 0 4
BITMAP
F0
ENDCHAR
STARTCHAR 00AE
ENCODING 174
SWIDTH 792 0
DWIDTH 11 0
BBX 9 10 1 0
BITMAP
1C00
6300
5880
9680
9280
9C80
9480
9280
4100
3E00
ENDCHAR
STARTCHAR 00AF
ENCODING 175
SWIDTH 360 0
DWIDTH 5 0
BBX 4 1 1 9
BITMAP
F0
ENDCHAR
STARTCHAR 00B0
ENCODING 176
SWIDTH 288 0
DWIDTH 4 0
BBX 4 4 0 7
BITMAP
60
90
90
70
ENDCHAR
STARTCHAR 00B1
ENCODING 177
SWIDTH 504 0
DWIDTH 7 0
BBX 6 9 1 0
BITMAP
20
20
20
FC
20
20
20
00
FC
ENDCHAR
STARTCHAR 00B2
ENCODING 178
SWIDTH 288 0
DWIDTH 4 0
BBX 3 6 1 4
BITMAP
E0
20
20
40
80
E0
ENDCHAR
STARTCHAR 00B3
ENCODING 179
SWIDTH 288 0
DWIDTH 4 0
BBX 3 6 1 4
BITMAP
E0
20
E0
20
20
C0
ENDCHAR
STARTCHAR 00B4
ENCODING 180
SWIDTH 360 0
DWIDTH 5 0
BBX 2 3 2 8
BITMAP
40
C0
80
ENDCHAR
STARTCHAR 00B5
ENCODING 181
SWIDTH 576 0
DWIDTH 8 0
BBX 6 10 1 -3
BITMAP
84
84
84
84
84
C4
FC
80
80
80
ENDCHAR
STARTCHAR 00B6
ENCODING 182
SWIDTH 576 0
DWIDTH 8 0
BBX 7 13 1 -3
BITMAP
3E
F6
F6
F6
F6
F6
16
16
16
16
16
16
16
ENDCHAR
STARTCHAR 00B7
ENCODING 183
SWIDTH 216 0
DWIDTH 3 0
BBX 2 2 1 3
BITMAP
C0
80
ENDCHAR
STARTCHAR 00B8
ENCODING 184
SWIDTH 360 0
DWIDTH 5 0
BBX 3 3 1 -3
BITMAP
40
60
C0
ENDCHAR
STARTCHAR 00B9
ENCODING 185
SWIDTH 288 0
DWIDTH 4 0
BBX 2 6 1 4
BITMAP
40
C0
40
40
40
40
ENDCHAR
STARTCHAR 00BA
ENCODING 186
SWIDTH 432 0
DWIDTH 6 0
BBX 5 5 1 5
BITMAP
60
90
88
98
F0
ENDCHAR
STARTCHAR 00BB
ENCODING 187
SWIDTH 432 0
DWIDTH 6 0
BBX 5 6 1 1
BITMAP
B0
D0
48
48
D0
90
ENDCHAR
STARTCHAR 00BC
ENCODING 188
SWIDTH 864 0
DWIDTH 12 0
BBX 11 10 1 0
BITMAP
4100
C100
4200
4600
4400
48C0
0940
1140
13E0
2040
ENDCHAR
STARTCHAR 00BD
ENCODING 189
SWIDTH 864 0
DWIDTH 12 0
BBX 10 10 1 0
BITMAP
4100
C200
4200
4400
4480
4940
1840
1080
2100
21C0
ENDCHAR
STARTCHAR 00BE
ENCODING 190
SWIDTH 864 0
DWIDTH 12 0
BBX 11 10 1 0
BITMAP
E100
2100
E200
2200
2400
CCC0
0940
1940
13E0
2040
ENDCHAR
STARTCHAR 00BF
ENCODING 191
SWIDTH 360 0
DWIDTH 5 0
BBX 5 10 0 -3
BITMAP
30
10
00
10
30
60
40
C0
68
30
ENDCHAR
STARTCHAR 00C0
ENCODING 192
SWIDTH 648 0
DWIDTH 9 0
BBX 9 13 0 0
BITMAP
1000
0800
0000
0800
1C00
1400
1600
2200
2200
7F00
7F00
4180
C180
ENDCHAR
STARTCHAR 00C1
ENCODING 193
SWIDTH 648 0
DWIDTH 9 0
BBX 9 13 0 0
BITMAP
0400
0C00
0800
0800
1C00
1400
1600
2200
2200
7F00
7F00
4180
C180
ENDCHAR
STARTCHAR 00C2
ENCODING 194
SWIDTH 648 0
DWIDTH 9 0
BBX 9 13 0 0
BITMAP
0800
1C00
1000
0800
1C00
1400
1600
2200
2200
7F00
7F00
4180
C180
ENDCHAR
STARTCHAR 00C3
ENCODING 195
SWIDTH 648 0
DWIDTH 9 0
BBX 9 12 0 0
BITMAP
1E00
0000
0800
1C00
1400
1600
2200
2200
7F00
7F00
4180
C180
ENDCHAR
STARTCHAR 00C4
ENCODING 196
SWIDTH 648 0
DWIDTH 9 0
BBX 9 12 0 0
BITMAP
3600
0000
0800
1C00
1400
1600
2200
2200
7F00
7F00
4180
C180
ENDCHAR
STARTCHAR 00C5
ENCODING 197
SWIDTH 648 0
DWIDTH 9 0
BBX 9 12 0 0
BITMAP
0800
1400
1400
1C00
1400
1600
2200
2200
7F00
7F00
4180
C180
ENDCHAR
STARTCHAR 00C6
ENCODING 198
SWIDTH 864 0
DWIDTH 12 0
BBX 12 10 0 0
BITMAP
03F0
07F0
0D00
0900
19F0
11F0
3F00
7F00
4100
C1F0
ENDCHAR
STARTCHAR 00C7
ENCODING 199
SWIDTH 576 0
DWIDTH 8 0
BBX 7 13 1 -3
BITMAP
1E
62
C0
80
80
80
80
C0
60
3E
10
08
10
ENDCHAR
STARTCHAR 00C8
ENCODING 200
SWIDTH 504 0
DWIDTH 7 0
BBX 6 13 1 0
BITMAP
20
30
10
FC
FC
C0
C0
FC
FC
C0
C0
C0
FC
ENDCHAR
STARTCHAR 00C9
ENCODING 201
SWIDTH 504 0
DWIDTH 7 0
BBX 6 13 1 0
BITMAP
08
10
00
FC
FC
C0
C0
FC
FC
C0
C0
C0
FC
ENDCHAR
STARTCHAR 00CA
ENCODING 202
SWIDTH 504 0
DWIDTH 7 0
BBX 6 12 1 1
BITMAP
30
08
FC
FC
C0
C0
FC
FC
C0
C0
C0
FC
ENDCHAR
STARTCHAR 00CB
ENCODING 203
SWIDTH 504 0
DWIDTH 7 0
BBX 6 12 1 0
BITMAP
68
00
FC
FC
C0
C0
FC
FC
C0
C0
C0
FC
ENDCHAR
STARTCHAR 00CC
ENCODING 204
SWIDTH 216 0
DWIDTH 3 0
BBX 2 12 1 1
BITMAP
80
00
C0
C0
C0
C0
C0
C0
C0
C0
C0
C0
ENDCHAR
STARTCHAR 00CD
ENCODING 205
SWIDTH 216 0
DWIDTH 3 0
BBX 2 13 1 0
BITMAP
40
40
80
C0
C0
C0
C0
C0
C0
C0
C0
C0
C0
ENDCHAR
STARTCHAR 00CE
ENCODING 206
SWIDTH 216 0
DWIDTH 3 0
BBX 3 12 0 1
BITMAP
60
80
60
60
60
60
60
60
60
60
60
60
ENDCHAR
STARTCHAR 00CF
ENCODING 207
SWIDTH 216 0
DWIDTH 3 0
BBX 4 12 0 0
BITMAP
B0
00
60
60
60
60
60
60
60
60
60
60
ENDCHAR
STARTCHAR 00D0
ENCODING 208
SWIDTH 720 0
DWIDTH 10 0
BBX 9 10 0 0
BITMAP
7C00
6700
6180
6080
F880
F880
6080
6180
6300
7E00
ENDCHAR
STARTCHAR 00D1
ENCODING 209
SWIDTH 720 0
DWIDTH 10 0
BBX 8 12 1 0
BITMAP
3C
00
81
C1
E1
F1
D9
C9
C5
C7
C3
C3
ENDCHAR
STARTCHAR 00D2
ENCODING 210
SWIDTH 720 0
DWIDTH 10 0
BBX 9 13 1 0
BITMAP
1000
1800
0800
1C00
6700
C100
8180
8080
8080
8180
C180
6300
3E00
ENDCHAR
STARTCHAR 00D3
ENCODING 211
SWIDTH 720 0
DWIDTH 10 0
BBX 9 13 1 0
BITMAP
0400
0800
0000
1C00
6700
C100
8180
8080
8080
8180
C180
6300
3E00
ENDCHAR
STARTCHAR 00D4
ENCODING 212
SWIDTH 720 0
DWIDTH 10 0
BBX 9 13 1 0
BITMAP
0800
1C00
0400
1C00
6700
C100
8180
8080
8080
8180
C180
6300
3E00
ENDCHAR
STARTCHAR 00D5
ENCODING 213
SWIDTH 720 0
DWIDTH 10 0
BBX 9 12 1 0
BITMAP
3C00
0000
1C00
6700
C100
8180
8080
8080
8180
C180
6300
3E00
ENDCHAR
STARTCHAR 00D6
ENCODING 214
SWIDTH 720 0
DWIDTH 10 0
BBX 9 12 1 0
BITMAP
3600
0000
1C00
6700
C100
8180
8080
8080
8180
C180
6300
3E00
ENDCHAR
STARTCHAR 00D7
ENCODING 215
SWIDTH 504 0
DWIDTH 7 0
BBX 5 5 1 1
BITMAP
88
58
30
70
C8
ENDCHAR
STARTCHAR 00D8
ENCODING 216
SWIDTH 720 0
DWIDTH 10 0
BBX 9 10 1 -1
BITMAP
1D80
6700
C300
8580
8C80
8880
9180
E180
6300
FE00
ENDCHAR
STARTCHAR 00D9
ENCODING 217
SWIDTH 648 0
DWIDTH 9 0
BBX 7 13 1 0
BITMAP
20
10
00
82
82
82
82
82
82
82
C2
46
7C
ENDCHAR
STARTCHAR 00DA
ENCODING 218
SWIDTH 648 0
DWIDTH 9 0
BBX 7 13 1 0
BITMAP
08
18
10
82
82
82
82
82
82
82
C2
46
7C
ENDCHAR
STARTCHAR 00DB
ENCODING 219
SWIDTH 648 0
DWIDTH 9 0
BBX 7 13 1 0
BITMAP
10
38
20
82
82
82
82
82
82
82
C2
46
7C
ENDCHAR
STARTCHAR 00DC
ENCODING 220
SWIDTH 648 0
DWIDTH 9 0
BBX 7 12 1 0
BITMAP
2C
00
82
82
82
82
82
82
82
C2
46
7C
ENDCHAR
STARTCHAR 00DD
ENCODING 221
SWIDTH 576 0
DWIDTH 8 0
BBX 8 12 0 1
BITMAP
08
00
C1
43
62
24
3C
18
18
18
18
18
ENDCHAR
STARTCHAR 00DE
ENCODING 222
SWIDTH 576 0
DWIDTH 8 0
BBX 7 10 1 0
BITMAP
C0
C0
FC
C6
C2
C6
C6
F8
C0
C0
ENDCHAR
STARTCHAR 00DF
ENCODING 223
SWIDTH 576 0
DWIDTH 8 0
BBX 7 11 1 0
BITMAP
38
4C
C4
8C
98
90
98
86
82
82
9E
ENDCHAR
STARTCHAR 00E0
ENCODING 224
SWIDTH 504 0
DWIDTH 7 0
BBX 5 10 1 1
BITMAP
60
20
00
F8
08
08
F8
88
88
F8
ENDCHAR
STARTCHAR 00E1
ENCODING 225
SWIDTH 504 0
DWIDTH 7 0
BBX 5 11 1 0
BITMAP
10
30
20
00
F8
08
08
F8
88
88
F8
ENDCHAR
STARTCHAR 00E2
ENCODING 226
SWIDTH 504 0
DWIDTH 7 0
BBX 5 11 1 0
BITMAP
20
30
40
00
F8
08
08
F8
88
88
F8
ENDCHAR
STARTCHAR 00E3
ENCODING 227
SWIDTH 504 0
DWIDTH 7 0
BBX 5 10 1 0
BITMAP
78
00
00
F8
08
08
F8
88
88
F8
ENDCHAR
STARTCHAR 00E4
ENCODING 228
SWIDTH 504 0
DWIDTH 7 0
BBX 5 10 1 0
BITMAP
58
00
00
F8
08
08
F8
88
88
F8
ENDCHAR
STARTCHAR 00E5
ENCODING 229
SWIDTH 504 0
DWIDTH 7 0
BBX 5 11 1 0
BITMAP
30
50
30
00
F8
08
08
F8
88
88
F8
ENDCHAR
STARTCHAR 00E6
ENCODING 230
SWIDTH 792 0
DWIDTH 11 0
BBX 10 7 1 0
BITMAP
FF80
0C40
0840
FFC0
8800
8C00
FFC0
ENDCHAR
STARTCHAR 00E7
ENCODING 231
SWIDTH 432 0
DWIDTH 6 0
BBX 5 10 1 -3
BITMAP
78
C0
80
80
80
C0
78
20
10
20
ENDCHAR
STARTCHAR 00E8
ENCODING 232
SWIDTH 504 0
DWIDTH 7 0
BBX 6 10 1 1
BITMAP
20
10
00
78
8C
84
FC
80
C0
78
ENDCHAR
STARTCHAR 00E9
ENCODING 233
SWIDTH 504 0
DWIDTH 7 0
BBX 6 10 1 1
BITMAP
10
20
00
78
8C
84
FC
80
C0
78
ENDCHAR
STARTCHAR 00EA
ENCODING 234
SWIDTH 504 0
DWIDTH 7 0
BBX 6 10 1 1
BITMAP
30
48
00
78
8C
84
FC
80
C0
78
ENDCHAR
STARTCHAR 00EB
ENCODING 235
SWIDTH 504 0
DWIDTH 7 0
BBX 6 10 1 0
BITMAP
58
00
00
78
8C
84
FC
80
C0
78
ENDCHAR
STARTCHAR 00EC
ENCODING 236
SWIDTH 216 0
DWIDTH 3 0
BBX 2 10 1 1
BITMAP
80
40
00
80
80
80
80
80
80
80
ENDCHAR
STARTCHAR 00ED
ENCODING 237
SWIDTH 216 0
DWIDTH 3 0
BBX 2 11 1 0
BITMAP
40
40
80
00
80
80
80
80
80
80
80
ENDCHAR
STARTCHAR 00EE
ENCODING 238
SWIDTH 216 0
DWIDTH 3 0
BBX 3 10 0 1
BITMAP
60
80
00
40
40
40
40
40
40
40
ENDCHAR
STARTCHAR 00EF
ENCODING 239
SWIDTH 216 0
DWIDTH 3 0
BBX 4 10 0 0
BITMAP
B0
00
00
40
40
40
40
40
40
40
ENDCHAR
STARTCHAR 00F0
ENCODING 240
SWIDTH 576 0
DWIDTH 8 0
BBX 7 11 1 0
BITMAP
10
1E
38
04
74
CC
84
84
84
CC
78
ENDCHAR
STARTCHAR 00F1
ENCODING 241
SWIDTH 504 0
DWIDTH 7 0
BBX 6 10 1 0
BITMAP
78
00
00
F8
8C
84
84
84
84
84
ENDCHAR
STARTCHAR 00F2
ENCODING 242
SWIDTH 576 0
DWIDTH 8 0
BBX 6 10 1 1
BITMAP
20
10
00
78
C4
84
84
84
CC
78
ENDCHAR
STARTCHAR 00F3
ENCODING 243
SWIDTH 576 0
DWIDTH 8 0
BBX 6 10 1 1
BITMAP
10
20
00
78
C4
84
84
84
CC
78
ENDCHAR
STARTCHAR 00F4
ENCODING 244
SWIDTH 576 0
DWIDTH 8 0
BBX 6 10 1 1
BITMAP
30
48
00
78
C4
84
84
84
CC
78
ENDCHAR
STARTCHAR 00F5
ENCODING 245
SWIDTH 576 0
DWIDTH 8 0
BBX 6 10 1 0
BITMAP
78
00
00
78
C4
84
84
84
CC
78
ENDCHAR
STARTCHAR 00F6
ENCODING 246
SWIDTH 576 0
DWIDTH 8 0
BBX 6 10 1 0
BITMAP
68
00
00
78
C4
84
84
84
CC
78
ENDCHAR
STARTCHAR 00F7
ENCODING 247
SWIDTH 504 0
DWIDTH 7 0
BBX 6 7 1 1
BITMAP
20
30
00
FC
00
00
30
ENDCHAR
STARTCHAR 00F8
ENCODING 248
SWIDTH 576 0
DWIDTH 8 0
BBX 6 7 1 0
BITMAP
7C
CC
94
B4
A4
CC
F8
ENDCHAR
STARTCHAR 00F9
ENCODING 249
SWIDTH 504 0
DWIDTH 7 0
BBX 6 10 1 1
BITMAP
20
10
00
84
84
84
84
84
C4
7C
ENDCHAR
STARTCHAR 00FA
ENCODING 250
SWIDTH 504 0
DWIDTH 7 0
BBX 6 10 1 1
BITMAP
10
20
00
84
84
84
84
84
C4
7C
ENDCHAR
STARTCHAR 00FB
ENCODING 251
SWIDTH 504 0
DWIDTH 7 0
BBX 6 10 1 1
BITMAP
30
48
00
84
84
84
84
84
C4
7C
ENDCHAR
STARTCHAR 00FC
ENCODING 252
SWIDTH 504 0
DWIDTH 7 0
BBX 6 10 1 0
BITMAP
58
00
00
84
84
84
84
84
C4
7C
ENDCHAR
STARTCHAR 00FD
ENCODING 253
SWIDTH 432 0
DWIDTH 6 0
BBX 6 14 0 -3
BITMAP
08
18
10
00
C4
44
44
6C
28
38
18
10
A0
C0
ENDCHAR
STARTCHAR 00FE
ENCODING 254
SWIDTH 576 0
DWIDTH 8 0
BBX 6 14 1 -3
BITMAP
80
80
80
80
F8
84
84
84
84
8C
F8
80
80
80
ENDCHAR
STARTCHAR 00FF
ENCODING 255
SWIDTH 432 0
DWIDTH 6 0
BBX 6 13 0 -3
BITMAP
2C
00
00
C4
44
44
6C
28
38
18
10
A0
C0
ENDCHAR
STARTCHAR 0100
ENCODING 256
SWIDTH 648 0
DWIDTH 9 0
BBX 9 12 0 0
BITMAP
1E00
0000
0800
1C00
1400
1600
2200
2200
7F00
7F00
4180
C180
ENDCHAR
STARTCHAR 0101
ENCODING 257
SWIDTH 504 0
DWIDTH 7 0
BBX 5 10 1 0
BITMAP
78
00
00
F8
08
08
F8
88
88
F8
ENDCHAR
STARTCHAR 0102
ENCODING 258
SWIDTH 648 0
DWIDTH 9 0
BBX 9 13 0 0
BITMAP
1000
1C00
0000
0800
1C00
1400
1600
2200
2200
7F00
7F00
4180
C180
ENDCHAR
STARTCHAR 0103
ENCODING 259
SWIDTH 504 0
DWIDTH 7 0
BBX 5 10 1 0
BITMAP
50
20
00
F8
08
08
F8
88
88
F8
ENDCHAR
STARTCHAR 0104
ENCODING 260
SWIDTH 648 0
DWIDTH 9 0
BBX 9 13 0 -3
BITMAP
0800
1C00
1400
1600
2200
2200
7F00
7F00
4180
C180
0100
0100
0180
ENDCHAR
STARTCHAR 0105
ENCODING 261
SWIDTH 504 0
DWIDTH 7 0
BBX 5 10 1 -3
BITMAP
F8
08
08
F8
88
88
F8
10
10
08
ENDCHAR
STARTCHAR 0106
ENCODING 262
SWIDTH 576 0
DWIDTH 8 0
BBX 7 12 1 1
BITMAP
08
00
1E
62
C0
80
80
80
80
C0
60
3E
ENDCHAR
STARTCHAR 0107
ENCODING 263
SWIDTH 432 0
DWIDTH 6 0
BBX 5 10 1 1
BITMAP
10
20
00
78
C0
80
80
80
C0
78
ENDCHAR
STARTCHAR 0108
ENCODING 264
SWIDTH 576 0
DWIDTH 8 0
BBX 7 12 1 1
BITMAP
18
04
1E
62
C0
80
80
80
80
C0
60
3E
ENDCHAR
STARTCHAR 0109
ENCODING 265
SWIDTH 432 0
DWIDTH 6 0
BBX 5 10 1 1
BITMAP
30
48
00
78
C0
80
80
80
C0
78
ENDCHAR
STARTCHAR 010A
ENCODING 266
SWIDTH 576 0
DWIDTH 8 0
BBX 7 12 1 0
BITMAP
18
00
1E
62
C0
80
80
80
80
C0
60
3E
ENDCHAR
STARTCHAR 010B
ENCODING 267
SWIDTH 432 0
DWIDTH 6 0
BBX 5 10 1 0
BITMAP
30
00
00
78
C0
80
80
80
C0
78
ENDCHAR
STARTCHAR 010C
ENCODING 268
SWIDTH 576 0
DWIDTH 8 0
BBX 7 13 1 0
BITMAP
24
18
00
1E
62
C0
80
80
80
80
C0
60
3E
ENDCHAR
STARTCHAR 010D
ENCODING 269
SWIDTH 432 0
DWIDTH 6 0
BBX 5 11 1 0
BITMAP
48
30
00
00
78
C0
80
80
80
C0
78
ENDCHAR
STARTCHAR 010E
ENCODING 270
SWIDTH 648 0
DWIDTH 9 0
BBX 8 13 1 0
BITMAP
28
38
10
F8
CE
C2
C3
C1
C1
C1
C3
C6
FC
ENDCHAR
STARTCHAR 010F
ENCODING 271
SWIDTH 576 0
DWIDTH 8 0
BBX 8 11 1 0
BITMAP
05
05
05
04
7C
C4
84
84
84
C4
7C
ENDCHAR
STARTCHAR 0110
ENCODING 272
SWIDTH 720 0
DWIDTH 10 0
BBX 9 10 0 0
BITMAP
7C00
6700
6180
6080
F880
F880
6080
6180
6300
7E00
ENDCHAR
STARTCHAR 0111
ENCODING 273
SWIDTH 576 0
DWIDTH 8 0
BBX 7 11 1 0
BITMAP
04
04
1E
04
7C
C4
84
84
84
C4
7C
ENDCHAR
STARTCHAR 0112
ENCODING 274
SWIDTH 504 0
DWIDTH 7 0
BBX 6 12 1 0
BITMAP
78
00
FC
FC
C0
C0
FC
FC
C0
C0
C0
FC
ENDCHAR
STARTCHAR 0113
ENCODING 275
SWIDTH 504 0
DWIDTH 7 0
BBX 6 10 1 0
BITMAP
78
00
00
78
8C
84
FC
80
C0
78
ENDCHAR
STARTCHAR 0114
ENCODING 276
SWIDTH 504 0
DWIDTH 7 0
BBX 6 13 1 0
BITMAP
48
78
00
FC
FC
C0
C0
FC
FC
C0
C0
C0
FC
ENDCHAR
STARTCHAR 0115
ENCODING 277
SWIDTH 504 0
DWIDTH 7 0
BBX 6 10 1 0
BITMAP
58
20
00
78
8C
84
FC
80
C0
78
ENDCHAR
STARTCHAR 0116
ENCODING 278
SWIDTH 504 0
DWIDTH 7 0
BBX 6 12 1 0
BITMAP
30
00
FC
FC
C0
C0
FC
FC
C0
C0
C0
FC
ENDCHAR
STARTCHAR 0117
ENCODING 279
SWIDTH 504 0
DWIDTH 7 0
BBX 6 10 1 0
BITMAP
30
00
00
78
8C
84
FC
80
C0
78
ENDCHAR
STARTCHAR 0118
ENCODING 280
SWIDTH 504 0
DWIDTH 7 0
BBX 6 13 1 -3
BITMAP
FC
FC
C0
C0
FC
FC
C0
C0
C0
FC
0C
08
04
ENDCHAR
STARTCHAR 0119
ENCODING 281
SWIDTH 504 0
DWIDTH 7 0
BBX 6 10 1 -3
BITMAP
78
8C
84
FC
80
C0
78
18
10
08
ENDCHAR
STARTCHAR 011A
ENCODING 282
SWIDTH 504 0
DWIDTH 7 0
BBX 6 13 1 0
BITMAP
48
30
00
FC
FC
C0
C0
FC
FC
C0
C0
C0
FC
ENDCHAR
STARTCHAR 011B
ENCODING 283
SWIDTH 504 0
DWIDTH 7 0
BBX 6 11 1 0
BITMAP
48
30
00
00
78
8C
84
FC
80
C0
78
ENDCHAR
STARTCHAR 011C
ENCODING 284
SWIDTH 648 0
DWIDTH 9 0
BBX 7 13 1 0
BITMAP
08
18
04
1E
62
C0
80
80
82
82
C2
62
3E
ENDCHAR
STARTCHAR 011D
ENCODING 285
SWIDTH 576 0
DWIDTH 8 0
BBX 6 13 1 -2
BITMAP
30
48
00
7C
C4
84
84
84
CC
34
0C
F8
70
ENDCHAR
STARTCHAR 011E
ENCODING 286
SWIDTH 648 0
DWIDTH 9 0
BBX 7 13 1 0
BITMAP
24
1C
00
1E
62
C0
80
80
82
82
C2
62
3E
ENDCHAR
STARTCHAR 011F
ENCODING 287
SWIDTH 576 0
DWIDTH 8 0
BBX 6 13 1 -3
BITMAP
28
10
00
7C
C4
84
84
84
CC
34
0C
F8
70
ENDCHAR
STARTCHAR 0120
ENCODING 288
SWIDTH 648 0
DWIDTH 9 0
BBX 7 12 1 0
BITMAP
18
00
1E
62
C0
80
80
82
82
C2
62
3E
ENDCHAR
STARTCHAR 0121
ENCODING 289
SWIDTH 576 0
DWIDTH 8 0
BBX 6 13 1 -3
BITMAP
30
00
00
7C
C4
84
84
84
CC
34
0C
F8
70
ENDCHAR
STARTCHAR 0122
ENCODING 290
SWIDTH 648 0
DWIDTH 9 0
BBX 7 13 1 -3
BITMAP
1E
62
C0
80
80
82
82
C2
62
3E
00
08
10
ENDCHAR
STARTCHAR 0123
ENCODING 291
SWIDTH 576 0
DWIDTH 8 0
BBX 6 14 1 -3
BITMAP
10
10
10
00
7C
C4
84
84
84
CC
34
0C
F8
70
ENDCHAR
STARTCHAR 0124
ENCODING 292
SWIDTH 648 0
DWIDTH 9 0
BBX 8 12 1 1
BITMAP
18
20
C3
C3
C3
C3
FF
FF
C3
C3
C3
C3
ENDCHAR
STARTCHAR 0125
ENCODING 293
SWIDTH 504 0
DWIDTH 7 0
BBX 6 13 1 0
BITMAP
E0
00
80
80
80
80
F8
8C
84
84
84
84
84
ENDCHAR
STARTCHAR 0126
ENCODING 294
SWIDTH 720 0
DWIDTH 10 0
BBX 10 10 0 0
BITMAP
6180
6180
FFC0
6180
7F80
7F80
6180
6180
6180
6180
ENDCHAR
STARTCHAR 0127
ENCODING 295
SWIDTH 504 0
DWIDTH 7 0
BBX 6 11 1 0
BITMAP
80
80
E0
80
F8
8C
84
84
84
84
84
ENDCHAR
STARTCHAR 0128
ENCODING 296
SWIDTH 216 0
DWIDTH 3 0
BBX 4 12 0 0
BITMAP
F0
00
60
60
60
60
60
60
60
60
60
60
ENDCHAR
STARTCHAR 0129
ENCODING 297
SWIDTH 216 0
DWIDTH 3 0
BBX 4 10 0 0
BITMAP
F0
00
00
40
40
40
40
40
40
40
ENDCHAR
STARTCHAR 012A
ENCODING 298
SWIDTH 216 0
DWIDTH 3 0
BBX 4 12 0 0
BITMAP
F0
00
60
60
60
60
60
60
60
60
60
60
ENDCHAR
STARTCHAR 012B
ENCODING 299
SWIDTH 216 0
DWIDTH 3 0
BBX 4 10 0 0
BITMAP
F0
00
00
40
40
40
40
40
40
40
ENDCHAR
STARTCHAR 012C
ENCODING 300
SWIDTH 216 0
DWIDTH 3 0
BBX 4 13 0 0
BITMAP
90
E0
00
60
60
60
60
60
60
60
60
60
60
ENDCHAR
STARTCHAR 012D
ENCODING 301
SWIDTH 216 0
DWIDTH 3 0
BBX 3 10 0 0
BITMAP
A0
40
00
40
40
40
40
40
40
40
ENDCHAR
STARTCHAR 012E
ENCODING 302
SWIDTH 216 0
DWIDTH 3 0
BBX 3 13 0 -3
BITMAP
60
60
60
60
60
60
60
60
60
60
40
C0
60
ENDCHAR
STARTCHAR 012F
ENCODING 303
SWIDTH 216 0
DWIDTH 3 0
BBX 3 13 0 -3
BITMAP
60
00
00
40
40
40
40
40
40
40
40
80
40
ENDCHAR
STARTCHAR 0130
ENCODING 304
SWIDTH 216 0
DWIDTH 3 0
BBX 2 12 1 0
BITMAP
C0
00
C0
C0
C0
C0
C0
C0
C0
C0
C0
C0
ENDCHAR
STARTCHAR 0131
ENCODING 305
SWIDTH 216 0
DWIDTH 3 0
BBX 1 7 1 0
BITMAP
80
80
80
80
80
80
80
ENDCHAR
STARTCHAR 0132
ENCODING 306
SWIDTH 720 0
DWIDTH 10 0
BBX 9 10 1 0
BITMAP
C180
C180
C180
C180
C180
C180
C180
C180
D100
DF00
ENDCHAR
STARTCHAR 0133
ENCODING 307
SWIDTH 504 0
DWIDTH 7 0
BBX 5 13 1 -3
BITMAP
D8
00
00
88
88
88
88
88
88
88
08
38
20
ENDCHAR
STARTCHAR 0134
ENCODING 308
SWIDTH 432 0
DWIDTH 6 0
BBX 7 12 0 1
BITMAP
0C
02
0C
0C
0C
0C
0C
0C
0C
0C
0C
F8
ENDCHAR
STARTCHAR 0135
ENCODING 309
SWIDTH 216 0
DWIDTH 3 0
BBX 4 13 -1 -2
BITMAP
30
40
00
20
20
20
20
20
20
20
20
E0
C0
ENDCHAR
STARTCHAR 0136
ENCODING 310
SWIDTH 576 0
DWIDTH 8 0
BBX 7 13 1 -3
BITMAP
C2
C4
C8
D0
E0
F0
D8
CC
C6
C2
00
10
20
ENDCHAR
STARTCHAR 0137
ENCODING 311
SWIDTH 504 0
DWIDTH 7 0
BBX 6 14 1 -3
BITMAP
80
80
80
80
88
90
A0
E0
90
98
8C
00
20
60
ENDCHAR
STARTCHAR 0138
ENCODING 312
SWIDTH 504 0
DWIDTH 7 0
BBX 6 7 1 0
BITMAP
88
90
A0
E0
90
88
8C
ENDCHAR
STARTCHAR 0139
ENCODING 313
SWIDTH 504 0
DWIDTH 7 0
BBX 6 13 1 0
BITMAP
20
40
00
C0
C0
C0
C0
C0
C0
C0
C0
C0
FC
ENDCHAR
STARTCHAR 013A
ENCODING 314
SWIDTH 216 0
DWIDTH 3 0
BBX 2 13 1 0
BITMAP
40
80
80
80
80
80
80
80
80
80
80
80
C0
ENDCHAR
STARTCHAR 013B
ENCODING 315
SWIDTH 504 0
DWIDTH 7 0
BBX 6 13 1 -3
BITMAP
C0
C0
C0
C0
C0
C0
C0
C0
C0
FC
00
30
20
ENDCHAR
STARTCHAR 013C
ENCODING 316
SWIDTH 216 0
DWIDTH 3 0
BBX 2 14 1 -3
BITMAP
80
80
80
80
80
80
80
80
80
80
C0
00
C0
80
ENDCHAR
STARTCHAR 013D
ENCODING 317
SWIDTH 504 0
DWIDTH 7 0
BBX 6 10 1 0
BITMAP
D0
D0
D0
C0
C0
C0
C0
C0
C0
FC
ENDCHAR
STARTCHAR 013E
ENCODING 318
SWIDTH 216 0
DWIDTH 3 0
BBX 4 11 1 0
BITMAP
B0
A0
A0
80
80
80
80
80
80
80
C0
ENDCHAR
STARTCHAR 013F
ENCODING 319
SWIDTH 504 0
DWIDTH 7 0
BBX 6 10 1 0
BITMAP
C0
C0
C0
C0
C8
C8
C0
C0
C0
FC
ENDCHAR
STARTCHAR 0140
ENCODING 320
SWIDTH 360 0
DWIDTH 5 0
BBX 4 11 1 0
BITMAP
80
80
80
80
80
90
90
80
80
80
C0
ENDCHAR
STARTCHAR 0141
ENCODING 321
SWIDTH 504 0
DWIDTH 7 0
BBX 7 10 0 0
BITMAP
60
60
60
60
70
E0
E0
60
60
7E
ENDCHAR
STARTCHAR 0142
ENCODING 322
SWIDTH 216 0
DWIDTH 3 0
BBX 4 11 0 0
BITMAP
60
60
60
60
70
60
E0
60
60
60
30
ENDCHAR
STARTCHAR 0143
ENCODING 323
SWIDTH 720 0
DWIDTH 10 0
BBX 8 12 1 1
BITMAP
08
10
81
C1
E1
F1
D9
C9
C5
C7
C3
C3
ENDCHAR
STARTCHAR 0144
ENCODING 324
SWIDTH 504 0
DWIDTH 7 0
BBX 6 10 1 1
BITMAP
10
20
00
F8
8C
84
84
84
84
84
ENDCHAR
STARTCHAR 0145
ENCODING 325
SWIDTH 720 0
DWIDTH 10 0
BBX 8 13 1 -3
BITMAP
81
C1
E1
F1
D9
C9
C5
C7
C3
C3
00
18
10
ENDCHAR
STARTCHAR 0146
ENCODING 326
SWIDTH 504 0
DWIDTH 7 0
BBX 6 10 1 -3
BITMAP
F8
8C
84
84
84
84
84
00
30
20
ENDCHAR
STARTCHAR 0147
ENCODING 327
SWIDTH 720 0
DWIDTH 10 0
BBX 8 13 1 0
BITMAP
24
18
00
81
C1
E1
F1
D9
C9
C5
C7
C3
C3
ENDCHAR
STARTCHAR 0148
ENCODING 328
SWIDTH 504 0
DWIDTH 7 0
BBX 6 11 1 0
BITMAP
48
30
00
00
F8
8C
84
84
84
84
84
ENDCHAR
STARTCHAR 0149
ENCODING 329
SWIDTH 504 0
DWIDTH 7 0
BBX 7 11 0 0
BITMAP
40
40
80
00
7C
46
42
42
42
42
42
ENDCHAR
STARTCHAR 014A
ENCODING 330
SWIDTH 720 0
DWIDTH 10 0
BBX 8 13 1 -3
BITMAP
81
C1
E1
F1
D9
C9
C5
C7
C3
C3
01
03
06
ENDCHAR
STARTCHAR 014B
ENCODING 331
SWIDTH 504 0
DWIDTH 7 0
BBX 6 10 1 -3
BITMAP
F8
8C
84
84
84
84
84
04
0C
18
ENDCHAR
STARTCHAR 014C
ENCODING 332
SWIDTH 720 0
DWIDTH 10 0
BBX 9 12 1 0
BITMAP
3C00
0000
1C00
6700
C100
8180
8080
8080
8180
C180
6300
3E00
ENDCHAR
STARTCHAR 014D
ENCODING 333
SWIDTH 576 0
DWIDTH 8 0
BBX 6 10 1 0
BITMAP
78
00
00
78
C4
84
84
84
CC
78
ENDCHAR
STARTCHAR 014E
ENCODING 334
SWIDTH 720 0
DWIDTH 10 0
BBX 9 13 1 0
BITMAP
0400
1C00
0000
1C00
6700
C100
8180
8080
8080
8180
C180
6300
3E00
ENDCHAR
STARTCHAR 014F
ENCODING 335
SWIDTH 576 0
DWIDTH 8 0
BBX 6 10 1 0
BITMAP
68
10
00
78
C4
84
84
84
CC
78
ENDCHAR
STARTCHAR 0150
ENCODING 336
SWIDTH 720 0
DWIDTH 10 0
BBX 9 13 1 0
BITMAP
0A00
1200
1400
1C00
6700
C100
8180
8080
8080
8180
C180
6300
3E00
ENDCHAR
STARTCHAR 0151
ENCODING 337
SWIDTH 576 0
DWIDTH 8 0
BBX 6 11 1 0
BITMAP
04
2C
48
00
78
C4
84
84
84
CC
78
ENDCHAR
STARTCHAR 0152
ENCODING 338
SWIDTH 936 0
DWIDTH 13 0
BBX 12 10 1 0
BITMAP
1FF0
73F0
C300
C300
83E0
83E0
8300
C300
6300
3FF0
ENDCHAR
STARTCHAR 0153
ENCODING 339
SWIDTH 936 0
DWIDTH 13 0
BBX 11 7 1 0
BITMAP
7BE0
C620
8420
87E0
8600
CE00
79E0
ENDCHAR
STARTCHAR 0154
ENCODING 340
SWIDTH 576 0
DWIDTH 8 0
BBX 7 12 1 1
BITMAP
10
00
F8
CC
C6
C6
C6
FC
C8
CC
C6
C2
ENDCHAR
STARTCHAR 0155
ENCODING 341
SWIDTH 360 0
DWIDTH 5 0
BBX 4 10 1 1
BITMAP
20
40
00
F0
80
80
80
80
80
80
ENDCHAR
STARTCHAR 0156
ENCODING 342
SWIDTH 576 0
DWIDTH 8 0
BBX 7 13 1 -3
BITMAP
F8
CC
C6
C6
C6
FC
C8
CC
C6
C2
00
10
20
ENDCHAR
STARTCHAR 0157
ENCODING 343
SWIDTH 360 0
DWIDTH 5 0
BBX 5 10 0 -3
BITMAP
78
40
40
40
40
40
40
00
40
80
ENDCHAR
STARTCHAR 0158
ENCODING 344
SWIDTH 576 0
DWIDTH 8 0
BBX 7 13 1 0
BITMAP
48
30
00
F8
CC
C6
C6
C6
FC
C8
CC
C6
C2
ENDCHAR
STARTCHAR 0159
ENCODING 345
SWIDTH 360 0
DWIDTH 5 0
BBX 4 11 1 0
BITMAP
10
60
20
00
F0
80
80
80
80
80
80
ENDCHAR
STARTCHAR 015A
ENCODING 346
SWIDTH 504 0
DWIDTH 7 0
BBX 7 13 0 0
BITMAP
08
18
10
3C
64
40
40
70
1C
06
02
06
FC
ENDCHAR
STARTCHAR 015B
ENCODING 347
SWIDTH 432 0
DWIDTH 6 0
BBX 5 10 1 1
BITMAP
20
40
00
F0
80
C0
70
18
18
F0
ENDCHAR
STARTCHAR 015C
ENCODING 348
SWIDTH 504 0
DWIDTH 7 0
BBX 7 13 0 0
BITMAP
10
18
20
3C
64
40
40
70
1C
06
02
06
FC
ENDCHAR
STARTCHAR 015D
ENCODING 349
SWIDTH 432 0
DWIDTH 6 0
BBX 5 10 1 1
BITMAP
60
90
00
F0
80
C0
70
18
18
F0
ENDCHAR
STARTCHAR 015E
ENCODING 350
SWIDTH 504 0
DWIDTH 7 0
BBX 7 13 0 -3
BITMAP
3C
64
40
40
70
1C
06
02
06
FC
10
08
30
ENDCHAR
STARTCHAR 015F
ENCODING 351
SWIDTH 432 0
DWIDTH 6 0
BBX 5 10 1 -3
BITMAP
F0
80
C0
70
18
18
F0
40
20
40
ENDCHAR
STARTCHAR 0160
ENCODING 352
SWIDTH 504 0
DWIDTH 7 0
BBX 7 13 0 0
BITMAP
24
18
00
3C
64
40
40
70
1C
06
02
06
FC
ENDCHAR
STARTCHAR 0161
ENCODING 353
SWIDTH 432 0
DWIDTH 6 0
BBX 5 11 1 0
BITMAP
10
60
00
00
F0
80
C0
70
18
18
F0
ENDCHAR
STARTCHAR 0162
ENCODING 354
SWIDTH 504 0
DWIDTH 7 0
BBX 8 13 0 -3
BITMAP
FF
FF
18
18
18
18
18
18
18
18
10
08
30
ENDCHAR
STARTCHAR 0163
ENCODING 355
SWIDTH 360 0
DWIDTH 5 0
BBX 4 12 1 -3
BITMAP
80
80
F0
80
80
80
80
C0
70
20
20
60
ENDCHAR
STARTCHAR 0164
ENCODING 356
SWIDTH 504 0
DWIDTH 7 0
BBX 8 13 0 0
BITMAP
24
18
00
FF
FF
18
18
18
18
18
18
18
18
ENDCHAR
STARTCHAR 0165
ENCODING 357
SWIDTH 360 0
DWIDTH 5 0
BBX 4 11 1 0
BITMAP
20
20
A0
80
F0
80
80
80
80
C0
70
ENDCHAR
STARTCHAR 0166
ENCODING 358
SWIDTH 504 0
DWIDTH 7 0
BBX 8 10 0 0
BITMAP
FF
FF
18
18
18
7C
18
18
18
18
ENDCHAR
STARTCHAR 0167
ENCODING 359
SWIDTH 360 0
DWIDTH 5 0
BBX 4 9 1 0
BITMAP
80
80
F0
80
80
F0
80
C0
70
ENDCHAR
STARTCHAR 0168
ENCODING 360
SWIDTH 648 0
DWIDTH 9 0
BBX 7 12 1 0
BITMAP
3C
00
82
82
82
82
82
82
82
C2
46
7C
ENDCHAR
STARTCHAR 0169
ENCODING 361
SWIDTH 504 0
DWIDTH 7 0
BBX 6 10 1 0
BITMAP
78
00
00
84
84
84
84
84
C4
7C
ENDCHAR
STARTCHAR 016A
ENCODING 362
SWIDTH 648 0
DWIDTH 9 0
BBX 7 12 1 0
BITMAP
3C
00
82
82
82
82
82
82
82
C2
46
7C
ENDCHAR
STARTCHAR 016B
ENCODING 363
SWIDTH 504 0
DWIDTH 7 0
BBX 6 10 1 0
BITMAP
78
00
00
84
84
84
84
84
C4
7C
ENDCHAR
STARTCHAR 016C
ENCODING 364
SWIDTH 648 0
DWIDTH 9 0
BBX 7 13 1 0
BITMAP
24
38
00
82
82
82
82
82
82
82
C2
46
7C
ENDCHAR
STARTCHAR 016D
ENCODING 365
SWIDTH 504 0
DWIDTH 7 0
BBX 6 10 1 0
BITMAP
58
20
00
84
84
84
84
84
C4
7C
ENDCHAR
STARTCHAR 016E
ENCODING 366
SWIDTH 648 0
DWIDTH 9 0
BBX 7 13 1 0
BITMAP
18
28
18
82
82
82
82
82
82
82
C2
46
7C
ENDCHAR
STARTCHAR 016F
ENCODING 367
SWIDTH 504 0
DWIDTH 7 0
BBX 6 11 1 0
BITMAP
30
50
30
00
84
84
84
84
84
C4
7C
ENDCHAR
STARTCHAR 0170
ENCODING 368
SWIDTH 648 0
DWIDTH 9 0
BBX 7 13 1 0
BITMAP
10
14
20
82
82
82
82
82
82
82
C2
46
7C
ENDCHAR
STARTCHAR 0171
ENCODING 369
SWIDTH 504 0
DWIDTH 7 0
BBX 6 10 1 1
BITMAP
28
48
00
84
84
84
84
84
C4
7C
ENDCHAR
STARTCHAR 0172
ENCODING 370
SWIDTH 648 0
DWIDTH 9 0
BBX 7 13 1 -3
BITMAP
82
82
82
82
82
82
82
C2
46
7C
08
10
08
ENDCHAR
STARTCHAR 0173
ENCODING 371
SWIDTH 504 0
DWIDTH 7 0
BBX 6 10 1 -3
BITMAP
84
84
84
84
84
C4
7C
08
18
0C
ENDCHAR
STARTCHAR 0174
ENCODING 372
SWIDTH 864 0
DWIDTH 12 0
BBX 12 13 0 0
BITMAP
0200
0700
0000
C010
4010
4210
4710
6530
6520
29A0
28A0
38E0
1040
ENDCHAR
STARTCHAR 0175
ENCODING 373
SWIDTH 720 0
DWIDTH 10 0
BBX 10 11 0 0
BITMAP
0400
0E00
0A00
0000
C440
4C40
4A40
6A80
2A80
3380
3100
ENDCHAR
STARTCHAR 0176
ENCODING 374
SWIDTH 576 0
DWIDTH 8 0
BBX 8 12 0 1
BITMAP
18
04
C1
43
62
24
3C
18
18
18
18
18
ENDCHAR
STARTCHAR 0177
ENCODING 375
SWIDTH 432 0
DWIDTH 6 0
BBX 6 14 0 -3
BITMAP
10
38
20
00
C4
44
44
6C
28
38
18
10
A0
C0
ENDCHAR
STARTCHAR 0178
ENCODING 376
SWIDTH 576 0
DWIDTH 8 0
BBX 8 12 0 0
BITMAP
34
00
C1
43
62
24
3C
18
18
18
18
18
ENDCHAR
STARTCHAR 0179
ENCODING 377
SWIDTH 504 0
DWIDTH 7 0
BBX 7 12 0 1
BITMAP
08
10
7E
7E
04
0C
18
10
20
60
40
FE
ENDCHAR
STARTCHAR 017A
ENCODING 378
SWIDTH 432 0
DWIDTH 6 0
BBX 6 10 0 1
BITMAP
10
20
00
7C
08
10
30
20
40
FC
ENDCHAR
STARTCHAR 017B
ENCODING 379
SWIDTH 504 0
DWIDTH 7 0
BBX 7 12 0 0
BITMAP
18
00
7E
7E
04
0C
18
10
20
60
40
FE
ENDCHAR
STARTCHAR 017C
ENCODING 380
SWIDTH 432 0
DWIDTH 6 0
BBX 6 10 0 0
BITMAP
30
00
00
7C
08
10
30
20
40
FC
ENDCHAR
STARTCHAR 017D
ENCODING 381
SWIDTH 504 0
DWIDTH 7 0
BBX 7 13 0 0
BITMAP
24
18
00
7E
7E
04
0C
18
10
20
60
40
FE
ENDCHAR
STARTCHAR 017E
ENCODING 382
SWIDTH 432 0
DWIDTH 6 0
BBX 6 11 0 0
BITMAP
08
30
10
00
7C
08
10
30
20
40
FC
ENDCHAR
STARTCHAR 017F
ENCODING 383
SWIDTH 216 0
DWIDTH 3 0
BBX 4 11 1 0
BITMAP
70
C0
80
80
80
80
80
80
80
80
80
ENDCHAR
STARTCHAR 0180
ENCODING 384
SWIDTH 576 0
DWIDTH 8 0
BBX 6 11 1 0
BITMAP
80
80
E0
80
F8
84
84
84
84
8C
F8
ENDCHAR
STARTCHAR 0181
ENCODING 385
SWIDTH 720 0
DWIDTH 10 0
BBX 10 10 0 0
BITMAP
3E00
F380
9080
1080
1F00
1F80
10C0
10C0
1080
1F00
ENDCHAR
STARTCHAR 0182
ENCODING 386
SWIDTH 576 0
DWIDTH 8 0
BBX 7 10 1 0
BITMAP
FC
FC
C0
C0
FC
C6
C2
C2
C6
FC
ENDCHAR
STARTCHAR 0183
ENCODING 387
SWIDTH 576 0
DWIDTH 8 0
BBX 6 11 1 0
BITMAP
FC
80
80
80
F8
84
84
84
84
8C
F8
ENDCHAR
STARTCHAR 0184
ENCODING 388
SWIDTH 576 0
DWIDTH 8 0
BBX 7 10 0 1
BITMAP
C0
40
40
7C
42
42
42
42
46
7C
ENDCHAR
STARTCHAR 0185
ENCODING 389
SWIDTH 576 0
DWIDTH 8 0
BBX 7 10 1 0
BITMAP
40
C0
C0
C0
FC
C6
C2
C2
C6
FC
ENDCHAR
STARTCHAR 0186
ENCODING 390
SWIDTH 576 0
DWIDTH 8 0
BBX 8 10 0 0
BITMAP
78
4E
02
03
03
03
03
02
06
FC
ENDCHAR
STARTCHAR 0187
ENCODING 391
SWIDTH 648 0
DWIDTH 9 0
BBX 9 11 1 0
BITMAP
0180
1E00
6200
C000
8000
8000
8000
8000
C000
6000
3E00
ENDCHAR
STARTCHAR 0188
ENCODING 392
SWIDTH 504 0
DWIDTH 7 0
BBX 7 9 1 0
BITMAP
06
08
78
C0
80
80
80
C0
78
ENDCHAR
STARTCHAR 0189
ENCODING 393
SWIDTH 720 0
DWIDTH 10 0
BBX 9 10 0 0
BITMAP
7C00
6700
6180
6080
F880
F880
6080
6180
6300
7E00
ENDCHAR
STARTCHAR 018A
ENCODING 394
SWIDTH 792 0
DWIDTH 11 0
BBX 10 10 0 0
BITMAP
3E00
F380
90C0
1040
1040
1040
1040
10C0
1180
1F00
ENDCHAR
STARTCHAR 018B
ENCODING 395
SWIDTH 576 0
DWIDTH 8 0
BBX 6 10 1 0
BITMAP
7C
7C
04
04
7C
C4
84
84
C4
7C
ENDCHAR
STARTCHAR 018C
ENCODING 396
SWIDTH 576 0
DWIDTH 8 0
BBX 6 11 1 0
BITMAP
FC
04
04
04
7C
C4
84
84
84
C4
7C
ENDCHAR
STARTCHAR 018D
ENCODING 397
SWIDTH 576 0
DWIDTH 8 0
BBX 6 10 1 -3
BITMAP
78
84
84
84
84
78
30
08
58
20
ENDCHAR
STARTCHAR 018E
ENCODING 398
SWIDTH 504 0
DWIDTH 7 0
BBX 6 10 1 0
BITMAP
FC
FC
0C
0C
FC
FC
0C
0C
0C
FC
ENDCHAR
STARTCHAR 018F
ENCODING 399
SWIDTH 648 0
DWIDTH 9 0
BBX 8 10 1 0
BITMAP
78
4E
02
03
01
FF
83
83
C6
7C
ENDCHAR
STARTCHAR 0190
ENCODING 400
SWIDTH 504 0
DWIDTH 7 0
BBX 7 10 1 0
BITMAP
3C
C4
C0
C0
78
E0
80
80
C0
7E
ENDCHAR
STARTCHAR 0191
ENCODING 401
SWIDTH 504 0
DWIDTH 7 0
BBX 7 13 0 -3
BITMAP
7E
7E
60
60
7E
7E
60
60
60
60
60
40
80
ENDCHAR
STARTCHAR 0192
ENCODING 402
SWIDTH 360 0
DWIDTH 5 0
BBX 6 14 -1 -3
BITMAP
1C
30
20
20
3C
20
20
20
20
20
20
20
E0
C0
ENDCHAR
STARTCHAR 0193
ENCODING 403
SWIDTH 648 0
DWIDTH 9 0
BBX 9 11 1 0
BITMAP
0180
1E00
6200
C000
8000
8000
8200
8200
C200
6200
3E00
ENDCHAR
STARTCHAR 0194
ENCODING 404
SWIDTH 648 0
DWIDTH 9 0
BBX 9 13 0 -3
BITMAP
C180
4100
6100
2200
2200
1400
1400
0800
1C00
1400
1600
1C00
0800
ENDCHAR
STARTCHAR 0195
ENCODING 405
SWIDTH 864 0
DWIDTH 12 0
BBX 10 11 1 0
BITMAP
8000
8000
8000
8000
F840
8C40
8C40
8440
8440
8440
8780
ENDCHAR
STARTCHAR 0196
ENCODING 406
SWIDTH 360 0
DWIDTH 5 0
BBX 4 10 1 0
BITMAP
C0
C0
C0
C0
C0
C0
C0
C0
C0
70
ENDCHAR
STARTCHAR 0197
ENCODING 407
SWIDTH 288 0
DWIDTH 4 0
BBX 4 10 0 0
BITMAP
20
20
20
20
F0
F0
20
20
20
20
ENDCHAR
STARTCHAR 0198
ENCODING 408
SWIDTH 648 0
DWIDTH 9 0
BBX 8 10 1 0
BITMAP
C7
CD
D8
F0
E0
F0
D8
CC
C6
C2
ENDCHAR
STARTCHAR 0199
ENCODING 409
SWIDTH 504 0
DWIDTH 7 0
BBX 6 11 1 0
BITMAP
60
C0
80
80
88
90
A0
E0
90
98
8C
ENDCHAR
STARTCHAR 019A
ENCODING 410
SWIDTH 216 0
DWIDTH 3 0
BBX 4 11 0 0
BITMAP
60
60
60
60
60
F0
60
60
60
60
30
ENDCHAR
STARTCHAR 019B
ENCODING 411
SWIDTH 504 0
DWIDTH 7 0
BBX 7 11 0 0
BITMAP
E0
28
70
10
18
28
28
6C
44
44
C6
ENDCHAR
STARTCHAR 019C
ENCODING 412
SWIDTH 936 0
DWIDTH 13 0
BBX 11 10 1 0
BITMAP
C420
C420
C420
C420
C420
C420
C420
C620
C620
7FE0
ENDCHAR
STARTCHAR 019D
ENCODING 413
SWIDTH 720 0
DWIDTH 10 0
BBX 9 13 0 -3
BITMAP
4080
6080
7080
7880
6C80
6480
6280
6380
6180
6180
6000
4000
8000
ENDCHAR
STARTCHAR 019E
ENCODING 414
SWIDTH 504 0
DWIDTH 7 0
BBX 6 10 1 -3
BITMAP
F8
8C
84
84
84
84
84
04
04
04
ENDCHAR
STARTCHAR 019F
ENCODING 415
SWIDTH 720 0
DWIDTH 10 0
BBX 9 10 1 0
BITMAP
1C00
6700
C100
8180
8080
FF80
8180
C180
6300
3E00
ENDCHAR
STARTCHAR 01A0
ENCODING 416
SWIDTH 720 0
DWIDTH 10 0
BBX 9 11 1 0
BITMAP
0080
1C80
6700
C100
8180
8080
8080
8180
C180
6300
3E00
ENDCHAR
STARTCHAR 01A1
ENCODING 417
SWIDTH 576 0
DWIDTH 8 0
BBX 7 9 1 0
BITMAP
02
02
7E
C4
84
84
84
CC
78
ENDCHAR
STARTCHAR 01A2
ENCODING 418
SWIDTH 1008 0
DWIDTH 14 0
BBX 12 10 1 0
BITMAP
3CE0
6730
C310
8110
8190
8190
8110
C110
6310
3E10
ENDCHAR
STARTCHAR 01A3
ENCODING 419
SWIDTH 792 0
DWIDTH 11 0
BBX 9 10 1 -3
BITMAP
7F80
CC80
8480
8480
8480
CC80
7880
0080
0080
0080
ENDCHAR
STARTCHAR 01A4
ENCODING 420
SWIDTH 648 0
DWIDTH 9 0
BBX 9 10 0 0
BITMAP
3E00
F380
9080
1080
1080
1F00
1000
1000
1000
1000
ENDCHAR
STARTCHAR 01A5
ENCODING 421
SWIDTH 576 0
DWIDTH 8 0
BBX 6 14 1 -3
BITMAP
60
C0
80
80
F8
84
84
84
84
8C
F8
80
80
80
ENDCHAR
STARTCHAR 01A6
ENCODING 422
SWIDTH 576 0
DWIDTH 8 0
BBX 8 13 1 -2
BITMAP
C0
F8
CC
C6
C6
C6
FC
C8
CC
C6
C2
03
01
ENDCHAR
STARTCHAR 01A7
ENCODING 423
SWIDTH 504 0
DWIDTH 7 0
BBX 7 10 0 0
BITMAP
78
4C
06
06
1C
70
40
C0
42
7E
ENDCHAR
STARTCHAR 01A8
ENCODING 424
SWIDTH 432 0
DWIDTH 6 0
BBX 5 7 1 0
BITMAP
F0
18
10
E0
80
80
F8
ENDCHAR
STARTCHAR 01A9
ENCODING 425
SWIDTH 504 0
DWIDTH 7 0
BBX 7 10 0 0
BITMAP
7E
7E
20
30
18
18
30
20
40
FE
ENDCHAR
STARTCHAR 01AA
ENCODING 426
SWIDTH 216 0
DWIDTH 3 0
BBX 5 14 -1 -3
BITMAP
60
B0
90
F0
10
10
10
10
10
10
10
10
18
08
ENDCHAR
STARTCHAR 01AB
ENCODING 427
SWIDTH 360 0
DWIDTH 5 0
BBX 4 12 1 -3
BITMAP
80
80
F0
80
80
80
80
C0
70
10
10
20
ENDCHAR
STARTCHAR 01AC
ENCODING 428
SWIDTH 576 0
DWIDTH 8 0
BBX 8 10 0 0
BITMAP
3F
FF
88
08
08
08
08
08
08
08
ENDCHAR
STARTCHAR 01AD
ENCODING 429
SWIDTH 360 0
DWIDTH 5 0
BBX 4 11 1 0
BITMAP
70
C0
80
80
F0
80
80
80
80
C0
70
ENDCHAR
STARTCHAR 01AE
ENCODING 430
SWIDTH 504 0
DWIDTH 7 0
BBX 8 13 0 -3
BITMAP
FF
FF
18
18
18
18
18
18
18
18
18
18
0C
ENDCHAR
STARTCHAR 01AF
ENCODING 431
SWIDTH 648 0
DWIDTH 9 0
BBX 9 11 1 0
BITMAP
0080
8380
8200
8200
8200
8200
8200
8200
C200
4600
7C00
ENDCHAR
STARTCHAR 01B0
ENCODING 432
SWIDTH 576 0
DWIDTH 8 0
BBX 8 9 1 0
BITMAP
03
02
86
84
84
84
84
C4
7C
ENDCHAR
STARTCHAR 01B1
ENCODING 433
SWIDTH 720 0
DWIDTH 10 0
BBX 9 10 1 0
BITMAP
E780
E380
4100
C180
8180
8080
8180
C180
6300
3E00
ENDCHAR
STARTCHAR 01B2
ENCODING 434
SWIDTH 648 0
DWIDTH 9 0
BBX 8 10 1 0
BITMAP
8C
86
82
83
83
83
83
C2
46
7C
ENDCHAR
STARTCHAR 01B3
ENCODING 435
SWIDTH 648 0
DWIDTH 9 0
BBX 9 10 0 0
BITMAP
C180
4380
6600
2400
3C00
1800
1800
1800
1800
1800
ENDCHAR
STARTCHAR 01B4
ENCODING 436
SWIDTH 504 0
DWIDTH 7 0
BBX 8 10 0 -3
BITMAP
C7
44
44
6C
28
38
18
10
F0
40
ENDCHAR
STARTCHAR 01B5
ENCODING 437
SWIDTH 504 0
DWIDTH 7 0
BBX 7 10 0 0
BITMAP
7E
7E
04
0C
7E
7E
20
60
40
FE
ENDCHAR
STARTCHAR 01B6
ENCODING 438
SWIDTH 432 0
DWIDTH 6 0
BBX 6 7 0 0
BITMAP
7C
08
10
7C
20
40
FC
ENDCHAR
STARTCHAR 01B7
ENCODING 439
SWIDTH 504 0
DWIDTH 7 0
BBX 7 10 0 0
BITMAP
7E
7E
0C
08
10
0E
02
02
06
FC
ENDCHAR
STARTCHAR 01B8
ENCODING 440
SWIDTH 504 0
DWIDTH 7 0
BBX 7 10 1 0
BITMAP
FC
FC
40
20
10
E0
80
80
C0
7E
ENDCHAR
STARTCHAR 01B9
ENCODING 441
SWIDTH 432 0
DWIDTH 6 0
BBX 5 10 1 -3
BITMAP
F8
40
60
20
70
80
80
80
F8
30
ENDCHAR
STARTCHAR 01BA
ENCODING 442
SWIDTH 432 0
DWIDTH 6 0
BBX 6 10 0 -3
BITMAP
FC
08
10
38
0C
04
0C
70
80
80
ENDCHAR
STARTCHAR 01BB
ENCODING 443
SWIDTH 504 0
DWIDTH 7 0
BBX 6 10 1 0
BITMAP
70
98
08
08
18
FC
60
C0
80
FC
ENDCHAR
STARTCHAR 01BC
ENCODING 444
SWIDTH 504 0
DWIDTH 7 0
BBX 7 10 0 0
BITMAP
FE
FE
20
20
78
0C
06
02
06
7C
ENDCHAR
STARTCHAR 01BD
ENCODING 445
SWIDTH 432 0
DWIDTH 6 0
BBX 6 7 0 0
BITMAP
FC
60
60
7C
04
04
7C
ENDCHAR
STARTCHAR 01BE
ENCODING 446
SWIDTH 432 0
DWIDTH 6 0
BBX 5 9 1 0
BITMAP
80
80
F0
80
C0
70
18
08
F0
ENDCHAR
STARTCHAR 01BF
ENCODING 447
SWIDTH 504 0
DWIDTH 7 0
BBX 6 10 1 -3
BITMAP
F8
8C
84
84
8C
88
B0
C0
80
80
ENDCHAR
STARTCHAR 01C0
ENCODING 448
SWIDTH 216 0
DWIDTH 3 0
BBX 2 14 1 -3
BITMAP
C0
C0
C0
C0
C0
C0
C0
C0
C0
C0
C0
C0
C0
C0
ENDCHAR
STARTCHAR 01C1
ENCODING 449
SWIDTH 432 0
DWIDTH 6 0
BBX 4 14 1 -3
BITMAP
D0
D0
D0
D0
D0
D0
D0
D0
D0
D0
D0
D0
D0
D0
ENDCHAR
STARTCHAR 01C2
ENCODING 450
SWIDTH 504 0
DWIDTH 7 0
BBX 6 14 1 -3
BITMAP
30
30
30
30
30
FC
30
30
FC
30
30
30
30
30
ENDCHAR
STARTCHAR 01C3
ENCODING 451
SWIDTH 216 0
DWIDTH 3 0
BBX 2 10 1 0
BITMAP
C0
C0
C0
C0
C0
80
80
00
80
C0
ENDCHAR
STARTCHAR 01C4
ENCODING 452
SWIDTH 1224 0
DWIDTH 17 0
BBX 16 13 1 0
BITMAP
0012
000C
0000
F83F
CE3F
C202
C306
C10C
C108
C110
C330
C620
FC7F
ENDCHAR
STARTCHAR 01C5
ENCODING 453
SWIDTH 1152 0
DWIDTH 16 0
BBX 15 11 1 0
BITMAP
0004
F818
CE08
C200
C33E
C104
C108
C118
C330
C620
FC7E
ENDCHAR
STARTCHAR 01C6
ENCODING 454
SWIDTH 1008 0
DWIDTH 14 0
BBX 13 11 1 0
BITMAP
0400
0470
0420
0400
7CF8
C410
8430
8460
8440
C4C0
7CF8
ENDCHAR
STARTCHAR 01C7
ENCODING 455
SWIDTH 1008 0
DWIDTH 14 0
BBX 12 10 1 0
BITMAP
C010
C010
C010
C010
C010
C010
C010
C010
C030
FFE0
ENDCHAR
STARTCHAR 01C8
ENCODING 456
SWIDTH 720 0
DWIDTH 10 0
BBX 9 13 1 -3
BITMAP
C180
C000
C000
C180
C180
C180
C180
C180
C180
FD80
0180
0700
0200
ENDCHAR
STARTCHAR 01C9
ENCODING 457
SWIDTH 504 0
DWIDTH 7 0
BBX 5 14 1 -3
BITMAP
80
88
80
80
88
88
88
88
88
88
C8
08
38
30
ENDCHAR
STARTCHAR 01CA
ENCODING 458
SWIDTH 1224 0
DWIDTH 17 0
BBX 15 10 1 0
BITMAP
8102
C102
E102
F102
D902
C902
C502
C702
C306
C37C
ENDCHAR
STARTCHAR 01CB
ENCODING 459
SWIDTH 936 0
DWIDTH 13 0
BBX 12 13 1 -3
BITMAP
8130
C100
E100
F130
D930
C930
C530
C730
C330
C330
0030
00E0
00C0
ENDCHAR
STARTCHAR 01CC
ENCODING 460
SWIDTH 792 0
DWIDTH 11 0
BBX 10 13 1 -3
BITMAP
00C0
0000
0000
F880
8C80
8480
8480
8480
8480
8480
0080
0380
0300
ENDCHAR
STARTCHAR 01CD
ENCODING 461
SWIDTH 648 0
DWIDTH 9 0
BBX 9 13 0 0
BITMAP
1400
1C00
0800
0800
1C00
1400
1600
2200
2200
7F00
7F00
4180
C180
ENDCHAR
STARTCHAR 01CE
ENCODING 462
SWIDTH 504 0
DWIDTH 7 0
BBX 5 11 1 0
BITMAP
40
70
20
00
F8
08
08
F8
88
88
F8
ENDCHAR
STARTCHAR 01CF
ENCODING 463
SWIDTH 216 0
DWIDTH 3 0
BBX 4 13 0 0
BITMAP
90
60
00
60
60
60
60
60
60
60
60
60
60
ENDCHAR
STARTCHAR 01D0
ENCODING 464
SWIDTH 216 0
DWIDTH 3 0
BBX 3 11 0 0
BITMAP
80
60
40
00
40
40
40
40
40
40
40
ENDCHAR
STARTCHAR 01D1
ENCODING 465
SWIDTH 720 0
DWIDTH 10 0
BBX 9 13 1 0
BITMAP
1400
1C00
0800
1C00
6700
C100
8180
8080
8080
8180
C180
6300
3E00
ENDCHAR
STARTCHAR 01D2
ENCODING 466
SWIDTH 576 0
DWIDTH 8 0
BBX 6 11 1 0
BITMAP
08
30
00
00
78
C4
84
84
84
CC
78
ENDCHAR
STARTCHAR 01D3
ENCODING 467
SWIDTH 648 0
DWIDTH 9 0
BBX 7 13 1 0
BITMAP
20
18
00
82
82
82
82
82
82
82
C2
46
7C
ENDCHAR
STARTCHAR 01D4
ENCODING 468
SWIDTH 504 0
DWIDTH 7 0
BBX 6 11 1 0
BITMAP
40
30
00
00
84
84
84
84
84
C4
7C
ENDCHAR
STARTCHAR 01D5
ENCODING 469
SWIDTH 648 0
DWIDTH 9 0
BBX 7 13 1 0
BITMAP
3C
24
24
82
82
82
82
82
82
82
C2
46
7C
ENDCHAR
STARTCHAR 01D6
ENCODING 470
SWIDTH 504 0
DWIDTH 7 0
BBX 6 11 1 0
BITMAP
78
48
48
00
84
84
84
84
84
C4
7C
ENDCHAR
STARTCHAR 01D7
ENCODING 471
SWIDTH 648 0
DWIDTH 9 0
BBX 7 13 1 0
BITMAP
08
74
44
82
82
82
82
82
82
82
C2
46
7C
ENDCHAR
STARTCHAR 01D8
ENCODING 472
SWIDTH 504 0
DWIDTH 7 0
BBX 6 12 1 0
BITMAP
10
10
48
48
00
84
84
84
84
84
C4
7C
ENDCHAR
STARTCHAR 01D9
ENCODING 473
SWIDTH 648 0
DWIDTH 9 0
BBX 7 13 1 0
BITMAP
38
64
44
82
82
82
82
82
82
82
C2
46
7C
ENDCHAR
STARTCHAR 01DA
ENCODING 474
SWIDTH 504 0
DWIDTH 7 0
BBX 6 11 1 1
BITMAP
30
48
48
00
84
84
84
84
84
C4
7C
ENDCHAR
STARTCHAR 01DB
ENCODING 475
SWIDTH 648 0
DWIDTH 9 0
BBX 7 13 1 0
BITMAP
30
74
44
82
82
82
82
82
82
82
C2
46
7C
ENDCHAR
STARTCHAR 01DC
ENCODING 476
SWIDTH 504 0
DWIDTH 7 0
BBX 6 11 1 1
BITMAP
20
48
48
00
84
84
84
84
84
C4
7C
ENDCHAR
STARTCHAR 01DD
ENCODING 477
SWIDTH 504 0
DWIDTH 7 0
BBX 6 7 1 0
BITMAP
F8
0C
04
FC
84
8C
78
ENDCHAR
STARTCHAR 01DE
ENCODING 478
SWIDTH 648 0
DWIDTH 9 0
BBX 9 13 0 0
BITMAP
1C00
1600
1000
0800
1C00
1400
1600
2200
2200
7F00
7F00
4180
C180
ENDCHAR
STARTCHAR 01DF
ENCODING 479
SWIDTH 504 0
DWIDTH 7 0
BBX 5 11 1 0
BITMAP
70
48
58
00
F8
08
08
F8
88
88
F8
ENDCHAR
STARTCHAR 01E0
ENCODING 480
SWIDTH 648 0
DWIDTH 9 0
BBX 9 13 0 0
BITMAP
1C00
0800
0800
0800
1C00
1400
1600
2200
2200
7F00
7F00
4180
C180
ENDCHAR
STARTCHAR 01E1
ENCODING 481
SWIDTH 504 0
DWIDTH 7 0
BBX 5 11 1 0
BITMAP
70
20
20
00
F8
08
08
F8
88
88
F8
ENDCHAR
STARTCHAR 01E2
ENCODING 482
SWIDTH 864 0
DWIDTH 12 0
BBX 12 12 0 0
BITMAP
03C0
0000
03F0
07F0
0D00
0900
19F0
11F0
3F00
7F00
4100
C1F0
ENDCHAR
STARTCHAR 01E3
ENCODING 483
SWIDTH 792 0
DWIDTH 11 0
BBX 10 10 1 0
BITMAP
1E00
0000
0000
FF80
0C40
0840
FFC0
8800
8C00
FFC0
ENDCHAR
STARTCHAR 01E4
ENCODING 484
SWIDTH 648 0
DWIDTH 9 0
BBX 9 10 1 0
BITMAP
1E00
6200
C000
8000
8000
8200
8780
C200
6200
3E00
ENDCHAR
STARTCHAR 01E5
ENCODING 485
SWIDTH 576 0
DWIDTH 8 0
BBX 7 10 1 -3
BITMAP
7C
C4
84
9E
84
CC
34
0C
F8
60
ENDCHAR
STARTCHAR 01E6
ENCODING 486
SWIDTH 648 0
DWIDTH 9 0
BBX 7 13 1 0
BITMAP
04
18
00
1E
62
C0
80
80
82
82
C2
62
3E
ENDCHAR
STARTCHAR 01E7
ENCODING 487
SWIDTH 576 0
DWIDTH 8 0
BBX 6 14 1 -3
BITMAP
48
30
00
00
7C
C4
84
84
84
CC
34
0C
F8
70
ENDCHAR
STARTCHAR 01E8
ENCODING 488
SWIDTH 576 0
DWIDTH 8 0
BBX 7 13 1 0
BITMAP
28
38
10
C2
C4
C8
D0
E0
F0
D8
CC
C6
C2
ENDCHAR
STARTCHAR 01E9
ENCODING 489
SWIDTH 504 0
DWIDTH 7 0
BBX 6 13 1 0
BITMAP
E0
40
80
80
80
80
88
90
A0
E0
90
98
8C
ENDCHAR
STARTCHAR 01EA
ENCODING 490
SWIDTH 720 0
DWIDTH 10 0
BBX 9 13 1 -3
BITMAP
1C00
6700
C100
8180
8080
8080
8180
C180
6300
3E00
0800
0800
0400
ENDCHAR
STARTCHAR 01EB
ENCODING 491
SWIDTH 576 0
DWIDTH 8 0
BBX 6 10 1 -3
BITMAP
78
C4
84
84
84
CC
78
10
20
10
ENDCHAR
STARTCHAR 01EC
ENCODING 492
SWIDTH 720 0
DWIDTH 10 0
BBX 9 15 1 -3
BITMAP
3C00
0000
1C00
6700
C100
8180
8080
8080
8180
C180
6300
3E00
0800
0800
0400
ENDCHAR
STARTCHAR 01ED
ENCODING 493
SWIDTH 576 0
DWIDTH 8 0
BBX 6 13 1 -3
BITMAP
78
00
00
78
C4
84
84
84
CC
78
10
20
10
ENDCHAR
STARTCHAR 01EE
ENCODING 494
SWIDTH 504 0
DWIDTH 7 0
BBX 7 13 0 0
BITMAP
24
18
00
7E
7E
0C
08
10
0E
02
02
06
FC
ENDCHAR
STARTCHAR 01EF
ENCODING 495
SWIDTH 432 0
DWIDTH 6 0
BBX 6 14 0 -3
BITMAP
40
30
20
00
FC
08
10
20
38
0C
04
0C
F8
60
ENDCHAR
STARTCHAR 01F0
ENCODING 496
SWIDTH 216 0
DWIDTH 3 0
BBX 4 14 -1 -3
BITMAP
40
30
20
00
20
20
20
20
20
20
20
20
E0
C0
ENDCHAR
STARTCHAR 01F1
ENCODING 497
SWIDTH 1224 0
DWIDTH 17 0
BBX 16 10 1 0
BITMAP
F83F
CE3F
C202
C306
C10C
C108
C110
C330
C620
FC7F
ENDCHAR
STARTCHAR 01F2
ENCODING 498
SWIDTH 1152 0
DWIDTH 16 0
BBX 15 10 1 0
BITMAP
F800
CE00
C200
C33E
C104
C108
C118
C330
C620
FC7E
ENDCHAR
STARTCHAR 01F3
ENCODING 499
SWIDTH 1008 0
DWIDTH 14 0
BBX 13 11 1 0
BITMAP
0400
0400
0400
0400
7CF8
C410
8430
8460
8440
C4C0
7CF8
ENDCHAR
STARTCHAR 01F4
ENCODING 500
SWIDTH 648 0
DWIDTH 9 0
BBX 7 13 1 0
BITMAP
04
08
00
1E
62
C0
80
80
82
82
C2
62
3E
ENDCHAR
STARTCHAR 01F5
ENCODING 501
SWIDTH 576 0
DWIDTH 8 0
BBX 6 13 1 -2
BITMAP
10
20
00
7C
C4
84
84
84
CC
34
0C
F8
70
ENDCHAR
STARTCHAR 01F6
ENCODING 502
SWIDTH 1008 0
DWIDTH 14 0
BBX 13 10 1 0
BITMAP
C300
C300
C300
C318
FF18
FF18
C318
C318
C110
C1F0
ENDCHAR
STARTCHAR 01F7
ENCODING 503
SWIDTH 576 0
DWIDTH 8 0
BBX 7 13 1 -3
BITMAP
78
EE
C2
C2
C2
C2
C6
CC
F8
E0
C0
C0
C0
ENDCHAR
STARTCHAR 01F8
ENCODING 504
SWIDTH 720 0
DWIDTH 10 0
BBX 8 13 1 0
BITMAP
10
10
08
81
C1
E1
F1
D9
C9
C5
C7
C3
C3
ENDCHAR
STARTCHAR 01F9
ENCODING 505
SWIDTH 504 0
DWIDTH 7 0
BBX 6 10 1 1
BITMAP
20
10
00
F8
8C
84
84
84
84
84
ENDCHAR
STARTCHAR 01FA
ENCODING 506
SWIDTH 648 0
DWIDTH 9 0
BBX 9 13 0 0
BITMAP
0C00
0000
1C00
1400
1C00
1400
1600
2200
2200
7F00
7F00
4180
C180
ENDCHAR
STARTCHAR 01FB
ENCODING 507
SWIDTH 504 0
DWIDTH 7 0
BBX 5 13 1 0
BITMAP
10
70
20
50
30
00
F8
08
08
F8
88
88
F8
ENDCHAR
STARTCHAR 01FC
ENCODING 508
SWIDTH 864 0
DWIDTH 12 0
BBX 12 13 0 0
BITMAP
0080
0080
0100
03F0
07F0
0D00
0900
19F0
11F0
3F00
7F00
4100
C1F0
ENDCHAR
STARTCHAR 01FD
ENCODING 509
SWIDTH 792 0
DWIDTH 11 0
BBX 10 10 1 1
BITMAP
0400
0800
0000
FF80
0C40
0840
FFC0
8800
8C00
FFC0
ENDCHAR
STARTCHAR 01FE
ENCODING 510
SWIDTH 720 0
DWIDTH 10 0
BBX 9 13 1 -1
BITMAP
0400
0800
0000
1D80
6700
C300
8580
8C80
8880
9180
E180
6300
FE00
ENDCHAR
STARTCHAR 01FF
ENCODING 511
SWIDTH 576 0
DWIDTH 8 0
BBX 6 10 1 0
BITMAP
10
20
00
7C
CC
94
B4
A4
CC
F8
ENDCHAR
STARTCHAR 0200
ENCODING 512
SWIDTH 648 0
DWIDTH 9 0
BBX 9 13 0 0
BITMAP
2800
3400
1000
0800
1C00
1400
1600
2200
2200
7F00
7F00
4180
C180
ENDCHAR
STARTCHAR 0201
ENCODING 513
SWIDTH 504 0
DWIDTH 7 0
BBX 5 11 1 0
BITMAP
80
B0
50
00
F8
08
08
F8
88
88
F8
ENDCHAR
STARTCHAR 0202
ENCODING 514
SWIDTH 648 0
DWIDTH 9 0
BBX 9 13 0 0
BITMAP
0800
1400
0000
0800
1C00
1400
1600
2200
2200
7F00
7F00
4180
C180
ENDCHAR
STARTCHAR 0203
ENCODING 515
SWIDTH 504 0
DWIDTH 7 0
BBX 5 10 1 0
BITMAP
70
40
00
F8
08
08
F8
88
88
F8
ENDCHAR
STARTCHAR 0204
ENCODING 516
SWIDTH 504 0
DWIDTH 7 0
BBX 6 13 1 0
BITMAP
50
58
28
FC
FC
C0
C0
FC
FC
C0
C0
C0
FC
ENDCHAR
STARTCHAR 0205
ENCODING 517
SWIDTH 504 0
DWIDTH 7 0
BBX 6 10 1 1
BITMAP
50
48
00
78
8C
84
FC
80
C0
78
ENDCHAR
STARTCHAR 0206
ENCODING 518
SWIDTH 504 0
DWIDTH 7 0
BBX 6 13 1 0
BITMAP
10
68
00
FC
FC
C0
C0
FC
FC
C0
C0
C0
FC
ENDCHAR
STARTCHAR 0207
ENCODING 519
SWIDTH 504 0
DWIDTH 7 0
BBX 6 10 1 0
BITMAP
78
48
00
78
8C
84
FC
80
C0
78
ENDCHAR
STARTCHAR 0208
ENCODING 520
SWIDTH 216 0
DWIDTH 3 0
BBX 4 13 -1 0
BITMAP
80
50
40
30
30
30
30
30
30
30
30
30
30
ENDCHAR
STARTCHAR 0209
ENCODING 521
SWIDTH 216 0
DWIDTH 3 0
BBX 4 11 -1 0
BITMAP
80
D0
50
00
20
20
20
20
20
20
20
ENDCHAR
STARTCHAR 020A
ENCODING 522
SWIDTH 216 0
DWIDTH 3 0
BBX 4 13 0 0
BITMAP
40
B0
00
60
60
60
60
60
60
60
60
60
60
ENDCHAR
STARTCHAR 020B
ENCODING 523
SWIDTH 216 0
DWIDTH 3 0
BBX 4 10 0 0
BITMAP
E0
90
00
40
40
40
40
40
40
40
ENDCHAR
STARTCHAR 020C
ENCODING 524
SWIDTH 720 0
DWIDTH 10 0
BBX 9 13 1 0
BITMAP
2800
2C00
1400
1C00
6700
C100
8180
8080
8080
8180
C180
6300
3E00
ENDCHAR
STARTCHAR 020D
ENCODING 525
SWIDTH 576 0
DWIDTH 8 0
BBX 6 10 1 1
BITMAP
50
08
00
78
C4
84
84
84
CC
78
ENDCHAR
STARTCHAR 020E
ENCODING 526
SWIDTH 720 0
DWIDTH 10 0
BBX 9 13 1 0
BITMAP
0800
1400
0000
1C00
6700
C100
8180
8080
8080
8180
C180
6300
3E00
ENDCHAR
STARTCHAR 020F
ENCODING 527
SWIDTH 576 0
DWIDTH 8 0
BBX 6 10 1 0
BITMAP
78
48
00
78
C4
84
84
84
CC
78
ENDCHAR
STARTCHAR 0210
ENCODING 528
SWIDTH 576 0
DWIDTH 8 0
BBX 7 13 1 0
BITMAP
90
50
08
F8
CC
C6
C6
C6
FC
C8
CC
C6
C2
ENDCHAR
STARTCHAR 0211
ENCODING 529
SWIDTH 360 0
DWIDTH 5 0
BBX 4 11 1 0
BITMAP
20
A0
50
00
F0
80
80
80
80
80
80
ENDCHAR
STARTCHAR 0212
ENCODING 530
SWIDTH 576 0
DWIDTH 8 0
BBX 7 13 1 0
BITMAP
10
68
00
F8
CC
C6
C6
C6
FC
C8
CC
C6
C2
ENDCHAR
STARTCHAR 0213
ENCODING 531
SWIDTH 360 0
DWIDTH 5 0
BBX 4 10 1 0
BITMAP
70
90
00
F0
80
80
80
80
80
80
ENDCHAR
STARTCHAR 0214
ENCODING 532
SWIDTH 648 0
DWIDTH 9 0
BBX 7 13 1 0
BITMAP
50
68
20
82
82
82
82
82
82
82
C2
46
7C
ENDCHAR
STARTCHAR 0215
ENCODING 533
SWIDTH 504 0
DWIDTH 7 0
BBX 6 10 1 1
BITMAP
D0
48
00
84
84
84
84
84
C4
7C
ENDCHAR
STARTCHAR 0216
ENCODING 534
SWIDTH 648 0
DWIDTH 9 0
BBX 7 13 1 0
BITMAP
10
28
00
82
82
82
82
82
82
82
C2
46
7C
ENDCHAR
STARTCHAR 0217
ENCODING 535
SWIDTH 504 0
DWIDTH 7 0
BBX 6 10 1 0
BITMAP
78
48
00
84
84
84
84
84
C4
7C
ENDCHAR
STARTCHAR 0218
ENCODING 536
SWIDTH 504 0
DWIDTH 7 0
BBX 7 13 0 -3
BITMAP
3C
64
40
40
70
1C
06
02
06
FC
00
10
20
ENDCHAR
STARTCHAR 0219
ENCODING 537
SWIDTH 432 0
DWIDTH 6 0
BBX 5 10 1 -3
BITMAP
F0
80
C0
70
18
18
F0
00
60
C0
ENDCHAR
STARTCHAR 021A
ENCODING 538
SWIDTH 504 0
DWIDTH 7 0
BBX 8 13 0 -3
BITMAP
FF
FF
18
18
18
18
18
18
18
18
00
18
30
ENDCHAR
STARTCHAR 021B
ENCODING 539
SWIDTH 360 0
DWIDTH 5 0
BBX 4 12 1 -3
BITMAP
80
80
F0
80
80
80
80
C0
70
00
20
40
ENDCHAR
STARTCHAR 021C
ENCODING 540
SWIDTH 504 0
DWIDTH 7 0
BBX 7 13 0 -3
BITMAP
78
0C
04
04
0C
38
1C
04
06
06
04
F8
C0
ENDCHAR
STARTCHAR 021D
ENCODING 541
SWIDTH 432 0
DWIDTH 6 0
BBX 5 10 0 -3
BITMAP
F8
08
08
18
78
08
08
08
F0
80
ENDCHAR
STARTCHAR 021E
ENCODING 542
SWIDTH 648 0
DWIDTH 9 0
BBX 8 13 1 0
BITMAP
24
18
00
C3
C3
C3
C3
FF
FF
C3
C3
C3
C3
ENDCHAR
STARTCHAR 021F
ENCODING 543
SWIDTH 504 0
DWIDTH 7 0
BBX 6 13 1 0
BITMAP
E0
40
80
80
80
80
F8
8C
84
84
84
84
84
ENDCHAR
STARTCHAR 0220
ENCODING 544
SWIDTH 648 0
DWIDTH 9 0
BBX 7 13 1 -3
BITMAP
78
C6
C2
C2
C2
C2
C2
C2
C2
C2
02
02
02
ENDCHAR
STARTCHAR 0221
ENCODING 545
SWIDTH 720 0
DWIDTH 10 0
BBX 9 14 1 -3
BITMAP
0400
0400
0400
0400
7C00
C400
8400
8400
8400
C400
7F80
0480
0E80
0300
ENDCHAR
STARTCHAR 0222
ENCODING 546
SWIDTH 648 0
DWIDTH 9 0
BBX 8 10 1 0
BITMAP
46
C2
C2
C6
7C
C6
83
83
C2
7C
ENDCHAR
STARTCHAR 0223
ENCODING 547
SWIDTH 576 0
DWIDTH 8 0
BBX 6 11 1 0
BITMAP
C4
C4
84
CC
78
EC
84
84
84
C4
78
ENDCHAR
STARTCHAR 0224
ENCODING 548
SWIDTH 504 0
DWIDTH 7 0
BBX 7 13 0 -3
BITMAP
7E
7E
04
0C
18
10
30
60
40
FE
02
02
04
ENDCHAR
STARTCHAR 0225
ENCODING 549
SWIDTH 432 0
DWIDTH 6 0
BBX 6 10 0 -3
BITMAP
7C
08
10
30
20
40
FC
04
0C
18
ENDCHAR
STARTCHAR 0226
ENCODING 550
SWIDTH 648 0
DWIDTH 9 0
BBX 9 12 0 0
BITMAP
0800
0000
0800
1C00
1400
1600
2200
2200
7F00
7F00
4180
C180
ENDCHAR
STARTCHAR 0227
ENCODING 551
SWIDTH 504 0
DWIDTH 7 0
BBX 5 10 1 0
BITMAP
20
00
00
F8
08
08
F8
88
88
F8
ENDCHAR
STARTCHAR 0228
ENCODING 552
SWIDTH 504 0
DWIDTH 7 0
BBX 6 13 1 -3
BITMAP
FC
FC
C0
C0
FC
FC
C0
C0
C0
FC
10
10
30
ENDCHAR
STARTCHAR 0229
ENCODING 553
SWIDTH 504 0
DWIDTH 7 0
BBX 6 10 1 -3
BITMAP
78
CC
84
FC
80
C0
78
20
10
20
ENDCHAR
STARTCHAR 022A
ENCODING 554
SWIDTH 720 0
DWIDTH 10 0
BBX 9 13 1 0
BITMAP
1C00
3400
0400
1C00
6700
C100
8180
8080
8080
8180
C180
6300
3E00
ENDCHAR
STARTCHAR 022B
ENCODING 555
SWIDTH 576 0
DWIDTH 8 0
BBX 6 11 1 0
BITMAP
78
48
48
00
78
C4
84
84
84
CC
78
ENDCHAR
STARTCHAR 022C
ENCODING 556
SWIDTH 720 0
DWIDTH 10 0
BBX 9 13 1 0
BITMAP
1C00
1A00
0400
1C00
6700
C100
8180
8080
8080
8180
C180
6300
3E00
ENDCHAR
STARTCHAR 022D
ENCODING 557
SWIDTH 576 0
DWIDTH 8 0
BBX 6 11 1 0
BITMAP
78
20
58
00
78
C4
84
84
84
CC
78
ENDCHAR
STARTCHAR 022E
ENCODING 558
SWIDTH 720 0
DWIDTH 10 0
BBX 9 13 1 0
BITMAP
0800
0800
0000
1C00
6700
C100
8180
8080
8080
8180
C180
6300
3E00
ENDCHAR
STARTCHAR 022F
ENCODING 559
SWIDTH 576 0
DWIDTH 8 0
BBX 6 10 1 0
BITMAP
30
00
00
78
C4
84
84
84
CC
78
ENDCHAR
STARTCHAR 0230
ENCODING 560
SWIDTH 720 0
DWIDTH 10 0
BBX 9 13 1 0
BITMAP
1C00
0800
0800
1C00
6700
C100
8180
8080
8080
8180
C180
6300
3E00
ENDCHAR
STARTCHAR 0231
ENCODING 561
SWIDTH 576 0
DWIDTH 8 0
BBX 6 11 1 0
BITMAP
78
10
30
00
78
C4
84
84
84
CC
78
ENDCHAR
STARTCHAR 0232
ENCODING 562
SWIDTH 576 0
DWIDTH 8 0
BBX 8 12 0 0
BITMAP
3C
00
C1
43
62
24
3C
18
18
18
18
18
ENDCHAR
STARTCHAR 0233
ENCODING 563
SWIDTH 432 0
DWIDTH 6 0
BBX 6 13 0 -3
BITMAP
3C
00
00
C4
44
44
6C
28
38
18
10
A0
C0
ENDCHAR
STARTCHAR 0234
ENCODING 564
SWIDTH 360 0
DWIDTH 5 0
BBX 6 14 0 -3
BITMAP
60
60
60
60
60
60
60
60
60
60
78
64
EC
90
ENDCHAR
STARTCHAR 0235
ENCODING 565
SWIDTH 648 0
DWIDTH 9 0
BBX 9 10 1 -3
BITMAP
F800
8C00
8400
8400
8400
8400
8780
0C80
0F80
0300
ENDCHAR
STARTCHAR 0236
ENCODING 566
SWIDTH 360 0
DWIDTH 5 0
BBX 6 12 0 -3
BITMAP
60
60
78
60
60
60
60
60
78
64
EC
90
ENDCHAR
STARTCHAR 0237
ENCODING 567
SWIDTH 216 0
DWIDTH 3 0
BBX 3 10 -1 -3
BITMAP
20
20
20
20
20
20
20
20
E0
C0
ENDCHAR
STARTCHAR 0238
ENCODING 568
SWIDTH 864 0
DWIDTH 12 0
BBX 11 11 1 0
BITMAP
0400
0400
0400
0400
7FC0
C460
8420
8420
8420
C460
7FC0
ENDCHAR
STARTCHAR 0239
ENCODING 569
SWIDTH 864 0
DWIDTH 12 0
BBX 11 10 1 -3
BITMAP
7FC0
C460
8420
8420
8420
C460
7FC0
0400
0400
0400
ENDCHAR
STARTCHAR 023A
ENCODING 570
SWIDTH 648 0
DWIDTH 9 0
BBX 9 12 0 -1
BITMAP
0100
0A00
1E00
1600
1600
2600
2E00
7F00
7F00
5180
D080
1000
ENDCHAR
STARTCHAR 023B
ENCODING 571
SWIDTH 576 0
DWIDTH 8 0
BBX 7 12 1 -1
BITMAP
02
1E
66
C4
88
88
98
90
D0
60
3E
40
ENDCHAR
STARTCHAR 023C
ENCODING 572
SWIDTH 432 0
DWIDTH 6 0
BBX 5 9 1 0
BITMAP
08
78
D0
90
A0
A0
E0
78
40
ENDCHAR
STARTCHAR 023D
ENCODING 573
SWIDTH 504 0
DWIDTH 7 0
BBX 7 10 0 0
BITMAP
60
60
60
60
F8
F8
60
60
60
7E
ENDCHAR
STARTCHAR 023E
ENCODING 574
SWIDTH 576 0
DWIDTH 8 0
BBX 8 10 0 0
BITMAP
FF
FF
1A
1C
1C
18
18
38
78
58
ENDCHAR
STARTCHAR 023F
ENCODING 575
SWIDTH 432 0
DWIDTH 6 0
BBX 5 10 1 -3
BITMAP
F0
80
C0
70
18
18
F0
C0
70
10
ENDCHAR
STARTCHAR 0240
ENCODING 576
SWIDTH 432 0
DWIDTH 6 0
BBX 5 10 1 -3
BITMAP
F8
10
20
60
40
80
C0
60
18
08
ENDCHAR
STARTCHAR 0241
ENCODING 577
SWIDTH 432 0
DWIDTH 6 0
BBX 6 10 0 0
BITMAP
78
CC
04
04
18
30
20
20
20
20
ENDCHAR
STARTCHAR 0242
ENCODING 578
SWIDTH 360 0
DWIDTH 5 0
BBX 5 7 0 0
BITMAP
F8
08
08
30
20
20
20
ENDCHAR
STARTCHAR 0243
ENCODING 579
SWIDTH 648 0
DWIDTH 9 0
BBX 8 10 0 0
BITMAP
7C
67
61
63
7E
67
61
F1
63
7E
ENDCHAR
STARTCHAR 0244
ENCODING 580
SWIDTH 648 0
DWIDTH 9 0
BBX 10 10 0 0
BITMAP
6180
6180
6180
6180
FFC0
6180
6180
6180
2300
1E00
ENDCHAR
STARTCHAR 0245
ENCODING 581
SWIDTH 648 0
DWIDTH 9 0
BBX 9 10 0 0
BITMAP
0800
1C00
1400
1600
2200
2200
6300
4100
4100
C180
ENDCHAR
STARTCHAR 0246
ENCODING 582
SWIDTH 576 0
DWIDTH 8 0
BBX 7 12 1 -1
BITMAP
FE
C4
C4
C8
FC
D0
D0
F0
E0
FE
40
40
ENDCHAR
STARTCHAR 0247
ENCODING 583
SWIDTH 504 0
DWIDTH 7 0
BBX 6 9 1 0
BITMAP
08
78
94
94
FC
A0
E0
7C
40
ENDCHAR
STARTCHAR 0248
ENCODING 584
SWIDTH 504 0
DWIDTH 7 0
BBX 7 10 0 0
BITMAP
0C
0C
0C
0C
3E
3E
0C
0C
0C
F8
ENDCHAR
STARTCHAR 0249
ENCODING 585
SWIDTH 288 0
DWIDTH 4 0
BBX 4 13 0 -3
BITMAP
60
00
00
60
60
60
F0
60
60
60
60
C0
80
ENDCHAR
STARTCHAR 024A
ENCODING 586
SWIDTH 720 0
DWIDTH 10 0
BBX 10 13 1 -3
BITMAP
1C00
6700
C100
8180
8080
8080
8180
C180
6380
3E80
0080
0080
0040
ENDCHAR
STARTCHAR 024B
ENCODING 587
SWIDTH 576 0
DWIDTH 8 0
BBX 8 10 1 -3
BITMAP
7C
C4
84
84
84
C4
7C
04
07
03
ENDCHAR
STARTCHAR 024C
ENCODING 588
SWIDTH 576 0
DWIDTH 8 0
BBX 8 10 0 0
BITMAP
7C
67
61
61
63
FE
64
62
63
61
ENDCHAR
STARTCHAR 024D
ENCODING 589
SWIDTH 360 0
DWIDTH 5 0
BBX 5 7 0 0
BITMAP
78
60
60
F8
60
60
60
ENDCHAR
STARTCHAR 024E
ENCODING 590
SWIDTH 576 0
DWIDTH 8 0
BBX 8 10 0 0
BITMAP
C1
43
FF
26
14
18
08
08
08
08
ENDCHAR
STARTCHAR 024F
ENCODING 591
SWIDTH 504 0
DWIDTH 7 0
BBX 7 10 0 -3
BITMAP
46
44
64
FE
28
38
18
10
F0
40
ENDCHAR
STARTCHAR 0292
ENCODING 658
SWIDTH 432 0
DWIDTH 6 0
BBX 6 10 0 -3
BITMAP
FC
08
10
20
38
0C
04
0C
F8
60
ENDCHAR
STARTCHAR 02BC
ENCODING 700
SWIDTH 360 0
DWIDTH 5 0
BBX 1 3 2 8
BITMAP
80
80
80
ENDCHAR
STARTCHAR 02C6
ENCODING 710
SWIDTH 360 0
DWIDTH 5 0
BBX 3 3 1 8
BITMAP
40
E0
A0
ENDCHAR
STARTCHAR 02C7
ENCODING 711
SWIDTH 360 0
DWIDTH 5 0
BBX 3 3 1 8
BITMAP
80
E0
40
ENDCHAR
STARTCHAR 02C9
ENCODING 713
SWIDTH 360 0
DWIDTH 5 0
BBX 4 1 1 9
BITMAP
F0
ENDCHAR
STARTCHAR 02D8
ENCODING 728
SWIDTH 360 0
DWIDTH 5 0
BBX 3 2 1 8
BITMAP
A0
40
ENDCHAR
STARTCHAR 02D9
ENCODING 729
SWIDTH 360 0
DWIDTH 5 0
BBX 1 1 2 9
BITMAP
80
ENDCHAR
STARTCHAR 02DA
ENCODING 730
SWIDTH 360 0
DWIDTH 5 0
BBX 3 3 1 8
BITMAP
60
A0
60
ENDCHAR
STARTCHAR 02DB
ENCODING 731
SWIDTH 360 0
DWIDTH 5 0
BBX 2 3 1 -3
BITMAP
C0
80
40
ENDCHAR
STARTCHAR 02DC
ENCODING 732
SWIDTH 360 0
DWIDTH 5 0
BBX 4 1 1 9
BITMAP
F0
ENDCHAR
STARTCHAR 02DD
ENCODING 733
SWIDTH 360 0
DWIDTH 5 0
BBX 4 3 1 8
BITMAP
10
B0
A0
ENDCHAR
STARTCHAR 0311
ENCODING 785
SWIDTH 360 0
DWIDTH 5 0
BBX 3 2 1 8
BITMAP
E0
80
ENDCHAR
STARTCHAR 0384
ENCODING 900
SWIDTH 360 0
DWIDTH 5 0
BBX 2 3 2 8
BITMAP
40
40
80
ENDCHAR
STARTCHAR 0385
ENCODING 901
SWIDTH 360 0
DWIDTH 5 0
BBX 5 2 0 9
BITMAP
A8
20
ENDCHAR
STARTCHAR 0386
ENCODING 902
SWIDTH 648 0
DWIDTH 9 0
BBX 9 10 0 0
BITMAP
6800
5C00
5400
1600
2200
2200
7F00
7F00
4180
C180
ENDCHAR
STARTCHAR 0388
ENCODING 904
SWIDTH 576 0
DWIDTH 8 0
BBX 8 10 0 0
BITMAP
BF
BF
A0
20
3E
3E
20
20
20
3F
ENDCHAR
STARTCHAR 0389
ENCODING 905
SWIDTH 720 0
DWIDTH 10 0
BBX 10 10 0 0
BITMAP
A0C0
A0C0
A0C0
20C0
3FC0
3FC0
20C0
20C0
20C0
20C0
ENDCHAR
STARTCHAR 038A
ENCODING 906
SWIDTH 288 0
DWIDTH 4 0
BBX 3 10 0 0
BITMAP
A0
A0
A0
20
20
20
20
20
20
20
ENDCHAR
STARTCHAR 038C
ENCODING 908
SWIDTH 792 0
DWIDTH 11 0
BBX 10 10 0 0
BITMAP
8F00
B980
A0C0
6040
6040
6040
6040
20C0
3080
1F00
ENDCHAR
STARTCHAR 038E
ENCODING 910
SWIDTH 720 0
DWIDTH 10 0
BBX 10 10 0 0
BITMAP
A0C0
B080
9180
0900
0F00
0600
0600
0600
0600
0600
ENDCHAR
STARTCHAR 038F
ENCODING 911
SWIDTH 792 0
DWIDTH 11 0
BBX 10 10 0 0
BITMAP
8F00
B980
A0C0
6040
6040
6040
2040
20C0
1180
79C0
ENDCHAR
STARTCHAR 0390
ENCODING 912
SWIDTH 216 0
DWIDTH 3 0
BBX 6 10 -1 1
BITMAP
EC
20
00
20
20
20
20
20
20
30
ENDCHAR
STARTCHAR 0391
ENCODING 913
SWIDTH 648 0
DWIDTH 9 0
BBX 9 10 0 0
BITMAP
0800
1C00
1400
1600
2200
2200
7F00
7F00
4180
C180
ENDCHAR
STARTCHAR 0392
ENCODING 914
SWIDTH 576 0
DWIDTH 8 0
BBX 7 10 1 0
BITMAP
F8
CC
C6
C6
FC
FE
C2
C2
C6
FC
ENDCHAR
STARTCHAR 0393
ENCODING 915
SWIDTH 504 0
DWIDTH 7 0
BBX 6 10 1 0
BITMAP
FC
FC
C0
C0
C0
C0
C0
C0
C0
C0
ENDCHAR
STARTCHAR 0394
ENCODING 916
SWIDTH 648 0
DWIDTH 9 0
BBX 9 10 0 0
BITMAP
0800
1C00
1400
3600
2200
2200
6300
4100
4100
FF80
ENDCHAR
STARTCHAR 0395
ENCODING 917
SWIDTH 504 0
DWIDTH 7 0
BBX 6 10 1 0
BITMAP
FC
FC
C0
C0
FC
FC
C0
C0
C0
FC
ENDCHAR
STARTCHAR 0396
ENCODING 918
SWIDTH 504 0
DWIDTH 7 0
BBX 7 10 0 0
BITMAP
7E
7E
04
0C
18
10
20
60
40
FE
ENDCHAR
STARTCHAR 0397
ENCODING 919
SWIDTH 648 0
DWIDTH 9 0
BBX 8 10 1 0
BITMAP
C3
C3
C3
C3
FF
FF
C3
C3
C3
C3
ENDCHAR
STARTCHAR 0398
ENCODING 920
SWIDTH 720 0
DWIDTH 10 0
BBX 9 10 1 0
BITMAP
1C00
6700
C100
8180
8080
BC80
8180
C180
6300
3E00
ENDCHAR
STARTCHAR 0399
ENCODING 921
SWIDTH 216 0
DWIDTH 3 0
BBX 2 10 1 0
BITMAP
C0
C0
C0
C0
C0
C0
C0
C0
C0
C0
ENDCHAR
STARTCHAR 039A
ENCODING 922
SWIDTH 576 0
DWIDTH 8 0
BBX 7 10 1 0
BITMAP
C2
C4
C8
D0
E0
F0
D8
CC
C6
C2
ENDCHAR
STARTCHAR 039B
ENCODING 923
SWIDTH 648 0
DWIDTH 9 0
BBX 9 10 0 0
BITMAP
0800
1C00
1400
1600
2200
2200
6300
4100
4100
C180
ENDCHAR
STARTCHAR 039C
ENCODING 924
SWIDTH 864 0
DWIDTH 12 0
BBX 10 10 1 0
BITMAP
4080
40C0
E1C0
E140
D240
9240
8E40
8C40
8C40
8040
ENDCHAR
STARTCHAR 039D
ENCODING 925
SWIDTH 720 0
DWIDTH 10 0
BBX 8 10 1 0
BITMAP
81
C1
E1
F1
D9
C9
C5
C7
C3
C3
ENDCHAR
STARTCHAR 039E
ENCODING 926
SWIDTH 504 0
DWIDTH 7 0
BBX 6 10 1 0
BITMAP
FC
FC
00
00
F8
F8
00
00
00
FC
ENDCHAR
STARTCHAR 039F
ENCODING 927
SWIDTH 720 0
DWIDTH 10 0
BBX 9 10 1 0
BITMAP
1C00
6700
C100
8180
8080
8080
8180
C180
6300
3E00
ENDCHAR
STARTCHAR 03A0
ENCODING 928
SWIDTH 648 0
DWIDTH 9 0
BBX 8 10 1 0
BITMAP
FF
FF
C3
C3
C3
C3
C3
C3
C3
C3
ENDCHAR
STARTCHAR 03A1
ENCODING 929
SWIDTH 576 0
DWIDTH 8 0
BBX 7 10 1 0
BITMAP
F8
CC
C6
C2
C6
FC
C0
C0
C0
C0
ENDCHAR
STARTCHAR 03A3
ENCODING 931
SWIDTH 504 0
DWIDTH 7 0
BBX 7 10 0 0
BITMAP
7E
7E
20
30
18
18
30
20
40
FE
ENDCHAR
STARTCHAR 03A4
ENCODING 932
SWIDTH 504 0
DWIDTH 7 0
BBX 8 10 0 0
BITMAP
FF
FF
18
18
18
18
18
18
18
18
ENDCHAR
STARTCHAR 03A5
ENCODING 933
SWIDTH 576 0
DWIDTH 8 0
BBX 8 10 0 0
BITMAP
C1
43
62
24
3C
18
18
18
18
18
ENDCHAR
STARTCHAR 03A6
ENCODING 934
SWIDTH 864 0
DWIDTH 12 0
BBX 10 10 1 0
BITMAP
0C00
3F00
4C80
8C40
8C40
8C40
CCC0
6D80
3F00
0C00
ENDCHAR
STARTCHAR 03A7
ENCODING 935
SWIDTH 576 0
DWIDTH 8 0
BBX 7 10 1 0
BITMAP
82
C6
4C
28
30
38
68
4C
C6
82
ENDCHAR
STARTCHAR 03A8
ENCODING 936
SWIDTH 792 0
DWIDTH 11 0
BBX 9 10 1 0
BITMAP
8880
8880
8880
8880
8880
C880
7F00
1C00
0800
0800
ENDCHAR
STARTCHAR 03A9
ENCODING 937
SWIDTH 720 0
DWIDTH 10 0
BBX 9 10 1 0
BITMAP
1C00
6300
C100
C180
8080
8180
C180
4100
6300
E780
ENDCHAR
STARTCHAR 03AA
ENCODING 938
SWIDTH 216 0
DWIDTH 3 0
BBX 4 12 0 0
BITMAP
B0
00
60
60
60
60
60
60
60
60
60
60
ENDCHAR
STARTCHAR 03AB
ENCODING 939
SWIDTH 576 0
DWIDTH 8 0
BBX 8 12 0 0
BITMAP
34
00
C1
43
62
24
3C
18
18
18
18
18
ENDCHAR
STARTCHAR 03AC
ENCODING 940
SWIDTH 576 0
DWIDTH 8 0
BBX 7 10 1 1
BITMAP
10
20
00
7C
C4
84
84
84
C4
7E
ENDCHAR
STARTCHAR 03AD
ENCODING 941
SWIDTH 432 0
DWIDTH 6 0
BBX 6 11 1 0
BITMAP
10
30
20
00
F8
80
C0
70
80
80
FC
ENDCHAR
STARTCHAR 03AE
ENCODING 942
SWIDTH 504 0
DWIDTH 7 0
BBX 6 14 1 -3
BITMAP
10
10
20
00
F8
8C
84
84
84
84
84
04
04
04
ENDCHAR
STARTCHAR 03AF
ENCODING 943
SWIDTH 216 0
DWIDTH 3 0
BBX 2 11 1 0
BITMAP
40
C0
80
00
80
80
80
80
80
80
C0
ENDCHAR
STARTCHAR 03B0
ENCODING 944
SWIDTH 576 0
DWIDTH 8 0
BBX 6 11 1 0
BITMAP
10
FC
20
00
84
84
84
84
84
CC
78
ENDCHAR
STARTCHAR 03B1
ENCODING 945
SWIDTH 576 0
DWIDTH 8 0
BBX 7 7 1 0
BITMAP
7C
C4
84
84
84
C4
7E
ENDCHAR
STARTCHAR 03B2
ENCODING 946
SWIDTH 576 0
DWIDTH 8 0
BBX 7 14 1 -3
BITMAP
38
4C
C4
84
88
9C
84
86
86
84
FC
80
80
80
ENDCHAR
STARTCHAR 03B3
ENCODING 947
SWIDTH 432 0
DWIDTH 6 0
BBX 5 10 1 -3
BITMAP
88
88
C8
58
50
70
60
20
20
20
ENDCHAR
STARTCHAR 03B4
ENCODING 948
SWIDTH 576 0
DWIDTH 8 0
BBX 6 11 1 0
BITMAP
38
64
40
30
78
CC
84
84
84
CC
78
ENDCHAR
STARTCHAR 03B5
ENCODING 949
SWIDTH 432 0
DWIDTH 6 0
BBX 6 7 1 0
BITMAP
F8
80
C0
70
80
80
FC
ENDCHAR
STARTCHAR 03B6
ENCODING 950
SWIDTH 432 0
DWIDTH 6 0
BBX 5 14 1 -3
BITMAP
F8
18
30
60
40
C0
80
80
80
C0
78
08
08
08
ENDCHAR
STARTCHAR 03B7
ENCODING 951
SWIDTH 504 0
DWIDTH 7 0
BBX 6 10 1 -3
BITMAP
F8
8C
84
84
84
84
84
04
04
04
ENDCHAR
STARTCHAR 03B8
ENCODING 952
SWIDTH 576 0
DWIDTH 8 0
BBX 7 11 1 0
BITMAP
30
4C
C4
84
86
FE
86
84
84
CC
78
ENDCHAR
STARTCHAR 03B9
ENCODING 953
SWIDTH 216 0
DWIDTH 3 0
BBX 2 7 1 0
BITMAP
80
80
80
80
80
80
C0
ENDCHAR
STARTCHAR 03BA
ENCODING 954
SWIDTH 504 0
DWIDTH 7 0
BBX 6 7 1 0
BITMAP
88
90
A0
E0
90
88
8C
ENDCHAR
STARTCHAR 03BB
ENCODING 955
SWIDTH 504 0
DWIDTH 7 0
BBX 7 11 0 0
BITMAP
E0
20
10
10
18
28
28
6C
44
44
C6
ENDCHAR
STARTCHAR 03BC
ENCODING 956
SWIDTH 576 0
DWIDTH 8 0
BBX 6 10 1 -3
BITMAP
84
84
84
84
84
C4
FC
80
80
80
ENDCHAR
STARTCHAR 03BD
ENCODING 957
SWIDTH 432 0
DWIDTH 6 0
BBX 7 7 0 0
BITMAP
C6
44
44
6C
28
38
10
ENDCHAR
STARTCHAR 03BE
ENCODING 958
SWIDTH 432 0
DWIDTH 6 0
BBX 5 14 1 -3
BITMAP
38
40
C0
C0
60
78
C0
80
80
C0
78
08
08
08
ENDCHAR
STARTCHAR 03BF
ENCODING 959
SWIDTH 576 0
DWIDTH 8 0
BBX 6 7 1 0
BITMAP
78
C4
84
84
84
CC
78
ENDCHAR
STARTCHAR 03C0
ENCODING 960
SWIDTH 576 0
DWIDTH 8 0
BBX 6 7 1 0
BITMAP
FC
84
84
84
84
84
84
ENDCHAR
STARTCHAR 03C1
ENCODING 961
SWIDTH 576 0
DWIDTH 8 0
BBX 7 10 1 -3
BITMAP
7C
C4
86
86
84
84
F8
80
80
80
ENDCHAR
STARTCHAR 03C2
ENCODING 962
SWIDTH 432 0
DWIDTH 6 0
BBX 5 10 1 -3
BITMAP
78
C0
80
80
80
C0
78
08
08
08
ENDCHAR
STARTCHAR 03C3
ENCODING 963
SWIDTH 576 0
DWIDTH 8 0
BBX 7 7 1 0
BITMAP
7E
CC
84
84
84
CC
78
ENDCHAR
STARTCHAR 03C4
ENCODING 964
SWIDTH 432 0
DWIDTH 6 0
BBX 6 7 0 0
BITMAP
FC
20
20
20
20
30
1C
ENDCHAR
STARTCHAR 03C5
ENCODING 965
SWIDTH 576 0
DWIDTH 8 0
BBX 6 7 1 0
BITMAP
84
84
84
84
84
CC
78
ENDCHAR
STARTCHAR 03C6
ENCODING 966
SWIDTH 720 0
DWIDTH 10 0
BBX 9 10 1 -3
BITMAP
7F00
C980
8880
8880
8980
C900
7E00
0800
0800
0800
ENDCHAR
STARTCHAR 03C7
ENCODING 967
SWIDTH 504 0
DWIDTH 7 0
BBX 7 7 0 0
BITMAP
44
28
38
18
28
44
C6
ENDCHAR
STARTCHAR 03C8
ENCODING 968
SWIDTH 720 0
DWIDTH 10 0
BBX 9 10 1 -3
BITMAP
8980
8980
8980
8980
8980
4900
7E00
0800
0800
0800
ENDCHAR
STARTCHAR 03C9
ENCODING 969
SWIDTH 792 0
DWIDTH 11 0
BBX 10 7 1 0
BITMAP
4080
C880
88C0
8840
8CC0
CCC0
7780
ENDCHAR
STARTCHAR 03CA
ENCODING 970
SWIDTH 216 0
DWIDTH 3 0
BBX 4 10 0 0
BITMAP
B0
00
00
40
40
40
40
40
40
60
ENDCHAR
STARTCHAR 03CB
ENCODING 971
SWIDTH 576 0
DWIDTH 8 0
BBX 6 10 1 0
BITMAP
48
00
00
84
84
84
84
84
CC
78
ENDCHAR
STARTCHAR 03CC
ENCODING 972
SWIDTH 576 0
DWIDTH 8 0
BBX 6 11 1 0
BITMAP
10
10
20
00
78
C4
84
84
84
CC
78
ENDCHAR
STARTCHAR 03CD
ENCODING 973
SWIDTH 576 0
DWIDTH 8 0
BBX 6 11 1 0
BITMAP
10
10
20
00
84
84
84
84
84
CC
78
ENDCHAR
STARTCHAR 03CE
ENCODING 974
SWIDTH 792 0
DWIDTH 11 0
BBX 10 11 1 0
BITMAP
0400
0400
0800
0000
4080
C880
88C0
8840
8CC0
CCC0
7780
ENDCHAR
STARTCHAR 0400
ENCODING 1024
SWIDTH 504 0
DWIDTH 7 0
BBX 6 13 1 0
BITMAP
20
30
10
FC
FC
C0
C0
FC
FC
C0
C0
C0
FC
ENDCHAR
STARTCHAR 0401
ENCODING 1025
SWIDTH 504 0
DWIDTH 7 0
BBX 6 12 1 0
BITMAP
68
00
FC
FC
C0
C0
FC
FC
C0
C0
C0
FC
ENDCHAR
STARTCHAR 0402
ENCODING 1026
SWIDTH 720 0
DWIDTH 10 0
BBX 10 10 0 0
BITMAP
FF00
FF00
1000
1000
1F80
10C0
10C0
10C0
10C0
1380
ENDCHAR
STARTCHAR 0403
ENCODING 1027
SWIDTH 504 0
DWIDTH 7 0
BBX 6 13 1 0
BITMAP
10
10
20
FC
FC
C0
C0
C0
C0
C0
C0
C0
C0
ENDCHAR
STARTCHAR 0404
ENCODING 1028
SWIDTH 576 0
DWIDTH 8 0
BBX 7 10 1 0
BITMAP
3E
62
C0
80
80
FC
80
C0
60
3E
ENDCHAR
STARTCHAR 0405
ENCODING 1029
SWIDTH 504 0
DWIDTH 7 0
BBX 7 10 0 0
BITMAP
3C
64
40
40
70
1C
06
02
06
FC
ENDCHAR
STARTCHAR 0406
ENCODING 1030
SWIDTH 216 0
DWIDTH 3 0
BBX 2 10 1 0
BITMAP
C0
C0
C0
C0
C0
C0
C0
C0
C0
C0
ENDCHAR
STARTCHAR 0407
ENCODING 1031
SWIDTH 216 0
DWIDTH 3 0
BBX 4 12 0 0
BITMAP
B0
00
60
60
60
60
60
60
60
60
60
60
ENDCHAR
STARTCHAR 0408
ENCODING 1032
SWIDTH 432 0
DWIDTH 6 0
BBX 6 10 0 0
BITMAP
0C
0C
0C
0C
0C
0C
0C
0C
0C
F8
ENDCHAR
STARTCHAR 0409
ENCODING 1033
SWIDTH 1008 0
DWIDTH 14 0
BBX 14 10 0 0
BITMAP
1F80
1F80
1180
1180
11F8
118C
1184
3184
218C
C1F8
ENDCHAR
STARTCHAR 040A
ENCODING 1034
SWIDTH 1008 0
DWIDTH 14 0
BBX 13 10 1 0
BITMAP
C200
C200
C200
C200
FFE0
C210
C218
C218
C210
C3E0
ENDCHAR
STARTCHAR 040B
ENCODING 1035
SWIDTH 720 0
DWIDTH 10 0
BBX 9 10 0 0
BITMAP
FF00
FF00
1000
1000
1F00
1080
1080
1080
1080
1080
ENDCHAR
STARTCHAR 040C
ENCODING 1036
SWIDTH 576 0
DWIDTH 8 0
BBX 7 13 1 0
BITMAP
08
18
10
C2
C4
C8
D0
E0
F0
D8
CC
C6
C2
ENDCHAR
STARTCHAR 040D
ENCODING 1037
SWIDTH 720 0
DWIDTH 10 0
BBX 8 13 1 0
BITMAP
10
10
08
C1
C3
C7
CD
C9
D1
F1
E1
C1
C1
ENDCHAR
STARTCHAR 040E
ENCODING 1038
SWIDTH 576 0
DWIDTH 8 0
BBX 8 12 0 1
BITMAP
3C
00
C1
43
62
22
36
14
1C
08
18
70
ENDCHAR
STARTCHAR 040F
ENCODING 1039
SWIDTH 648 0
DWIDTH 9 0
BBX 8 13 1 -3
BITMAP
C3
C3
C3
C3
C3
C3
C3
C3
C3
FF
18
18
18
ENDCHAR
STARTCHAR 0410
ENCODING 1040
SWIDTH 648 0
DWIDTH 9 0
BBX 9 10 0 0
BITMAP
0800
1C00
1400
1600
2200
2200
7F00
7F00
4180
C180
ENDCHAR
STARTCHAR 0411
ENCODING 1041
SWIDTH 576 0
DWIDTH 8 0
BBX 7 10 1 0
BITMAP
FC
FC
C0
C0
FC
C6
C2
C2
C6
FC
ENDCHAR
STARTCHAR 0412
ENCODING 1042
SWIDTH 576 0
DWIDTH 8 0
BBX 7 10 1 0
BITMAP
F8
CC
C6
C6
FC
FE
C2
C2
C6
FC
ENDCHAR
STARTCHAR 0413
ENCODING 1043
SWIDTH 504 0
DWIDTH 7 0
BBX 6 10 1 0
BITMAP
FC
FC
C0
C0
C0
C0
C0
C0
C0
C0
ENDCHAR
STARTCHAR 0414
ENCODING 1044
SWIDTH 720 0
DWIDTH 10 0
BBX 10 13 0 -3
BITMAP
1F80
1F80
1180
1180
1180
1180
1180
3180
2180
FFC0
C040
C040
C040
ENDCHAR
STARTCHAR 0415
ENCODING 1045
SWIDTH 504 0
DWIDTH 7 0
BBX 6 10 1 0
BITMAP
FC
FC
C0
C0
FC
FC
C0
C0
C0
FC
ENDCHAR
STARTCHAR 0416
ENCODING 1046
SWIDTH 864 0
DWIDTH 12 0
BBX 11 10 1 0
BITMAP
8460
C440
6480
3500
1700
1F00
3580
64C0
C440
8460
ENDCHAR
STARTCHAR 0417
ENCODING 1047
SWIDTH 504 0
DWIDTH 7 0
BBX 7 10 0 0
BITMAP
78
46
06
06
3C
0C
02
02
06
FC
ENDCHAR
STARTCHAR 0418
ENCODING 1048
SWIDTH 720 0
DWIDTH 10 0
BBX 8 10 1 0
BITMAP
C1
C3
C7
CD
C9
D1
F1
E1
C1
C1
ENDCHAR
STARTCHAR 0419
ENCODING 1049
SWIDTH 720 0
DWIDTH 10 0
BBX 8 12 1 1
BITMAP
3C
00
C1
C3
C7
CD
C9
D1
F1
E1
C1
C1
ENDCHAR
STARTCHAR 041A
ENCODING 1050
SWIDTH 576 0
DWIDTH 8 0
BBX 7 10 1 0
BITMAP
C2
C4
C8
D0
E0
F0
D8
CC
C6
C2
ENDCHAR
STARTCHAR 041B
ENCODING 1051
SWIDTH 648 0
DWIDTH 9 0
BBX 9 10 0 0
BITMAP
1F80
1F80
1180
1180
1180
1180
1180
3180
2180
C180
ENDCHAR
STARTCHAR 041C
ENCODING 1052
SWIDTH 864 0
DWIDTH 12 0
BBX 10 10 1 0
BITMAP
4080
40C0
E1C0
E140
D240
9240
8E40
8C40
8C40
8040
ENDCHAR
STARTCHAR 041D
ENCODING 1053
SWIDTH 648 0
DWIDTH 9 0
BBX 8 10 1 0
BITMAP
C3
C3
C3
C3
FF
FF
C3
C3
C3
C3
ENDCHAR
STARTCHAR 041E
ENCODING 1054
SWIDTH 720 0
DWIDTH 10 0
BBX 9 10 1 0
BITMAP
1C00
6700
C100
8180
8080
8080
8180
C180
6300
3E00
ENDCHAR
STARTCHAR 041F
ENCODING 1055
SWIDTH 648 0
DWIDTH 9 0
BBX 8 10 1 0
BITMAP
FF
FF
C3
C3
C3
C3
C3
C3
C3
C3
ENDCHAR
STARTCHAR 0420
ENCODING 1056
SWIDTH 576 0
DWIDTH 8 0
BBX 7 10 1 0
BITMAP
F8
CC
C6
C2
C6
FC
C0
C0
C0
C0
ENDCHAR
STARTCHAR 0421
ENCODING 1057
SWIDTH 576 0
DWIDTH 8 0
BBX 7 10 1 0
BITMAP
1E
62
C0
80
80
80
80
C0
60
3E
ENDCHAR
STARTCHAR 0422
ENCODING 1058
SWIDTH 504 0
DWIDTH 7 0
BBX 8 10 0 0
BITMAP
FF
FF
18
18
18
18
18
18
18
18
ENDCHAR
STARTCHAR 0423
ENCODING 1059
SWIDTH 576 0
DWIDTH 8 0
BBX 8 10 0 0
BITMAP
C1
43
62
22
36
14
1C
08
18
70
ENDCHAR
STARTCHAR 0424
ENCODING 1060
SWIDTH 864 0
DWIDTH 12 0
BBX 10 10 1 0
BITMAP
0C00
3F00
4C80
8C40
8C40
8C40
CCC0
6D80
3F00
0C00
ENDCHAR
STARTCHAR 0425
ENCODING 1061
SWIDTH 576 0
DWIDTH 8 0
BBX 7 10 1 0
BITMAP
82
C6
4C
28
30
38
68
4C
C6
82
ENDCHAR
STARTCHAR 0426
ENCODING 1062
SWIDTH 648 0
DWIDTH 9 0
BBX 9 13 1 -3
BITMAP
C300
C300
C300
C300
C300
C300
C300
C300
C300
FF80
0180
0180
0180
ENDCHAR
STARTCHAR 0427
ENCODING 1063
SWIDTH 576 0
DWIDTH 8 0
BBX 7 10 1 0
BITMAP
86
86
86
86
86
FE
3E
06
06
06
ENDCHAR
STARTCHAR 0428
ENCODING 1064
SWIDTH 936 0
DWIDTH 13 0
BBX 11 10 1 0
BITMAP
C620
C620
C620
C620
C620
C620
C620
C620
C620
FFE0
ENDCHAR
STARTCHAR 0429
ENCODING 1065
SWIDTH 936 0
DWIDTH 13 0
BBX 13 13 1 -3
BITMAP
C620
C620
C620
C620
C620
C620
C620
C620
C620
FFF8
0018
0018
0018
ENDCHAR
STARTCHAR 042A
ENCODING 1066
SWIDTH 720 0
DWIDTH 10 0
BBX 10 10 0 0
BITMAP
F000
F000
1000
1000
1F00
1180
10C0
10C0
1180
1F00
ENDCHAR
STARTCHAR 042B
ENCODING 1067
SWIDTH 792 0
DWIDTH 11 0
BBX 10 10 1 0
BITMAP
C0C0
C0C0
C0C0
C0C0
FCC0
C6C0
C6C0
C6C0
C6C0
F8C0
ENDCHAR
STARTCHAR 042C
ENCODING 1068
SWIDTH 576 0
DWIDTH 8 0
BBX 7 10 1 0
BITMAP
C0
C0
C0
C0
FC
C6
C2
C2
C6
FC
ENDCHAR
STARTCHAR 042D
ENCODING 1069
SWIDTH 576 0
DWIDTH 8 0
BBX 8 10 0 0
BITMAP
78
4E
02
03
03
3F
03
02
06
FC
ENDCHAR
STARTCHAR 042E
ENCODING 1070
SWIDTH 1008 0
DWIDTH 14 0
BBX 12 10 1 0
BITMAP
C3C0
C660
CC30
C810
F810
F810
C810
CC10
C430
C3E0
ENDCHAR
STARTCHAR 042F
ENCODING 1071
SWIDTH 576 0
DWIDTH 8 0
BBX 7 10 1 0
BITMAP
3E
E6
86
86
C6
7E
66
46
C6
86
ENDCHAR
STARTCHAR 0430
ENCODING 1072
SWIDTH 504 0
DWIDTH 7 0
BBX 5 7 1 0
BITMAP
F8
08
08
F8
88
88
F8
ENDCHAR
STARTCHAR 0431
ENCODING 1073
SWIDTH 576 0
DWIDTH 8 0
BBX 7 11 1 0
BITMAP
0C
38
40
C0
F8
C4
84
86
84
C4
78
ENDCHAR
STARTCHAR 0432
ENCODING 1074
SWIDTH 504 0
DWIDTH 7 0
BBX 6 7 1 0
BITMAP
F8
8C
88
F8
84
84
F8
ENDCHAR
STARTCHAR 0433
ENCODING 1075
SWIDTH 360 0
DWIDTH 5 0
BBX 5 7 1 0
BITMAP
F8
80
80
80
80
80
80
ENDCHAR
STARTCHAR 0434
ENCODING 1076
SWIDTH 576 0
DWIDTH 8 0
BBX 8 9 0 -2
BITMAP
3E
32
22
22
22
62
FF
81
81
ENDCHAR
STARTCHAR 0435
ENCODING 1077
SWIDTH 504 0
DWIDTH 7 0
BBX 6 7 1 0
BITMAP
78
8C
84
FC
80
C0
78
ENDCHAR
STARTCHAR 0436
ENCODING 1078
SWIDTH 720 0
DWIDTH 10 0
BBX 9 7 1 0
BITMAP
C980
4B00
2E00
3E00
6B00
C900
8880
ENDCHAR
STARTCHAR 0437
ENCODING 1079
SWIDTH 432 0
DWIDTH 6 0
BBX 5 7 1 0
BITMAP
F8
08
18
70
08
08
F8
ENDCHAR
STARTCHAR 0438
ENCODING 1080
SWIDTH 576 0
DWIDTH 8 0
BBX 6 7 1 0
BITMAP
8C
8C
94
A4
A4
C4
C4
ENDCHAR
STARTCHAR 0439
ENCODING 1081
SWIDTH 576 0
DWIDTH 8 0
BBX 6 10 1 0
BITMAP
68
30
00
8C
8C
94
A4
A4
C4
C4
ENDCHAR
STARTCHAR 043A
ENCODING 1082
SWIDTH 504 0
DWIDTH 7 0
BBX 6 7 1 0
BITMAP
88
90
A0
E0
90
88
8C
ENDCHAR
STARTCHAR 043B
ENCODING 1083
SWIDTH 576 0
DWIDTH 8 0
BBX 7 7 0 0
BITMAP
3E
32
32
22
22
62
C2
ENDCHAR
STARTCHAR 043C
ENCODING 1084
SWIDTH 720 0
DWIDTH 10 0
BBX 8 7 1 0
BITMAP
C3
E3
A5
B5
99
99
81
ENDCHAR
STARTCHAR 043D
ENCODING 1085
SWIDTH 576 0
DWIDTH 8 0
BBX 6 7 1 0
BITMAP
84
84
84
FC
84
84
84
ENDCHAR
STARTCHAR 043E
ENCODING 1086
SWIDTH 576 0
DWIDTH 8 0
BBX 6 7 1 0
BITMAP
78
C4
84
84
84
CC
78
ENDCHAR
STARTCHAR 043F
ENCODING 1087
SWIDTH 576 0
DWIDTH 8 0
BBX 6 7 1 0
BITMAP
FC
84
84
84
84
84
84
ENDCHAR
STARTCHAR 0440
ENCODING 1088
SWIDTH 576 0
DWIDTH 8 0
BBX 6 10 1 -3
BITMAP
F8
84
84
84
84
8C
F8
80
80
80
ENDCHAR
STARTCHAR 0441
ENCODING 1089
SWIDTH 432 0
DWIDTH 6 0
BBX 5 7 1 0
BITMAP
78
C0
80
80
80
C0
78
ENDCHAR
STARTCHAR 0442
ENCODING 1090
SWIDTH 432 0
DWIDTH 6 0
BBX 6 7 0 0
BITMAP
FC
10
10
10
10
10
10
ENDCHAR
STARTCHAR 0443
ENCODING 1091
SWIDTH 432 0
DWIDTH 6 0
BBX 6 10 0 -3
BITMAP
C4
44
44
6C
28
38
18
10
A0
C0
ENDCHAR
STARTCHAR 0444
ENCODING 1092
SWIDTH 720 0
DWIDTH 10 0
BBX 9 14 1 -3
BITMAP
0800
0800
0800
0800
7E00
C900
8980
8880
8980
C900
3E00
0800
0800
0800
ENDCHAR
STARTCHAR 0445
ENCODING 1093
SWIDTH 504 0
DWIDTH 7 0
BBX 7 7 0 0
BITMAP
44
28
38
18
28
44
C6
ENDCHAR
STARTCHAR 0446
ENCODING 1094
SWIDTH 576 0
DWIDTH 8 0
BBX 7 9 1 -2
BITMAP
84
84
84
84
84
84
FE
02
02
ENDCHAR
STARTCHAR 0447
ENCODING 1095
SWIDTH 504 0
DWIDTH 7 0
BBX 5 7 1 0
BITMAP
88
88
88
F8
08
08
08
ENDCHAR
STARTCHAR 0448
ENCODING 1096
SWIDTH 792 0
DWIDTH 11 0
BBX 9 7 1 0
BITMAP
8880
8880
8880
8880
8880
8880
FF80
ENDCHAR
STARTCHAR 0449
ENCODING 1097
SWIDTH 792 0
DWIDTH 11 0
BBX 10 9 1 -2
BITMAP
8880
8880
8880
8880
8880
8880
FFC0
0040
0040
ENDCHAR
STARTCHAR 044A
ENCODING 1098
SWIDTH 576 0
DWIDTH 8 0
BBX 8 7 0 0
BITMAP
E0
20
2C
37
21
23
3E
ENDCHAR
STARTCHAR 044B
ENCODING 1099
SWIDTH 720 0
DWIDTH 10 0
BBX 8 7 1 0
BITMAP
81
81
B1
D9
8D
8D
F9
ENDCHAR
STARTCHAR 044C
ENCODING 1100
SWIDTH 504 0
DWIDTH 7 0
BBX 6 7 1 0
BITMAP
80
80
B0
DC
84
8C
F8
ENDCHAR
STARTCHAR 044D
ENCODING 1101
SWIDTH 432 0
DWIDTH 6 0
BBX 5 7 1 0
BITMAP
F0
18
08
78
08
18
F0
ENDCHAR
STARTCHAR 044E
ENCODING 1102
SWIDTH 792 0
DWIDTH 11 0
BBX 10 7 1 0
BITMAP
8F00
9880
9080
F0C0
9080
9880
8F00
ENDCHAR
STARTCHAR 044F
ENCODING 1103
SWIDTH 504 0
DWIDTH 7 0
BBX 6 7 1 0
BITMAP
FC
8C
8C
FC
4C
CC
8C
ENDCHAR
STARTCHAR 0450
ENCODING 1104
SWIDTH 504 0
DWIDTH 7 0
BBX 6 10 1 1
BITMAP
20
10
00
78
8C
84
FC
80
C0
78
ENDCHAR
STARTCHAR 0451
ENCODING 1105
SWIDTH 504 0
DWIDTH 7 0
BBX 6 10 1 0
BITMAP
58
00
00
78
8C
84
FC
80
C0
78
ENDCHAR
STARTCHAR 0452
ENCODING 1106
SWIDTH 504 0
DWIDTH 7 0
BBX 6 14 1 -3
BITMAP
80
80
E0
80
F8
8C
84
84
84
84
84
04
0C
18
ENDCHAR
STARTCHAR 0453
ENCODING 1107
SWIDTH 360 0
DWIDTH 5 0
BBX 5 11 1 0
BITMAP
10
10
20
00
F8
80
80
80
80
80
80
ENDCHAR
STARTCHAR 0454
ENCODING 1108
SWIDTH 432 0
DWIDTH 6 0
BBX 5 7 1 0
BITMAP
78
C0
80
F0
80
C0
78
ENDCHAR
STARTCHAR 0455
ENCODING 1109
SWIDTH 432 0
DWIDTH 6 0
BBX 5 7 1 0
BITMAP
F0
80
C0
70
18
18
F0
ENDCHAR
STARTCHAR 0456
ENCODING 1110
SWIDTH 216 0
DWIDTH 3 0
BBX 2 10 1 0
BITMAP
C0
00
00
80
80
80
80
80
80
80
ENDCHAR
STARTCHAR 0457
ENCODING 1111
SWIDTH 216 0
DWIDTH 3 0
BBX 4 10 0 0
BITMAP
B0
00
00
40
40
40
40
40
40
40
ENDCHAR
STARTCHAR 0458
ENCODING 1112
SWIDTH 216 0
DWIDTH 3 0
BBX 4 13 -1 -3
BITMAP
30
00
00
20
20
20
20
20
20
20
20
E0
C0
ENDCHAR
STARTCHAR 0459
ENCODING 1113
SWIDTH 792 0
DWIDTH 11 0
BBX 12 7 0 0
BITMAP
3E00
3200
33C0
2260
2230
6220
C3E0
ENDCHAR
STARTCHAR 045A
ENCODING 1114
SWIDTH 792 0
DWIDTH 11 0
BBX 10 7 1 0
BITMAP
8400
8400
8780
FCC0
8440
8440
87C0
ENDCHAR
STARTCHAR 045B
ENCODING 1115
SWIDTH 504 0
DWIDTH 7 0
BBX 6 11 1 0
BITMAP
80
80
E0
80
F8
8C
84
84
84
84
84
ENDCHAR
STARTCHAR 045C
ENCODING 1116
SWIDTH 504 0
DWIDTH 7 0
BBX 6 10 1 1
BITMAP
10
20
00
88
90
A0
E0
90
88
8C
ENDCHAR
STARTCHAR 045D
ENCODING 1117
SWIDTH 576 0
DWIDTH 8 0
BBX 6 11 1 0
BITMAP
20
20
10
00
8C
8C
94
A4
A4
C4
C4
ENDCHAR
STARTCHAR 045E
ENCODING 1118
SWIDTH 432 0
DWIDTH 6 0
BBX 6 13 0 -3
BITMAP
2C
10
00
C4
44
44
6C
28
38
18
10
A0
C0
ENDCHAR
STARTCHAR 045F
ENCODING 1119
SWIDTH 504 0
DWIDTH 7 0
BBX 6 9 1 -2
BITMAP
84
84
84
84
84
84
FC
30
30
ENDCHAR
STARTCHAR 0462
ENCODING 1122
SWIDTH 720 0
DWIDTH 10 0
BBX 10 10 0 0
BITMAP
1000
FE00
1000
1000
1F00
1180
10C0
10C0
1180
1F00
ENDCHAR
STARTCHAR 0463
ENCODING 1123
SWIDTH 576 0
DWIDTH 8 0
BBX 8 11 0 0
BITMAP
20
20
20
20
FC
20
2C
37
21
23
3E
ENDCHAR
STARTCHAR 0472
ENCODING 1138
SWIDTH 720 0
DWIDTH 10 0
BBX 9 10 1 0
BITMAP
1C00
6700
C100
8180
B080
CF80
8180
C180
6300
3E00
ENDCHAR
STARTCHAR 0473
ENCODING 1139
SWIDTH 576 0
DWIDTH 8 0
BBX 6 7 1 0
BITMAP
78
C4
84
FC
84
CC
78
ENDCHAR
STARTCHAR 0474
ENCODING 1140
SWIDTH 720 0
DWIDTH 10 0
BBX 10 10 0 0
BITMAP
C0C0
4180
4100
6300
2200
2200
3600
1400
1C00
0800
ENDCHAR
STARTCHAR 0475
ENCODING 1141
SWIDTH 504 0
DWIDTH 7 0
BBX 8 7 0 0
BITMAP
C7
44
44
68
28
38
10
ENDCHAR
STARTCHAR 048A
ENCODING 1162
SWIDTH 720 0
DWIDTH 10 0
BBX 9 15 1 -2
BITMAP
3C00
0000
C100
C300
C700
CD00
C900
D100
F100
E100
C100
C180
0080
0100
0100
ENDCHAR
STARTCHAR 048B
ENCODING 1163
SWIDTH 576 0
DWIDTH 8 0
BBX 7 12 1 -2
BITMAP
68
30
00
8C
8C
94
A4
A4
C4
C6
02
06
ENDCHAR
STARTCHAR 048C
ENCODING 1164
SWIDTH 576 0
DWIDTH 8 0
BBX 8 10 0 0
BITMAP
60
F8
60
60
7E
63
61
61
63
7E
ENDCHAR
STARTCHAR 048D
ENCODING 1165
SWIDTH 504 0
DWIDTH 7 0
BBX 7 8 0 0
BITMAP
60
F8
60
60
7E
62
66
7C
ENDCHAR
STARTCHAR 048E
ENCODING 1166
SWIDTH 576 0
DWIDTH 8 0
BBX 7 10 1 0
BITMAP
F8
CC
C6
C2
D6
FC
C8
C4
C0
C0
ENDCHAR
STARTCHAR 048F
ENCODING 1167
SWIDTH 576 0
DWIDTH 8 0
BBX 6 10 1 -3
BITMAP
F8
84
84
84
94
9C
F8
8C
80
80
ENDCHAR
STARTCHAR 0490
ENCODING 1168
SWIDTH 504 0
DWIDTH 7 0
BBX 6 11 1 0
BITMAP
04
FC
FC
C0
C0
C0
C0
C0
C0
C0
C0
ENDCHAR
STARTCHAR 0491
ENCODING 1169
SWIDTH 360 0
DWIDTH 5 0
BBX 5 9 1 0
BITMAP
08
08
F8
80
80
80
80
80
80
ENDCHAR
STARTCHAR 0492
ENCODING 1170
SWIDTH 504 0
DWIDTH 7 0
BBX 7 10 0 0
BITMAP
7E
7E
60
60
60
F8
60
60
60
60
ENDCHAR
STARTCHAR 0493
ENCODING 1171
SWIDTH 360 0
DWIDTH 5 0
BBX 6 7 0 0
BITMAP
7C
60
60
F8
60
60
60
ENDCHAR
STARTCHAR 0494
ENCODING 1172
SWIDTH 576 0
DWIDTH 8 0
BBX 7 13 1 -3
BITMAP
FC
FC
C0
C0
F8
C4
C6
C2
C2
C2
06
1C
10
ENDCHAR
STARTCHAR 0495
ENCODING 1173
SWIDTH 504 0
DWIDTH 7 0
BBX 6 10 1 -3
BITMAP
F8
80
80
F8
8C
84
84
04
18
30
ENDCHAR
STARTCHAR 0496
ENCODING 1174
SWIDTH 864 0
DWIDTH 12 0
BBX 12 13 1 -3
BITMAP
8460
C440
6480
3500
1700
1F00
3580
64C0
C440
8470
0030
0030
0030
ENDCHAR
STARTCHAR 0497
ENCODING 1175
SWIDTH 720 0
DWIDTH 10 0
BBX 10 9 1 -2
BITMAP
C980
4B00
2E00
3E00
6B00
C900
88C0
00C0
00C0
ENDCHAR
STARTCHAR 0498
ENCODING 1176
SWIDTH 504 0
DWIDTH 7 0
BBX 7 13 0 -3
BITMAP
78
46
06
06
3C
0C
02
02
06
FC
10
08
30
ENDCHAR
STARTCHAR 0499
ENCODING 1177
SWIDTH 432 0
DWIDTH 6 0
BBX 5 10 1 -3
BITMAP
F8
08
18
70
08
08
F8
20
20
60
ENDCHAR
STARTCHAR 049A
ENCODING 1178
SWIDTH 648 0
DWIDTH 9 0
BBX 8 13 1 -3
BITMAP
C2
C4
C8
D0
E0
F0
D8
CC
C6
C3
01
01
01
ENDCHAR
STARTCHAR 049B
ENCODING 1179
SWIDTH 504 0
DWIDTH 7 0
BBX 7 9 1 -2
BITMAP
88
90
A0
E0
90
88
8E
06
06
ENDCHAR
STARTCHAR 049C
ENCODING 1180
SWIDTH 648 0
DWIDTH 9 0
BBX 8 10 1 0
BITMAP
C1
C2
E6
EC
F8
F8
EC
E6
C3
C1
ENDCHAR
STARTCHAR 049D
ENCODING 1181
SWIDTH 576 0
DWIDTH 8 0
BBX 7 7 1 0
BITMAP
86
AC
B8
F8
AC
84
82
ENDCHAR
STARTCHAR 049E
ENCODING 1182
SWIDTH 576 0
DWIDTH 8 0
BBX 9 10 0 0
BITMAP
6100
F200
6400
6800
7000
7800
6C00
6600
6300
6180
ENDCHAR
STARTCHAR 049F
ENCODING 1183
SWIDTH 504 0
DWIDTH 7 0
BBX 7 8 0 0
BITMAP
60
F6
6C
78
78
6C
64
62
ENDCHAR
STARTCHAR 04A0
ENCODING 1184
SWIDTH 720 0
DWIDTH 10 0
BBX 10 10 0 0
BITMAP
F0C0
F180
1300
1600
1C00
1C00
1200
1100
1180
10C0
ENDCHAR
STARTCHAR 04A1
ENCODING 1185
SWIDTH 576 0
DWIDTH 8 0
BBX 8 7 0 0
BITMAP
E2
24
28
38
24
22
23
ENDCHAR
STARTCHAR 04A2
ENCODING 1186
SWIDTH 720 0
DWIDTH 10 0
BBX 9 13 1 -3
BITMAP
C300
C300
C300
C300
FF00
FF00
C300
C300
C300
C380
0080
0080
0080
ENDCHAR
STARTCHAR 04A3
ENCODING 1187
SWIDTH 576 0
DWIDTH 8 0
BBX 7 9 1 -2
BITMAP
84
84
84
FC
84
84
86
02
02
ENDCHAR
STARTCHAR 04A4
ENCODING 1188
SWIDTH 792 0
DWIDTH 11 0
BBX 10 10 1 0
BITMAP
C3C0
C3C0
C300
C300
FF00
FF00
C300
C300
C300
C300
ENDCHAR
STARTCHAR 04A5
ENCODING 1189
SWIDTH 648 0
DWIDTH 9 0
BBX 8 7 1 0
BITMAP
87
84
84
FC
84
84
84
ENDCHAR
STARTCHAR 04A6
ENCODING 1190
SWIDTH 1008 0
DWIDTH 14 0
BBX 13 13 1 -3
BITMAP
FE00
FE00
C200
C200
C3E0
C230
C218
C218
C218
C218
0010
00F0
00C0
ENDCHAR
STARTCHAR 04A7
ENCODING 1191
SWIDTH 792 0
DWIDTH 11 0
BBX 11 10 1 -3
BITMAP
FC00
8400
8400
87C0
8440
8460
8460
0040
00C0
0100
ENDCHAR
STARTCHAR 04A8
ENCODING 1192
SWIDTH 720 0
DWIDTH 10 0
BBX 9 13 1 -3
BITMAP
1E00
7200
C000
8F00
8980
8880
9880
C980
6900
3E00
0400
0780
0080
ENDCHAR
STARTCHAR 04A9
ENCODING 1193
SWIDTH 576 0
DWIDTH 8 0
BBX 7 9 1 -2
BITMAP
70
80
9C
92
B2
D4
7C
18
0C
ENDCHAR
STARTCHAR 04AA
ENCODING 1194
SWIDTH 576 0
DWIDTH 8 0
BBX 7 13 1 -3
BITMAP
1E
62
C0
80
80
80
80
C0
60
3E
10
08
10
ENDCHAR
STARTCHAR 04AB
ENCODING 1195
SWIDTH 432 0
DWIDTH 6 0
BBX 5 10 1 -3
BITMAP
78
C0
80
80
80
C0
78
20
10
20
ENDCHAR
STARTCHAR 04AC
ENCODING 1196
SWIDTH 504 0
DWIDTH 7 0
BBX 8 13 0 -3
BITMAP
FF
FF
18
18
18
18
18
18
18
1C
04
04
04
ENDCHAR
STARTCHAR 04AD
ENCODING 1197
SWIDTH 432 0
DWIDTH 6 0
BBX 6 9 0 -2
BITMAP
FC
10
10
10
10
10
18
08
08
ENDCHAR
STARTCHAR 04AE
ENCODING 1198
SWIDTH 576 0
DWIDTH 8 0
BBX 8 10 0 0
BITMAP
C1
43
62
24
3C
18
18
18
18
18
ENDCHAR
STARTCHAR 04AF
ENCODING 1199
SWIDTH 432 0
DWIDTH 6 0
BBX 7 10 0 -3
BITMAP
C6
44
44
6C
28
38
10
10
10
10
ENDCHAR
STARTCHAR 04B0
ENCODING 1200
SWIDTH 576 0
DWIDTH 8 0
BBX 8 10 0 0
BITMAP
C1
43
62
24
3C
18
3E
18
18
18
ENDCHAR
STARTCHAR 04B1
ENCODING 1201
SWIDTH 432 0
DWIDTH 6 0
BBX 7 10 0 -3
BITMAP
C6
44
44
6C
28
38
7C
10
10
10
ENDCHAR
STARTCHAR 04B2
ENCODING 1202
SWIDTH 648 0
DWIDTH 9 0
BBX 8 13 1 -3
BITMAP
82
C6
4C
28
30
38
68
4C
C6
83
01
01
01
ENDCHAR
STARTCHAR 04B3
ENCODING 1203
SWIDTH 504 0
DWIDTH 7 0
BBX 7 9 0 -2
BITMAP
44
28
38
18
28
44
C6
02
02
ENDCHAR
STARTCHAR 04B4
ENCODING 1204
SWIDTH 792 0
DWIDTH 11 0
BBX 12 13 0 -3
BITMAP
FE40
FE40
1040
1040
1040
1040
1040
1040
1040
1FF0
0030
0030
0030
ENDCHAR
STARTCHAR 04B5
ENCODING 1205
SWIDTH 648 0
DWIDTH 9 0
BBX 9 9 0 -2
BITMAP
F900
2100
2100
2100
2100
2100
3F80
0080
0080
ENDCHAR
STARTCHAR 04B6
ENCODING 1206
SWIDTH 648 0
DWIDTH 9 0
BBX 8 13 1 -3
BITMAP
86
86
86
86
86
FE
3E
06
06
07
03
03
03
ENDCHAR
STARTCHAR 04B7
ENCODING 1207
SWIDTH 504 0
DWIDTH 7 0
BBX 6 9 1 -2
BITMAP
88
88
88
F8
08
08
0C
04
04
ENDCHAR
STARTCHAR 04B8
ENCODING 1208
SWIDTH 576 0
DWIDTH 8 0
BBX 7 10 1 0
BITMAP
86
86
86
86
96
FE
3E
16
06
06
ENDCHAR
STARTCHAR 04B9
ENCODING 1209
SWIDTH 504 0
DWIDTH 7 0
BBX 5 7 1 0
BITMAP
88
88
A8
F8
28
28
08
ENDCHAR
STARTCHAR 04BA
ENCODING 1210
SWIDTH 576 0
DWIDTH 8 0
BBX 7 10 1 0
BITMAP
C0
C0
C0
C0
FC
C6
C2
C2
C2
C2
ENDCHAR
STARTCHAR 04BB
ENCODING 1211
SWIDTH 504 0
DWIDTH 7 0
BBX 6 11 1 0
BITMAP
80
80
80
80
F8
8C
84
84
84
84
84
ENDCHAR
STARTCHAR 04BC
ENCODING 1212
SWIDTH 792 0
DWIDTH 11 0
BBX 11 10 0 0
BITMAP
0780
0CC0
1840
9060
FFE0
3FE0
1000
1800
0800
07C0
ENDCHAR
STARTCHAR 04BD
ENCODING 1213
SWIDTH 648 0
DWIDTH 9 0
BBX 9 7 0 0
BITMAP
1F00
9100
F180
7F80
3000
1000
0F00
ENDCHAR
STARTCHAR 04BE
ENCODING 1214
SWIDTH 792 0
DWIDTH 11 0
BBX 11 13 0 -3
BITMAP
0780
0CC0
1840
9060
FFE0
3FE0
1000
1800
0800
07C0
0200
0200
0200
ENDCHAR
STARTCHAR 04BF
ENCODING 1215
SWIDTH 648 0
DWIDTH 9 0
BBX 9 9 0 -2
BITMAP
1F00
9100
F180
7F80
3000
1000
0F00
0400
0400
ENDCHAR
STARTCHAR 04C0
ENCODING 1216
SWIDTH 216 0
DWIDTH 3 0
BBX 2 10 1 0
BITMAP
C0
C0
C0
C0
C0
C0
C0
C0
C0
C0
ENDCHAR
STARTCHAR 04C1
ENCODING 1217
SWIDTH 864 0
DWIDTH 12 0
BBX 11 12 1 1
BITMAP
1E00
0000
8460
C440
6480
3500
1700
1F00
3580
64C0
C440
8460
ENDCHAR
STARTCHAR 04C2
ENCODING 1218
SWIDTH 720 0
DWIDTH 10 0
BBX 9 10 1 0
BITMAP
3400
0800
0000
C980
4B00
2E00
3E00
6B00
C900
8880
ENDCHAR
STARTCHAR 04C3
ENCODING 1219
SWIDTH 576 0
DWIDTH 8 0
BBX 7 13 1 -3
BITMAP
C6
C4
C8
D0
E0
FC
C6
C2
C2
C2
06
1C
10
ENDCHAR
STARTCHAR 04C4
ENCODING 1220
SWIDTH 504 0
DWIDTH 7 0
BBX 6 10 1 -3
BITMAP
8C
90
A0
F8
8C
84
84
04
18
30
ENDCHAR
STARTCHAR 04C5
ENCODING 1221
SWIDTH 720 0
DWIDTH 10 0
BBX 10 12 0 -3
BITMAP
1F80
1F80
1180
1180
1180
1180
1180
3180
2180
C1C0
00C0
0080
ENDCHAR
STARTCHAR 04C6
ENCODING 1222
SWIDTH 576 0
DWIDTH 8 0
BBX 8 9 0 -2
BITMAP
3E
32
32
22
22
62
C3
01
03
ENDCHAR
STARTCHAR 04C7
ENCODING 1223
SWIDTH 648 0
DWIDTH 9 0
BBX 8 13 1 -3
BITMAP
C3
C3
C3
C3
FF
FF
C3
C3
C3
C3
03
02
04
ENDCHAR
STARTCHAR 04C8
ENCODING 1224
SWIDTH 576 0
DWIDTH 8 0
BBX 6 10 1 -3
BITMAP
84
84
84
FC
84
84
84
04
0C
18
ENDCHAR
STARTCHAR 04C9
ENCODING 1225
SWIDTH 720 0
DWIDTH 10 0
BBX 9 12 1 -3
BITMAP
C300
C300
C300
C300
FF00
FF00
C300
C300
C300
C380
0180
0100
ENDCHAR
STARTCHAR 04CA
ENCODING 1226
SWIDTH 576 0
DWIDTH 8 0
BBX 7 9 1 -2
BITMAP
84
84
84
FC
84
84
86
02
04
ENDCHAR
STARTCHAR 04CB
ENCODING 1227
SWIDTH 576 0
DWIDTH 8 0
BBX 7 13 1 -3
BITMAP
86
86
86
86
86
FE
3E
06
06
0E
08
08
08
ENDCHAR
STARTCHAR 04CC
ENCODING 1228
SWIDTH 504 0
DWIDTH 7 0
BBX 5 9 1 -2
BITMAP
88
88
88
F8
08
08
18
10
10
ENDCHAR
STARTCHAR 04CD
ENCODING 1229
SWIDTH 864 0
DWIDTH 12 0
BBX 11 12 1 -3
BITMAP
4080
40C0
E1C0
E140
D240
9240
8E40
8C40
8C40
8060
0020
0060
ENDCHAR
STARTCHAR 04CE
ENCODING 1230
SWIDTH 720 0
DWIDTH 10 0
BBX 9 9 1 -2
BITMAP
C300
E300
A500
B500
9900
9900
8180
0080
0180
ENDCHAR
STARTCHAR 04CF
ENCODING 1231
SWIDTH 216 0
DWIDTH 3 0
BBX 2 10 1 0
BITMAP
C0
C0
C0
C0
C0
C0
C0
C0
C0
C0
ENDCHAR
STARTCHAR 04D0
ENCODING 1232
SWIDTH 648 0
DWIDTH 9 0
BBX 9 12 0 1
BITMAP
1C00
0000
0800
1C00
1400
1600
2200
2200
7F00
7F00
4180
C180
ENDCHAR
STARTCHAR 04D1
ENCODING 1233
SWIDTH 504 0
DWIDTH 7 0
BBX 5 10 1 0
BITMAP
58
20
00
F8
08
08
F8
88
88
F8
ENDCHAR
STARTCHAR 04D2
ENCODING 1234
SWIDTH 648 0
DWIDTH 9 0
BBX 9 12 0 0
BITMAP
3600
0000
0800
1C00
1400
1600
2200
2200
7F00
7F00
4180
C180
ENDCHAR
STARTCHAR 04D3
ENCODING 1235
SWIDTH 504 0
DWIDTH 7 0
BBX 5 10 1 0
BITMAP
58
00
00
F8
08
08
F8
88
88
F8
ENDCHAR
STARTCHAR 04D4
ENCODING 1236
SWIDTH 864 0
DWIDTH 12 0
BBX 12 10 0 0
BITMAP
03F0
07F0
0D00
0900
19F0
11F0
3F00
7F00
4100
C1F0
ENDCHAR
STARTCHAR 04D5
ENCODING 1237
SWIDTH 792 0
DWIDTH 11 0
BBX 10 7 1 0
BITMAP
FF80
0C40
0840
FFC0
8800
8C00
FFC0
ENDCHAR
STARTCHAR 04D6
ENCODING 1238
SWIDTH 504 0
DWIDTH 7 0
BBX 6 12 1 1
BITMAP
78
00
FC
FC
C0
C0
FC
FC
C0
C0
C0
FC
ENDCHAR
STARTCHAR 04D7
ENCODING 1239
SWIDTH 504 0
DWIDTH 7 0
BBX 6 10 1 0
BITMAP
48
30
00
78
8C
84
FC
80
C0
78
ENDCHAR
STARTCHAR 04D8
ENCODING 1240
SWIDTH 648 0
DWIDTH 9 0
BBX 8 10 1 0
BITMAP
78
4E
02
03
01
FF
83
83
C6
7C
ENDCHAR
STARTCHAR 04D9
ENCODING 1241
SWIDTH 504 0
DWIDTH 7 0
BBX 6 7 1 0
BITMAP
F8
0C
04
FC
84
CC
78
ENDCHAR
STARTCHAR 04DA
ENCODING 1242
SWIDTH 648 0
DWIDTH 9 0
BBX 8 12 1 0
BITMAP
2C
00
78
4E
02
03
01
FF
83
83
C6
7C
ENDCHAR
STARTCHAR 04DB
ENCODING 1243
SWIDTH 504 0
DWIDTH 7 0
BBX 6 10 1 0
BITMAP
58
00
00
F8
0C
04
FC
84
CC
78
ENDCHAR
STARTCHAR 04DC
ENCODING 1244
SWIDTH 864 0
DWIDTH 12 0
BBX 11 12 1 0
BITMAP
1A00
0000
8460
C440
6480
3500
1700
1F00
3580
64C0
C440
8460
ENDCHAR
STARTCHAR 04DD
ENCODING 1245
SWIDTH 720 0
DWIDTH 10 0
BBX 9 10 1 0
BITMAP
3400
0000
0000
C980
4B00
2E00
3E00
6B00
C900
8880
ENDCHAR
STARTCHAR 04DE
ENCODING 1246
SWIDTH 504 0
DWIDTH 7 0
BBX 7 12 0 0
BITMAP
6C
00
78
46
06
06
3C
0C
02
02
06
FC
ENDCHAR
STARTCHAR 04DF
ENCODING 1247
SWIDTH 432 0
DWIDTH 6 0
BBX 5 10 1 0
BITMAP
D0
00
00
F8
08
18
70
08
08
F8
ENDCHAR
STARTCHAR 04E0
ENCODING 1248
SWIDTH 504 0
DWIDTH 7 0
BBX 7 10 0 0
BITMAP
7E
7E
0C
08
10
0E
02
02
06
FC
ENDCHAR
STARTCHAR 04E1
ENCODING 1249
SWIDTH 432 0
DWIDTH 6 0
BBX 6 10 0 -3
BITMAP
FC
08
10
20
38
0C
04
0C
F8
60
ENDCHAR
STARTCHAR 04E2
ENCODING 1250
SWIDTH 720 0
DWIDTH 10 0
BBX 8 12 1 0
BITMAP
3C
00
C1
C3
C7
CD
C9
D1
F1
E1
C1
C1
ENDCHAR
STARTCHAR 04E3
ENCODING 1251
SWIDTH 576 0
DWIDTH 8 0
BBX 6 10 1 0
BITMAP
78
00
00
8C
8C
94
A4
A4
C4
C4
ENDCHAR
STARTCHAR 04E4
ENCODING 1252
SWIDTH 720 0
DWIDTH 10 0
BBX 8 12 1 0
BITMAP
34
00
C1
C3
C7
CD
C9
D1
F1
E1
C1
C1
ENDCHAR
STARTCHAR 04E5
ENCODING 1253
SWIDTH 576 0
DWIDTH 8 0
BBX 6 10 1 0
BITMAP
68
00
00
8C
8C
94
A4
A4
C4
C4
ENDCHAR
STARTCHAR 04E6
ENCODING 1254
SWIDTH 720 0
DWIDTH 10 0
BBX 9 12 1 0
BITMAP
3600
0000
1C00
6700
C100
8180
8080
8080
8180
C180
6300
3E00
ENDCHAR
STARTCHAR 04E7
ENCODING 1255
SWIDTH 576 0
DWIDTH 8 0
BBX 6 10 1 0
BITMAP
68
00
00
78
C4
84
84
84
CC
78
ENDCHAR
STARTCHAR 04E8
ENCODING 1256
SWIDTH 720 0
DWIDTH 10 0
BBX 9 10 1 0
BITMAP
1C00
6700
C100
8180
8080
FF80
8180
C180
6300
3E00
ENDCHAR
STARTCHAR 04E9
ENCODING 1257
SWIDTH 576 0
DWIDTH 8 0
BBX 6 7 1 0
BITMAP
78
C4
84
FC
84
CC
78
ENDCHAR
STARTCHAR 04EA
ENCODING 1258
SWIDTH 720 0
DWIDTH 10 0
BBX 9 12 1 0
BITMAP
3600
0000
1C00
6700
C100
8180
8080
FF80
8180
C180
6300
3E00
ENDCHAR
STARTCHAR 04EB
ENCODING 1259
SWIDTH 576 0
DWIDTH 8 0
BBX 6 10 1 0
BITMAP
68
00
00
78
C4
84
FC
84
CC
78
ENDCHAR
STARTCHAR 04EC
ENCODING 1260
SWIDTH 576 0
DWIDTH 8 0
BBX 8 12 0 0
BITMAP
6C
00
78
4E
02
03
03
3F
03
02
06
FC
ENDCHAR
STARTCHAR 04ED
ENCODING 1261
SWIDTH 432 0
DWIDTH 6 0
BBX 5 10 1 0
BITMAP
B0
00
00
F0
18
08
78
08
18
F0
ENDCHAR
STARTCHAR 04EE
ENCODING 1262
SWIDTH 576 0
DWIDTH 8 0
BBX 8 12 0 0
BITMAP
3C
00
C1
43
62
22
36
14
1C
08
18
70
ENDCHAR
STARTCHAR 04EF
ENCODING 1263
SWIDTH 432 0
DWIDTH 6 0
BBX 6 13 0 -3
BITMAP
3C
00
00
C4
44
44
6C
28
38
18
10
A0
C0
ENDCHAR
STARTCHAR 04F0
ENCODING 1264
SWIDTH 576 0
DWIDTH 8 0
BBX 8 12 0 0
BITMAP
34
00
C1
43
62
22
36
14
1C
08
18
70
ENDCHAR
STARTCHAR 04F1
ENCODING 1265
SWIDTH 432 0
DWIDTH 6 0
BBX 6 13 0 -3
BITMAP
2C
00
00
C4
44
44
6C
28
38
18
10
A0
C0
ENDCHAR
STARTCHAR 04F2
ENCODING 1266
SWIDTH 576 0
DWIDTH 8 0
BBX 8 13 0 0
BITMAP
0A
16
04
C1
43
62
22
36
14
1C
08
18
70
ENDCHAR
STARTCHAR 04F3
ENCODING 1267
SWIDTH 432 0
DWIDTH 6 0
BBX 6 14 0 -3
BITMAP
10
14
28
00
C4
44
44
6C
28
38
18
10
A0
C0
ENDCHAR
STARTCHAR 04F4
ENCODING 1268
SWIDTH 576 0
DWIDTH 8 0
BBX 7 12 1 0
BITMAP
68
00
86
86
86
86
86
FE
3E
06
06
06
ENDCHAR
STARTCHAR 04F5
ENCODING 1269
SWIDTH 504 0
DWIDTH 7 0
BBX 5 10 1 0
BITMAP
D8
00
00
88
88
88
F8
08
08
08
ENDCHAR
STARTCHAR 04F6
ENCODING 1270
SWIDTH 504 0
DWIDTH 7 0
BBX 6 13 1 -3
BITMAP
FC
FC
C0
C0
C0
C0
C0
C0
C0
E0
60
60
60
ENDCHAR
STARTCHAR 04F7
ENCODING 1271
SWIDTH 360 0
DWIDTH 5 0
BBX 5 9 1 -2
BITMAP
F8
80
80
80
80
80
C0
40
40
ENDCHAR
STARTCHAR 04F8
ENCODING 1272
SWIDTH 792 0
DWIDTH 11 0
BBX 10 12 1 0
BITMAP
1600
0000
C0C0
C0C0
C0C0
C0C0
FCC0
C6C0
C6C0
C6C0
C6C0
F8C0
ENDCHAR
STARTCHAR 04F9
ENCODING 1273
SWIDTH 720 0
DWIDTH 10 0
BBX 8 10 1 0
BITMAP
34
00
00
81
81
B1
D9
8D
8D
F9
ENDCHAR
STARTCHAR 1E80
ENCODING 7808
SWIDTH 864 0
DWIDTH 12 0
BBX 12 13 0 0
BITMAP
0400
0600
0200
C010
4010
4210
4710
6530
6520
29A0
28A0
38E0
1040
ENDCHAR
STARTCHAR 1E81
ENCODING 7809
SWIDTH 720 0
DWIDTH 10 0
BBX 10 11 0 0
BITMAP
0800
0C00
0400
0000
C440
4C40
4A40
6A80
2A80
3380
3100
ENDCHAR
STARTCHAR 1E82
ENCODING 7810
SWIDTH 864 0
DWIDTH 12 0
BBX 12 13 0 0
BITMAP
0100
0200
0000
C010
4010
4210
4710
6530
6520
29A0
28A0
38E0
1040
ENDCHAR
STARTCHAR 1E83
ENCODING 7811
SWIDTH 720 0
DWIDTH 10 0
BBX 10 11 0 0
BITMAP
0200
0600
0400
0000
C440
4C40
4A40
6A80
2A80
3380
3100
ENDCHAR
STARTCHAR 1E84
ENCODING 7812
SWIDTH 864 0
DWIDTH 12 0
BBX 12 12 0 0
BITMAP
0D80
0000
C010
4010
4210
4710
6530
6520
29A0
28A0
38E0
1040
ENDCHAR
STARTCHAR 1E85
ENCODING 7813
SWIDTH 720 0
DWIDTH 10 0
BBX 10 10 0 0
BITMAP
1B00
0000
0000
C440
4C40
4A40
6A80
2A80
3380
3100
ENDCHAR
STARTCHAR 1EF2
ENCODING 7922
SWIDTH 576 0
DWIDTH 8 0
BBX 8 13 0 0
BITMAP
10
18
08
C1
43
62
24
3C
18
18
18
18
18
ENDCHAR
STARTCHAR 1EF3
ENCODING 7923
SWIDTH 432 0
DWIDTH 6 0
BBX 6 13 0 -2
BITMAP
30
10
00
C4
44
44
6C
28
38
18
10
A0
C0
ENDCHAR
STARTCHAR 1F00
ENCODING 7936
SWIDTH 576 0
DWIDTH 8 0
BBX 7 11 1 0
BITMAP
10
10
20
00
7C
C4
84
84
84
C4
7E
ENDCHAR
STARTCHAR 1F01
ENCODING 7937
SWIDTH 576 0
DWIDTH 8 0
BBX 7 11 1 0
BITMAP
30
20
10
00
7C
C4
84
84
84
C4
7E
ENDCHAR
STARTCHAR 1F02
ENCODING 7938
SWIDTH 576 0
DWIDTH 8 0
BBX 7 11 1 0
BITMAP
60
28
44
00
7C
C4
84
84
84
C4
7E
ENDCHAR
STARTCHAR 1F03
ENCODING 7939
SWIDTH 576 0
DWIDTH 8 0
BBX 7 11 1 0
BITMAP
50
50
48
00
7C
C4
84
84
84
C4
7E
ENDCHAR
STARTCHAR 1F04
ENCODING 7940
SWIDTH 576 0
DWIDTH 8 0
BBX 7 11 1 0
BITMAP
24
28
28
00
7C
C4
84
84
84
C4
7E
ENDCHAR
STARTCHAR 1F05
ENCODING 7941
SWIDTH 576 0
DWIDTH 8 0
BBX 7 11 1 0
BITMAP
48
48
30
00
7C
C4
84
84
84
C4
7E
ENDCHAR
STARTCHAR 1F06
ENCODING 7942
SWIDTH 576 0
DWIDTH 8 0
BBX 7 12 1 0
BITMAP
38
48
10
20
00
7C
C4
84
84
84
C4
7E
ENDCHAR
STARTCHAR 1F07
ENCODING 7943
SWIDTH 576 0
DWIDTH 8 0
BBX 7 12 1 0
BITMAP
38
48
30
10
00
7C
C4
84
84
84
C4
7E
ENDCHAR
STARTCHAR 1F08
ENCODING 7944
SWIDTH 648 0
DWIDTH 9 0
BBX 9 10 0 0
BITMAP
6800
7C00
5400
1600
2200
2200
7F00
7F00
4180
C180
ENDCHAR
STARTCHAR 1F09
ENCODING 7945
SWIDTH 648 0
DWIDTH 9 0
BBX 9 10 0 0
BITMAP
C800
DC00
5400
1600
2200
2200
7F00
7F00
4180
C180
ENDCHAR
STARTCHAR 1F0A
ENCODING 7946
SWIDTH 720 0
DWIDTH 10 0
BBX 12 10 -1 0
BITMAP
5100
5B00
8B80
0680
04C0
0C40
0FC0
0FE0
1820
1030
ENDCHAR
STARTCHAR 1F0B
ENCODING 7947
SWIDTH 720 0
DWIDTH 10 0
BBX 10 10 0 0
BITMAP
A600
A600
9F00
0900
0900
1980
1F80
3FC0
2040
2040
ENDCHAR
STARTCHAR 1F0C
ENCODING 7948
SWIDTH 720 0
DWIDTH 10 0
BBX 11 10 -1 0
BITMAP
4200
5700
F500
0D00
0880
0880
1FC0
1FC0
1040
3060
ENDCHAR
STARTCHAR 1F0D
ENCODING 7949
SWIDTH 720 0
DWIDTH 10 0
BBX 10 10 0 0
BITMAP
9600
B600
AE00
0B00
1900
1180
1F80
3F80
20C0
2040
ENDCHAR
STARTCHAR 1F0E
ENCODING 7950
SWIDTH 648 0
DWIDTH 9 0
BBX 10 11 -1 0
BITMAP
6000
9400
2E00
2A00
0B00
1100
1100
3F80
3F80
20C0
60C0
ENDCHAR
STARTCHAR 1F0F
ENCODING 7951
SWIDTH 648 0
DWIDTH 9 0
BBX 10 11 -1 0
BITMAP
6000
9400
2600
2A00
0B00
1900
1180
1F80
3F80
20C0
6040
ENDCHAR
STARTCHAR 1F10
ENCODING 7952
SWIDTH 432 0
DWIDTH 6 0
BBX 6 11 1 0
BITMAP
30
10
20
00
F8
80
C0
70
80
80
FC
ENDCHAR
STARTCHAR 1F11
ENCODING 7953
SWIDTH 432 0
DWIDTH 6 0
BBX 6 11 1 0
BITMAP
20
20
10
00
F8
80
C0
70
80
80
FC
ENDCHAR
STARTCHAR 1F12
ENCODING 7954
SWIDTH 432 0
DWIDTH 6 0
BBX 6 11 1 0
BITMAP
50
58
C8
00
F8
80
C0
70
80
80
FC
ENDCHAR
STARTCHAR 1F13
ENCODING 7955
SWIDTH 432 0
DWIDTH 6 0
BBX 6 11 1 0
BITMAP
C0
90
48
00
F8
80
C0
70
80
80
FC
ENDCHAR
STARTCHAR 1F14
ENCODING 7956
SWIDTH 432 0
DWIDTH 6 0
BBX 6 11 1 0
BITMAP
28
28
50
00
F8
80
C0
70
80
80
FC
ENDCHAR
STARTCHAR 1F15
ENCODING 7957
SWIDTH 432 0
DWIDTH 6 0
BBX 6 11 1 0
BITMAP
48
58
50
00
F8
80
C0
70
80
80
FC
ENDCHAR
STARTCHAR 1F18
ENCODING 7960
SWIDTH 576 0
DWIDTH 8 0
BBX 9 10 -1 0
BITMAP
5F80
5F80
D000
1000
1F00
1F00
1000
1000
1000
1F80
ENDCHAR
STARTCHAR 1F19
ENCODING 7961
SWIDTH 576 0
DWIDTH 8 0
BBX 8 10 0 0
BITMAP
BF
BF
A0
20
3E
3E
20
20
20
3F
ENDCHAR
STARTCHAR 1F1A
ENCODING 7962
SWIDTH 792 0
DWIDTH 11 0
BBX 12 10 -1 0
BITMAP
53F0
5BF0
8A00
0200
03E0
03E0
0200
0200
0200
03F0
ENDCHAR
STARTCHAR 1F1B
ENCODING 7963
SWIDTH 792 0
DWIDTH 11 0
BBX 11 10 0 0
BITMAP
AFC0
AFC0
9C00
0C00
0FC0
0FC0
0C00
0C00
0C00
0FE0
ENDCHAR
STARTCHAR 1F1C
ENCODING 7964
SWIDTH 792 0
DWIDTH 11 0
BBX 12 10 -1 0
BITMAP
47E0
57E0
F600
0600
07E0
07E0
0600
0600
0600
07F0
ENDCHAR
STARTCHAR 1F1D
ENCODING 7965
SWIDTH 792 0
DWIDTH 11 0
BBX 11 10 0 0
BITMAP
97E0
B7E0
A400
0400
07C0
07C0
0400
0400
0400
07E0
ENDCHAR
STARTCHAR 1F20
ENCODING 7968
SWIDTH 504 0
DWIDTH 7 0
BBX 6 14 1 -3
BITMAP
10
10
20
00
F8
8C
84
84
84
84
84
04
04
04
ENDCHAR
STARTCHAR 1F21
ENCODING 7969
SWIDTH 504 0
DWIDTH 7 0
BBX 6 14 1 -3
BITMAP
20
20
10
00
F8
8C
84
84
84
84
84
04
04
04
ENDCHAR
STARTCHAR 1F22
ENCODING 7970
SWIDTH 504 0
DWIDTH 7 0
BBX 6 14 1 -3
BITMAP
70
68
48
00
F8
8C
84
84
84
84
84
04
04
04
ENDCHAR
STARTCHAR 1F23
ENCODING 7971
SWIDTH 504 0
DWIDTH 7 0
BBX 6 14 1 -3
BITMAP
50
50
48
00
F8
8C
84
84
84
84
84
04
04
04
ENDCHAR
STARTCHAR 1F24
ENCODING 7972
SWIDTH 504 0
DWIDTH 7 0
BBX 6 14 1 -3
BITMAP
20
28
50
00
F8
8C
84
84
84
84
84
04
04
04
ENDCHAR
STARTCHAR 1F25
ENCODING 7973
SWIDTH 504 0
DWIDTH 7 0
BBX 6 14 1 -3
BITMAP
48
48
30
00
F8
8C
84
84
84
84
84
04
04
04
ENDCHAR
STARTCHAR 1F26
ENCODING 7974
SWIDTH 504 0
DWIDTH 7 0
BBX 6 15 1 -3
BITMAP
78
48
30
20
00
F8
8C
84
84
84
84
84
04
04
04
ENDCHAR
STARTCHAR 1F27
ENCODING 7975
SWIDTH 504 0
DWIDTH 7 0
BBX 6 15 1 -3
BITMAP
78
48
30
10
00
F8
8C
84
84
84
84
84
04
04
04
ENDCHAR
STARTCHAR 1F28
ENCODING 7976
SWIDTH 720 0
DWIDTH 10 0
BBX 10 10 -1 0
BITMAP
5040
5040
D040
1040
1FC0
1FC0
1040
1040
1040
1040
ENDCHAR
STARTCHAR 1F29
ENCODING 7977
SWIDTH 720 0
DWIDTH 10 0
BBX 9 10 0 0
BITMAP
A080
A080
A080
2080
3F80
3F80
2080
2080
2080
2080
ENDCHAR
STARTCHAR 1F2A
ENCODING 7978
SWIDTH 936 0
DWIDTH 13 0
BBX 13 10 -1 0
BITMAP
5208
5A08
8A08
0208
03F8
03F8
0208
0208
0208
0208
ENDCHAR
STARTCHAR 1F2B
ENCODING 7979
SWIDTH 936 0
DWIDTH 13 0
BBX 12 10 0 0
BITMAP
AC10
AC10
9C10
0C10
0FF0
0FF0
0C10
0C10
0C10
0C10
ENDCHAR
STARTCHAR 1F2C
ENCODING 7980
SWIDTH 936 0
DWIDTH 13 0
BBX 13 10 -1 0
BITMAP
4618
5618
F618
0618
07F8
07F8
0618
0618
0618
0618
ENDCHAR
STARTCHAR 1F2D
ENCODING 7981
SWIDTH 936 0
DWIDTH 13 0
BBX 12 10 0 0
BITMAP
9410
B410
A410
0410
07F0
07F0
0410
0410
0410
0410
ENDCHAR
STARTCHAR 1F2E
ENCODING 7982
SWIDTH 864 0
DWIDTH 12 0
BBX 12 11 -1 0
BITMAP
6000
9410
2410
2410
0410
07F0
07F0
0410
0410
0410
0410
ENDCHAR
STARTCHAR 1F2F
ENCODING 7983
SWIDTH 864 0
DWIDTH 12 0
BBX 12 11 -1 0
BITMAP
6000
9410
2410
2410
0410
07F0
07F0
0410
0410
0410
0410
ENDCHAR
STARTCHAR 1F30
ENCODING 7984
SWIDTH 216 0
DWIDTH 3 0
BBX 2 11 1 0
BITMAP
C0
40
80
00
80
80
80
80
80
80
C0
ENDCHAR
STARTCHAR 1F31
ENCODING 7985
SWIDTH 216 0
DWIDTH 3 0
BBX 2 11 1 0
BITMAP
80
80
40
00
80
80
80
80
80
80
C0
ENDCHAR
STARTCHAR 1F32
ENCODING 7986
SWIDTH 216 0
DWIDTH 3 0
BBX 5 11 -1 0
BITMAP
50
58
C8
00
20
20
20
20
20
20
30
ENDCHAR
STARTCHAR 1F33
ENCODING 7987
SWIDTH 216 0
DWIDTH 3 0
BBX 5 11 -1 0
BITMAP
C0
90
48
00
20
20
20
20
20
20
30
ENDCHAR
STARTCHAR 1F34
ENCODING 7988
SWIDTH 216 0
DWIDTH 3 0
BBX 4 11 0 0
BITMAP
50
50
A0
00
40
40
40
40
40
40
60
ENDCHAR
STARTCHAR 1F35
ENCODING 7989
SWIDTH 216 0
DWIDTH 3 0
BBX 4 11 0 0
BITMAP
90
B0
A0
00
40
40
40
40
40
40
60
ENDCHAR
STARTCHAR 1F36
ENCODING 7990
SWIDTH 216 0
DWIDTH 3 0
BBX 4 12 0 0
BITMAP
E0
90
60
40
00
40
40
40
40
40
40
60
ENDCHAR
STARTCHAR 1F37
ENCODING 7991
SWIDTH 216 0
DWIDTH 3 0
BBX 4 12 0 0
BITMAP
E0
90
40
20
00
40
40
40
40
40
40
60
ENDCHAR
STARTCHAR 1F38
ENCODING 7992
SWIDTH 288 0
DWIDTH 4 0
BBX 4 10 -1 0
BITMAP
50
50
D0
10
10
10
10
10
10
10
ENDCHAR
STARTCHAR 1F39
ENCODING 7993
SWIDTH 288 0
DWIDTH 4 0
BBX 3 10 0 0
BITMAP
A0
A0
A0
20
20
20
20
20
20
20
ENDCHAR
STARTCHAR 1F3A
ENCODING 7994
SWIDTH 504 0
DWIDTH 7 0
BBX 7 10 -1 0
BITMAP
52
5A
8A
02
02
02
02
02
02
02
ENDCHAR
STARTCHAR 1F3B
ENCODING 7995
SWIDTH 504 0
DWIDTH 7 0
BBX 6 10 0 0
BITMAP
AC
AC
9C
0C
0C
0C
0C
0C
0C
0C
ENDCHAR
STARTCHAR 1F3C
ENCODING 7996
SWIDTH 432 0
DWIDTH 6 0
BBX 7 10 -1 0
BITMAP
46
56
F6
06
06
06
06
06
06
06
ENDCHAR
STARTCHAR 1F3D
ENCODING 7997
SWIDTH 504 0
DWIDTH 7 0
BBX 6 10 0 0
BITMAP
94
B4
A4
04
04
04
04
04
04
04
ENDCHAR
STARTCHAR 1F3E
ENCODING 7998
SWIDTH 432 0
DWIDTH 6 0
BBX 6 11 -1 0
BITMAP
60
94
24
24
04
04
04
04
04
04
04
ENDCHAR
STARTCHAR 1F3F
ENCODING 7999
SWIDTH 432 0
DWIDTH 6 0
BBX 6 11 -1 0
BITMAP
60
94
24
24
04
04
04
04
04
04
04
ENDCHAR
STARTCHAR 1F40
ENCODING 8000
SWIDTH 576 0
DWIDTH 8 0
BBX 6 11 1 0
BITMAP
10
10
20
00
78
C4
84
84
84
CC
78
ENDCHAR
STARTCHAR 1F41
ENCODING 8001
SWIDTH 576 0
DWIDTH 8 0
BBX 6 11 1 0
BITMAP
30
20
10
00
78
C4
84
84
84
CC
78
ENDCHAR
STARTCHAR 1F42
ENCODING 8002
SWIDTH 576 0
DWIDTH 8 0
BBX 6 11 1 0
BITMAP
60
68
4C
00
78
C4
84
84
84
CC
78
ENDCHAR
STARTCHAR 1F43
ENCODING 8003
SWIDTH 576 0
DWIDTH 8 0
BBX 6 11 1 0
BITMAP
50
50
48
00
78
C4
84
84
84
CC
78
ENDCHAR
STARTCHAR 1F44
ENCODING 8004
SWIDTH 576 0
DWIDTH 8 0
BBX 6 11 1 0
BITMAP
20
28
58
00
78
C4
84
84
84
CC
78
ENDCHAR
STARTCHAR 1F45
ENCODING 8005
SWIDTH 576 0
DWIDTH 8 0
BBX 6 11 1 0
BITMAP
48
48
30
00
78
C4
84
84
84
CC
78
ENDCHAR
STARTCHAR 1F48
ENCODING 8008
SWIDTH 720 0
DWIDTH 10 0
BBX 11 10 -1 0
BITMAP
4700
58C0
D060
3060
2020
2020
3020
3060
18C0
0F80
ENDCHAR
STARTCHAR 1F49
ENCODING 8009
SWIDTH 792 0
DWIDTH 11 0
BBX 11 10 0 0
BITMAP
8F00
9980
B0C0
2040
6060
6060
2060
2040
30C0
0F80
ENDCHAR
STARTCHAR 1F4A
ENCODING 8010
SWIDTH 1008 0
DWIDTH 14 0
BBX 14 10 -1 0
BITMAP
50F0
5B98
8A0C
0604
0604
0604
0604
020C
0318
01F0
ENDCHAR
STARTCHAR 1F4B
ENCODING 8011
SWIDTH 936 0
DWIDTH 13 0
BBX 13 10 0 0
BITMAP
A1C0
A630
9C10
0C18
0808
0808
0818
0C18
0630
03E0
ENDCHAR
STARTCHAR 1F4C
ENCODING 8012
SWIDTH 936 0
DWIDTH 13 0
BBX 13 10 -1 0
BITMAP
41E0
5730
F418
0C08
0C08
0808
0C08
0C18
0630
03E0
ENDCHAR
STARTCHAR 1F4D
ENCODING 8013
SWIDTH 936 0
DWIDTH 13 0
BBX 13 10 0 0
BITMAP
93C0
B660
AC30
0810
1818
1818
0818
0810
0C30
03E0
ENDCHAR
STARTCHAR 1F50
ENCODING 8016
SWIDTH 576 0
DWIDTH 8 0
BBX 6 11 1 0
BITMAP
10
10
20
00
84
84
84
84
84
CC
78
ENDCHAR
STARTCHAR 1F51
ENCODING 8017
SWIDTH 576 0
DWIDTH 8 0
BBX 6 11 1 0
BITMAP
20
20
10
00
84
84
84
84
84
CC
78
ENDCHAR
STARTCHAR 1F52
ENCODING 8018
SWIDTH 576 0
DWIDTH 8 0
BBX 6 11 1 0
BITMAP
50
48
48
00
84
84
84
84
84
CC
78
ENDCHAR
STARTCHAR 1F53
ENCODING 8019
SWIDTH 576 0
DWIDTH 8 0
BBX 6 11 1 0
BITMAP
50
50
48
00
84
84
84
84
84
CC
78
ENDCHAR
STARTCHAR 1F54
ENCODING 8020
SWIDTH 576 0
DWIDTH 8 0
BBX 6 11 1 0
BITMAP
20
28
50
00
84
84
84
84
84
CC
78
ENDCHAR
STARTCHAR 1F55
ENCODING 8021
SWIDTH 576 0
DWIDTH 8 0
BBX 6 11 1 0
BITMAP
48
48
30
00
84
84
84
84
84
CC
78
ENDCHAR
STARTCHAR 1F56
ENCODING 8022
SWIDTH 576 0
DWIDTH 8 0
BBX 6 12 1 0
BITMAP
78
48
30
20
00
84
84
84
84
84
CC
78
ENDCHAR
STARTCHAR 1F57
ENCODING 8023
SWIDTH 576 0
DWIDTH 8 0
BBX 6 12 1 0
BITMAP
78
48
30
10
00
84
84
84
84
84
CC
78
ENDCHAR
STARTCHAR 1F59
ENCODING 8025
SWIDTH 648 0
DWIDTH 9 0
BBX 10 10 0 0
BITMAP
A0C0
B080
9100
1900
0A00
0600
0400
0400
0400
0400
ENDCHAR
STARTCHAR 1F5B
ENCODING 8027
SWIDTH 864 0
DWIDTH 12 0
BBX 12 10 0 0
BITMAP
A830
AC20
9460
0240
03C0
0180
0180
0180
0180
0180
ENDCHAR
STARTCHAR 1F5D
ENCODING 8029
SWIDTH 864 0
DWIDTH 12 0
BBX 13 10 0 0
BITMAP
9418
B610
A220
0320
0140
00C0
0080
0080
0080
0080
ENDCHAR
STARTCHAR 1F5F
ENCODING 8031
SWIDTH 792 0
DWIDTH 11 0
BBX 13 11 -1 0
BITMAP
6000
9418
2610
2220
0320
0140
00C0
0080
0080
0080
0080
ENDCHAR
STARTCHAR 1F60
ENCODING 8032
SWIDTH 792 0
DWIDTH 11 0
BBX 10 11 1 0
BITMAP
0C00
0400
0800
0000
4080
C880
88C0
8840
8CC0
CCC0
7780
ENDCHAR
STARTCHAR 1F61
ENCODING 8033
SWIDTH 792 0
DWIDTH 11 0
BBX 10 11 1 0
BITMAP
0800
0800
0400
0000
4080
C880
88C0
8840
8CC0
CCC0
7780
ENDCHAR
STARTCHAR 1F62
ENCODING 8034
SWIDTH 792 0
DWIDTH 11 0
BBX 10 11 1 0
BITMAP
1400
1600
1200
0000
4080
C880
88C0
8840
8CC0
CCC0
7780
ENDCHAR
STARTCHAR 1F63
ENCODING 8035
SWIDTH 792 0
DWIDTH 11 0
BBX 10 11 1 0
BITMAP
3000
2400
1200
0000
4080
C880
88C0
8840
8CC0
CCC0
7780
ENDCHAR
STARTCHAR 1F64
ENCODING 8036
SWIDTH 792 0
DWIDTH 11 0
BBX 10 11 1 0
BITMAP
0A00
0A00
1400
0000
4080
C880
88C0
8840
8CC0
CCC0
7780
ENDCHAR
STARTCHAR 1F65
ENCODING 8037
SWIDTH 792 0
DWIDTH 11 0
BBX 10 11 1 0
BITMAP
1200
1600
1400
0000
4080
C880
88C0
8840
8CC0
CCC0
7780
ENDCHAR
STARTCHAR 1F66
ENCODING 8038
SWIDTH 792 0
DWIDTH 11 0
BBX 10 12 1 0
BITMAP
1C00
1200
0C00
0800
0000
4080
C880
88C0
8840
8CC0
CCC0
7780
ENDCHAR
STARTCHAR 1F67
ENCODING 8039
SWIDTH 792 0
DWIDTH 11 0
BBX 10 12 1 0
BITMAP
1C00
1200
0800
0400
0000
4080
C880
88C0
8840
8CC0
CCC0
7780
ENDCHAR
STARTCHAR 1F68
ENCODING 8040
SWIDTH 720 0
DWIDTH 10 0
BBX 11 10 -1 0
BITMAP
4700
58C0
D060
3060
2020
2020
3060
1040
18C0
3CE0
ENDCHAR
STARTCHAR 1F69
ENCODING 8041
SWIDTH 792 0
DWIDTH 11 0
BBX 11 10 0 0
BITMAP
8F00
9980
B0C0
2040
2060
2040
2040
30C0
1080
79E0
ENDCHAR
STARTCHAR 1F6A
ENCODING 8042
SWIDTH 1008 0
DWIDTH 14 0
BBX 14 10 -1 0
BITMAP
50E0
5B98
8A0C
0604
0604
0604
060C
0208
0118
079C
ENDCHAR
STARTCHAR 1F6B
ENCODING 8043
SWIDTH 936 0
DWIDTH 13 0
BBX 13 10 0 0
BITMAP
A1C0
A630
9C10
0C18
0808
0808
0C18
0410
0630
0E78
ENDCHAR
STARTCHAR 1F6C
ENCODING 8044
SWIDTH 936 0
DWIDTH 13 0
BBX 13 10 -1 0
BITMAP
41C0
5730
F418
0C08
0C08
0C08
0C18
0410
0230
0F38
ENDCHAR
STARTCHAR 1F6D
ENCODING 8045
SWIDTH 936 0
DWIDTH 13 0
BBX 13 10 0 0
BITMAP
93C0
B660
AC30
0810
0818
0810
0810
0C30
0420
1E78
ENDCHAR
STARTCHAR 1F6E
ENCODING 8046
SWIDTH 864 0
DWIDTH 12 0
BBX 12 11 -1 0
BITMAP
6000
9380
2E60
2830
1810
1810
1810
1830
0820
0460
1E70
ENDCHAR
STARTCHAR 1F6F
ENCODING 8047
SWIDTH 864 0
DWIDTH 12 0
BBX 13 11 -1 0
BITMAP
6000
93C0
2660
2C30
0810
0818
0810
0810
0C30
0420
1E78
ENDCHAR
STARTCHAR 1F70
ENCODING 8048
SWIDTH 576 0
DWIDTH 8 0
BBX 7 10 1 1
BITMAP
30
10
00
7C
C4
84
84
84
C4
7E
ENDCHAR
STARTCHAR 1F71
ENCODING 8049
SWIDTH 576 0
DWIDTH 8 0
BBX 7 11 1 0
BITMAP
08
18
20
00
7C
C4
84
84
84
C4
7E
ENDCHAR
STARTCHAR 1F72
ENCODING 8050
SWIDTH 432 0
DWIDTH 6 0
BBX 6 11 1 0
BITMAP
40
60
10
00
F8
80
C0
70
80
80
FC
ENDCHAR
STARTCHAR 1F73
ENCODING 8051
SWIDTH 432 0
DWIDTH 6 0
BBX 6 10 1 1
BITMAP
30
20
00
F8
80
C0
70
80
80
FC
ENDCHAR
STARTCHAR 1F74
ENCODING 8052
SWIDTH 504 0
DWIDTH 7 0
BBX 6 13 1 -2
BITMAP
20
10
00
F8
8C
84
84
84
84
84
04
04
04
ENDCHAR
STARTCHAR 1F75
ENCODING 8053
SWIDTH 504 0
DWIDTH 7 0
BBX 6 13 1 -2
BITMAP
10
20
00
F8
8C
84
84
84
84
84
04
04
04
ENDCHAR
STARTCHAR 1F76
ENCODING 8054
SWIDTH 216 0
DWIDTH 3 0
BBX 3 11 0 0
BITMAP
80
C0
20
00
40
40
40
40
40
40
60
ENDCHAR
STARTCHAR 1F77
ENCODING 8055
SWIDTH 216 0
DWIDTH 3 0
BBX 2 10 1 1
BITMAP
C0
80
00
80
80
80
80
80
80
C0
ENDCHAR
STARTCHAR 1F78
ENCODING 8056
SWIDTH 576 0
DWIDTH 8 0
BBX 6 10 1 1
BITMAP
20
10
00
78
C4
84
84
84
CC
78
ENDCHAR
STARTCHAR 1F79
ENCODING 8057
SWIDTH 576 0
DWIDTH 8 0
BBX 6 10 1 1
BITMAP
18
20
00
78
C4
84
84
84
CC
78
ENDCHAR
STARTCHAR 1F7A
ENCODING 8058
SWIDTH 576 0
DWIDTH 8 0
BBX 6 10 1 1
BITMAP
20
10
00
84
84
84
84
84
CC
78
ENDCHAR
STARTCHAR 1F7B
ENCODING 8059
SWIDTH 576 0
DWIDTH 8 0
BBX 6 10 1 1
BITMAP
10
20
00
84
84
84
84
84
CC
78
ENDCHAR
STARTCHAR 1F7C
ENCODING 8060
SWIDTH 792 0
DWIDTH 11 0
BBX 10 11 1 0
BITMAP
1000
1800
0400
0000
4080
C880
88C0
8840
8CC0
CCC0
7780
ENDCHAR
STARTCHAR 1F7D
ENCODING 8061
SWIDTH 792 0
DWIDTH 11 0
BBX 10 10 1 1
BITMAP
0C00
0800
0000
4080
C880
88C0
8840
8CC0
CCC0
7780
ENDCHAR
STARTCHAR 1F80
ENCODING 8064
SWIDTH 576 0
DWIDTH 8 0
BBX 7 14 1 -3
BITMAP
10
10
20
00
7C
C4
84
84
84
C4
7E
00
10
08
ENDCHAR
STARTCHAR 1F81
ENCODING 8065
SWIDTH 576 0
DWIDTH 8 0
BBX 7 14 1 -3
BITMAP
30
20
10
00
7C
C4
84
84
84
C4
7E
00
10
08
ENDCHAR
STARTCHAR 1F82
ENCODING 8066
SWIDTH 576 0
DWIDTH 8 0
BBX 7 14 1 -3
BITMAP
60
28
44
00
7C
C4
84
84
84
C4
7E
00
10
08
ENDCHAR
STARTCHAR 1F83
ENCODING 8067
SWIDTH 576 0
DWIDTH 8 0
BBX 7 14 1 -3
BITMAP
50
50
48
00
7C
C4
84
84
84
C4
7E
00
10
08
ENDCHAR
STARTCHAR 1F84
ENCODING 8068
SWIDTH 576 0
DWIDTH 8 0
BBX 7 14 1 -3
BITMAP
24
28
28
00
7C
C4
84
84
84
C4
7E
00
10
08
ENDCHAR
STARTCHAR 1F85
ENCODING 8069
SWIDTH 576 0
DWIDTH 8 0
BBX 7 14 1 -3
BITMAP
48
48
30
00
7C
C4
84
84
84
C4
7E
00
10
08
ENDCHAR
STARTCHAR 1F86
ENCODING 8070
SWIDTH 576 0
DWIDTH 8 0
BBX 7 15 1 -3
BITMAP
38
48
10
20
00
7C
C4
84
84
84
C4
7E
00
10
08
ENDCHAR
STARTCHAR 1F87
ENCODING 8071
SWIDTH 576 0
DWIDTH 8 0
BBX 7 15 1 -3
BITMAP
38
48
30
10
00
7C
C4
84
84
84
C4
7E
00
10
08
ENDCHAR
STARTCHAR 1F88
ENCODING 8072
SWIDTH 936 0
DWIDTH 13 0
BBX 13 10 0 0
BITMAP
6800
7C00
5400
1630
2230
2230
7F30
7F30
41B0
C198
ENDCHAR
STARTCHAR 1F89
ENCODING 8073
SWIDTH 936 0
DWIDTH 13 0
BBX 13 10 0 0
BITMAP
4800
5C00
5400
1630
2230
2230
7F30
7F30
41B0
C198
ENDCHAR
STARTCHAR 1F8A
ENCODING 8074
SWIDTH 1008 0
DWIDTH 14 0
BBX 15 10 -1 0
BITMAP
5100
5B00
8B80
0684
04C4
0C44
0FC4
0FE4
1824
1036
ENDCHAR
STARTCHAR 1F8B
ENCODING 8075
SWIDTH 1008 0
DWIDTH 14 0
BBX 14 10 0 0
BITMAP
A600
A600
9F00
0908
0908
1988
1F88
3FC8
2048
204C
ENDCHAR
STARTCHAR 1F8C
ENCODING 8076
SWIDTH 936 0
DWIDTH 13 0
BBX 15 10 -1 0
BITMAP
4200
5700
F500
0D0C
088C
088C
1FCC
1FCC
104C
3066
ENDCHAR
STARTCHAR 1F8D
ENCODING 8077
SWIDTH 1008 0
DWIDTH 14 0
BBX 14 10 0 0
BITMAP
9600
B600
AE00
0B08
1908
1188
1F88
3F88
20C8
204C
ENDCHAR
STARTCHAR 1F8E
ENCODING 8078
SWIDTH 936 0
DWIDTH 13 0
BBX 14 11 -1 0
BITMAP
6000
9400
2E00
2A00
0B18
1118
1118
3F98
3F98
20D8
60CC
ENDCHAR
STARTCHAR 1F8F
ENCODING 8079
SWIDTH 936 0
DWIDTH 13 0
BBX 14 11 -1 0
BITMAP
6000
9400
2600
2A00
0B18
1918
1198
1F98
3F98
20C8
604C
ENDCHAR
STARTCHAR 1F90
ENCODING 8080
SWIDTH 504 0
DWIDTH 7 0
BBX 6 14 1 -3
BITMAP
10
10
20
00
F8
8C
84
84
84
84
84
04
C4
44
ENDCHAR
STARTCHAR 1F91
ENCODING 8081
SWIDTH 504 0
DWIDTH 7 0
BBX 6 14 1 -3
BITMAP
20
20
10
00
F8
8C
84
84
84
84
84
04
C4
44
ENDCHAR
STARTCHAR 1F92
ENCODING 8082
SWIDTH 504 0
DWIDTH 7 0
BBX 6 14 1 -3
BITMAP
70
68
48
00
F8
8C
84
84
84
84
84
04
C4
44
ENDCHAR
STARTCHAR 1F93
ENCODING 8083
SWIDTH 504 0
DWIDTH 7 0
BBX 6 14 1 -3
BITMAP
50
50
48
00
F8
8C
84
84
84
84
84
04
C4
44
ENDCHAR
STARTCHAR 1F94
ENCODING 8084
SWIDTH 504 0
DWIDTH 7 0
BBX 6 14 1 -3
BITMAP
20
28
50
00
F8
8C
84
84
84
84
84
04
C4
44
ENDCHAR
STARTCHAR 1F95
ENCODING 8085
SWIDTH 504 0
DWIDTH 7 0
BBX 6 14 1 -3
BITMAP
48
48
30
00
F8
8C
84
84
84
84
84
04
C4
44
ENDCHAR
STARTCHAR 1F96
ENCODING 8086
SWIDTH 504 0
DWIDTH 7 0
BBX 6 15 1 -3
BITMAP
78
48
30
20
00
F8
8C
84
84
84
84
84
04
C4
44
ENDCHAR
STARTCHAR 1F97
ENCODING 8087
SWIDTH 504 0
DWIDTH 7 0
BBX 6 15 1 -3
BITMAP
78
48
30
10
00
F8
8C
84
84
84
84
84
04
C4
44
ENDCHAR
STARTCHAR 1F98
ENCODING 8088
SWIDTH 1008 0
DWIDTH 14 0
BBX 15 10 -1 0
BITMAP
5040
5040
D040
1044
1FC4
1FC4
1044
1044
1044
1046
ENDCHAR
STARTCHAR 1F99
ENCODING 8089
SWIDTH 1008 0
DWIDTH 14 0
BBX 14 10 0 0
BITMAP
A080
A080
A080
2088
3F88
3F88
2088
2088
2088
208C
ENDCHAR
STARTCHAR 1F9A
ENCODING 8090
SWIDTH 1224 0
DWIDTH 17 0
BBX 18 10 -1 0
BITMAP
520800
5A0800
8A0800
020980
03F980
03F980
020980
020980
020980
0208C0
ENDCHAR
STARTCHAR 1F9B
ENCODING 8091
SWIDTH 1152 0
DWIDTH 16 0
BBX 17 10 0 0
BITMAP
AC1000
AC1000
9C1000
0C1300
0FF300
0FF300
0C1300
0C1300
0C1300
0C1180
ENDCHAR
STARTCHAR 1F9C
ENCODING 8092
SWIDTH 1152 0
DWIDTH 16 0
BBX 17 10 -1 0
BITMAP
461800
561800
F61800
061900
07F900
07F900
061900
061900
061980
061880
ENDCHAR
STARTCHAR 1F9D
ENCODING 8093
SWIDTH 1224 0
DWIDTH 17 0
BBX 17 10 0 0
BITMAP
941000
B41000
A41000
041100
07F100
07F100
041100
041100
041100
041180
ENDCHAR
STARTCHAR 1F9E
ENCODING 8094
SWIDTH 1152 0
DWIDTH 16 0
BBX 17 11 -1 0
BITMAP
600000
941000
241000
241000
041300
07F300
07F300
041300
041300
041300
041180
ENDCHAR
STARTCHAR 1F9F
ENCODING 8095
SWIDTH 1152 0
DWIDTH 16 0
BBX 17 11 -1 0
BITMAP
600000
941000
241000
241000
041300
07F300
07F300
041300
041300
041300
041180
ENDCHAR
STARTCHAR 1FA0
ENCODING 8096
SWIDTH 792 0
DWIDTH 11 0
BBX 10 14 1 -3
BITMAP
0C00
0400
0800
0000
4080
C880
88C0
8840
8CC0
CCC0
7780
0000
0C00
0400
ENDCHAR
STARTCHAR 1FA1
ENCODING 8097
SWIDTH 792 0
DWIDTH 11 0
BBX 10 14 1 -3
BITMAP
0800
0800
0400
0000
4080
C880
88C0
8840
8CC0
CCC0
7780
0000
0C00
0400
ENDCHAR
STARTCHAR 1FA2
ENCODING 8098
SWIDTH 792 0
DWIDTH 11 0
BBX 10 14 1 -3
BITMAP
1400
1600
1200
0000
4080
C880
88C0
8840
8CC0
CCC0
7780
0000
0C00
0400
ENDCHAR
STARTCHAR 1FA3
ENCODING 8099
SWIDTH 792 0
DWIDTH 11 0
BBX 10 14 1 -3
BITMAP
3000
2400
1200
0000
4080
C880
88C0
8840
8CC0
CCC0
7780
0000
0C00
0400
ENDCHAR
STARTCHAR 1FA4
ENCODING 8100
SWIDTH 792 0
DWIDTH 11 0
BBX 10 14 1 -3
BITMAP
0A00
0A00
1400
0000
4080
C880
88C0
8840
8CC0
CCC0
7780
0000
0C00
0400
ENDCHAR
STARTCHAR 1FA5
ENCODING 8101
SWIDTH 792 0
DWIDTH 11 0
BBX 10 14 1 -3
BITMAP
1200
1600
1400
0000
4080
C880
88C0
8840
8CC0
CCC0
7780
0000
0C00
0400
ENDCHAR
STARTCHAR 1FA6
ENCODING 8102
SWIDTH 792 0
DWIDTH 11 0
BBX 10 15 1 -3
BITMAP
1C00
1200
0C00
0800
0000
4080
C880
88C0
8840
8CC0
CCC0
7780
0000
0C00
0400
ENDCHAR
STARTCHAR 1FA7
ENCODING 8103
SWIDTH 792 0
DWIDTH 11 0
BBX 10 15 1 -3
BITMAP
1C00
1200
0800
0400
0000
4080
C880
88C0
8840
8CC0
CCC0
7780
0000
0C00
0400
ENDCHAR
STARTCHAR 1FA8
ENCODING 8104
SWIDTH 1008 0
DWIDTH 14 0
BBX 15 10 -1 0
BITMAP
4700
58C0
D060
3064
2024
2024
3064
1044
18C4
3CE2
ENDCHAR
STARTCHAR 1FA9
ENCODING 8105
SWIDTH 1080 0
DWIDTH 15 0
BBX 15 10 0 0
BITMAP
8F00
9980
B0C0
2044
2064
2044
2044
30C4
1084
79E6
ENDCHAR
STARTCHAR 1FAA
ENCODING 8106
SWIDTH 1224 0
DWIDTH 17 0
BBX 19 10 -1 0
BITMAP
50E000
5B9800
8A0C00
0604C0
0604C0
0604C0
060CC0
0208C0
0118C0
079C60
ENDCHAR
STARTCHAR 1FAB
ENCODING 8107
SWIDTH 1224 0
DWIDTH 17 0
BBX 17 10 0 0
BITMAP
A1C000
A63000
9C1000
0C1900
080900
080900
0C1900
041100
063100
0E7980
ENDCHAR
STARTCHAR 1FAC
ENCODING 8108
SWIDTH 1152 0
DWIDTH 16 0
BBX 18 10 -1 0
BITMAP
41C000
573000
F41800
0C0980
0C0980
0C0980
0C1980
041180
023180
0F38C0
ENDCHAR
STARTCHAR 1FAD
ENCODING 8109
SWIDTH 1224 0
DWIDTH 17 0
BBX 17 10 0 0
BITMAP
93C000
B66000
AC3000
081100
081900
081100
081100
0C3100
042100
1E7980
ENDCHAR
STARTCHAR 1FAE
ENCODING 8110
SWIDTH 1080 0
DWIDTH 15 0
BBX 17 11 -1 0
BITMAP
600000
938000
2E6000
283000
181300
181300
181300
183300
082300
046300
1E7180
ENDCHAR
STARTCHAR 1FAF
ENCODING 8111
SWIDTH 1152 0
DWIDTH 16 0
BBX 17 11 -1 0
BITMAP
600000
93C000
266000
2C3000
081100
081900
081100
081100
0C3100
042100
1E7980
ENDCHAR
STARTCHAR 1FB0
ENCODING 8112
SWIDTH 576 0
DWIDTH 8 0
BBX 7 10 1 0
BITMAP
28
10
00
7C
C4
84
84
84
C4
7E
ENDCHAR
STARTCHAR 1FB1
ENCODING 8113
SWIDTH 576 0
DWIDTH 8 0
BBX 7 10 1 0
BITMAP
78
00
00
7C
C4
84
84
84
C4
7E
ENDCHAR
STARTCHAR 1FB2
ENCODING 8114
SWIDTH 576 0
DWIDTH 8 0
BBX 7 13 1 -2
BITMAP
30
10
00
7C
C4
84
84
84
C4
7E
00
10
08
ENDCHAR
STARTCHAR 1FB3
ENCODING 8115
SWIDTH 576 0
DWIDTH 8 0
BBX 7 10 1 -3
BITMAP
7C
C4
84
84
84
C4
7E
00
10
08
ENDCHAR
STARTCHAR 1FB4
ENCODING 8116
SWIDTH 576 0
DWIDTH 8 0
BBX 7 14 1 -3
BITMAP
08
18
20
00
7C
C4
84
84
84
C4
7E
00
10
08
ENDCHAR
STARTCHAR 1FB6
ENCODING 8118
SWIDTH 576 0
DWIDTH 8 0
BBX 7 10 1 0
BITMAP
38
48
00
7C
C4
84
84
84
C4
7E
ENDCHAR
STARTCHAR 1FB7
ENCODING 8119
SWIDTH 576 0
DWIDTH 8 0
BBX 7 13 1 -3
BITMAP
38
48
00
7C
C4
84
84
84
C4
7E
00
10
08
ENDCHAR
STARTCHAR 1FB8
ENCODING 8120
SWIDTH 648 0
DWIDTH 9 0
BBX 9 13 0 0
BITMAP
1000
1C00
0000
0800
1C00
1400
1600
2200
2200
7F00
7F00
4180
C180
ENDCHAR
STARTCHAR 1FB9
ENCODING 8121
SWIDTH 648 0
DWIDTH 9 0
BBX 9 12 0 0
BITMAP
1E00
0000
0800
1C00
1400
1600
2200
2200
7F00
7F00
4180
C180
ENDCHAR
STARTCHAR 1FBA
ENCODING 8122
SWIDTH 648 0
DWIDTH 9 0
BBX 9 10 0 0
BITMAP
8800
DC00
5400
1600
2200
2200
7F00
7F00
4180
C180
ENDCHAR
STARTCHAR 1FBB
ENCODING 8123
SWIDTH 648 0
DWIDTH 9 0
BBX 9 10 0 0
BITMAP
0800
5C00
9400
1600
2200
2200
7F00
7F00
4180
C180
ENDCHAR
STARTCHAR 1FBC
ENCODING 8124
SWIDTH 936 0
DWIDTH 13 0
BBX 13 10 0 0
BITMAP
0800
1C00
1400
1630
2230
2230
7F30
7F30
41B0
C198
ENDCHAR
STARTCHAR 1FBD
ENCODING 8125
SWIDTH 360 0
DWIDTH 5 0
BBX 2 3 2 8
BITMAP
C0
C0
80
ENDCHAR
STARTCHAR 1FBE
ENCODING 8126
SWIDTH 216 0
DWIDTH 3 0
BBX 2 2 1 -3
BITMAP
C0
40
ENDCHAR
STARTCHAR 1FBF
ENCODING 8127
SWIDTH 360 0
DWIDTH 5 0
BBX 2 3 2 8
BITMAP
C0
C0
80
ENDCHAR
STARTCHAR 1FC0
ENCODING 8128
SWIDTH 360 0
DWIDTH 5 0
BBX 3 2 1 8
BITMAP
E0
80
ENDCHAR
STARTCHAR 1FC1
ENCODING 8129
SWIDTH 360 0
DWIDTH 5 0
BBX 4 4 1 8
BITMAP
E0
80
90
B0
ENDCHAR
STARTCHAR 1FC2
ENCODING 8130
SWIDTH 504 0
DWIDTH 7 0
BBX 6 13 1 -2
BITMAP
20
10
00
F8
8C
84
84
84
84
84
04
C4
44
ENDCHAR
STARTCHAR 1FC3
ENCODING 8131
SWIDTH 504 0
DWIDTH 7 0
BBX 6 10 1 -3
BITMAP
F8
8C
84
84
84
84
84
04
C4
44
ENDCHAR
STARTCHAR 1FC4
ENCODING 8132
SWIDTH 504 0
DWIDTH 7 0
BBX 6 13 1 -2
BITMAP
10
20
00
F8
8C
84
84
84
84
84
04
C4
44
ENDCHAR
STARTCHAR 1FC6
ENCODING 8134
SWIDTH 504 0
DWIDTH 7 0
BBX 6 13 1 -3
BITMAP
78
48
00
F8
8C
84
84
84
84
84
04
04
04
ENDCHAR
STARTCHAR 1FC7
ENCODING 8135
SWIDTH 504 0
DWIDTH 7 0
BBX 6 13 1 -3
BITMAP
78
48
00
F8
8C
84
84
84
84
84
04
C4
44
ENDCHAR
STARTCHAR 1FC8
ENCODING 8136
SWIDTH 648 0
DWIDTH 9 0
BBX 9 10 0 0
BITMAP
9F80
9F80
5000
1000
1F00
1F00
1000
1000
1000
1F80
ENDCHAR
STARTCHAR 1FC9
ENCODING 8137
SWIDTH 648 0
DWIDTH 9 0
BBX 9 10 0 0
BITMAP
5F80
DF80
9000
1000
1F00
1F00
1000
1000
1000
1F80
ENDCHAR
STARTCHAR 1FCA
ENCODING 8138
SWIDTH 792 0
DWIDTH 11 0
BBX 10 10 0 0
BITMAP
9040
9040
5040
1040
1FC0
1FC0
1040
1040
1040
1040
ENDCHAR
STARTCHAR 1FCB
ENCODING 8139
SWIDTH 792 0
DWIDTH 11 0
BBX 10 10 0 0
BITMAP
5040
D040
9040
1040
1FC0
1FC0
1040
1040
1040
1040
ENDCHAR
STARTCHAR 1FCC
ENCODING 8140
SWIDTH 936 0
DWIDTH 13 0
BBX 12 10 1 0
BITMAP
C300
C300
C300
C320
FF20
FF20
C320
C320
C320
C330
ENDCHAR
STARTCHAR 1FCD
ENCODING 8141
SWIDTH 360 0
DWIDTH 5 0
BBX 5 3 0 8
BITMAP
50
50
88
ENDCHAR
STARTCHAR 1FCE
ENCODING 8142
SWIDTH 360 0
DWIDTH 5 0
BBX 4 3 0 8
BITMAP
40
50
B0
ENDCHAR
STARTCHAR 1FCF
ENCODING 8143
SWIDTH 360 0
DWIDTH 5 0
BBX 3 4 1 8
BITMAP
E0
80
40
40
ENDCHAR
STARTCHAR 1FD0
ENCODING 8144
SWIDTH 216 0
DWIDTH 3 0
BBX 3 10 0 0
BITMAP
A0
40
00
40
40
40
40
40
40
60
ENDCHAR
STARTCHAR 1FD1
ENCODING 8145
SWIDTH 216 0
DWIDTH 3 0
BBX 4 10 0 0
BITMAP
F0
00
00
40
40
40
40
40
40
60
ENDCHAR
STARTCHAR 1FD2
ENCODING 8146
SWIDTH 216 0
DWIDTH 3 0
BBX 6 11 -1 0
BITMAP
20
EC
10
00
20
20
20
20
20
20
30
ENDCHAR
STARTCHAR 1FD3
ENCODING 8147
SWIDTH 216 0
DWIDTH 3 0
BBX 6 10 -1 1
BITMAP
EC
20
00
20
20
20
20
20
20
30
ENDCHAR
STARTCHAR 1FD6
ENCODING 8150
SWIDTH 216 0
DWIDTH 3 0
BBX 4 10 0 0
BITMAP
E0
90
00
40
40
40
40
40
40
60
ENDCHAR
STARTCHAR 1FD7
ENCODING 8151
SWIDTH 216 0
DWIDTH 3 0
BBX 4 12 0 0
BITMAP
E0
90
90
90
00
40
40
40
40
40
40
60
ENDCHAR
STARTCHAR 1FD8
ENCODING 8152
SWIDTH 216 0
DWIDTH 3 0
BBX 4 13 0 0
BITMAP
90
F0
00
60
60
60
60
60
60
60
60
60
60
ENDCHAR
STARTCHAR 1FD9
ENCODING 8153
SWIDTH 216 0
DWIDTH 3 0
BBX 4 12 0 0
BITMAP
F0
00
60
60
60
60
60
60
60
60
60
60
ENDCHAR
STARTCHAR 1FDA
ENCODING 8154
SWIDTH 360 0
DWIDTH 5 0
BBX 4 10 0 0
BITMAP
90
90
50
10
10
10
10
10
10
10
ENDCHAR
STARTCHAR 1FDB
ENCODING 8155
SWIDTH 360 0
DWIDTH 5 0
BBX 4 10 0 0
BITMAP
50
D0
90
10
10
10
10
10
10
10
ENDCHAR
STARTCHAR 1FDD
ENCODING 8157
SWIDTH 360 0
DWIDTH 5 0
BBX 5 3 0 8
BITMAP
D0
D0
48
ENDCHAR
STARTCHAR 1FDE
ENCODING 8158
SWIDTH 360 0
DWIDTH 5 0
BBX 5 3 0 8
BITMAP
C8
D0
50
ENDCHAR
STARTCHAR 1FDF
ENCODING 8159
SWIDTH 360 0
DWIDTH 5 0
BBX 3 4 1 8
BITMAP
E0
80
40
20
ENDCHAR
STARTCHAR 1FE0
ENCODING 8160
SWIDTH 576 0
DWIDTH 8 0
BBX 6 10 1 0
BITMAP
78
00
00
84
84
84
84
84
CC
78
ENDCHAR
STARTCHAR 1FE1
ENCODING 8161
SWIDTH 576 0
DWIDTH 8 0
BBX 6 10 1 0
BITMAP
78
00
00
84
84
84
84
84
CC
78
ENDCHAR
STARTCHAR 1FE2
ENCODING 8162
SWIDTH 576 0
DWIDTH 8 0
BBX 6 11 1 0
BITMAP
20
FC
10
00
84
84
84
84
84
CC
78
ENDCHAR
STARTCHAR 1FE3
ENCODING 8163
SWIDTH 576 0
DWIDTH 8 0
BBX 6 11 1 0
BITMAP
10
FC
20
00
84
84
84
84
84
CC
78
ENDCHAR
STARTCHAR 1FE4
ENCODING 8164
SWIDTH 576 0
DWIDTH 8 0
BBX 7 14 1 -3
BITMAP
10
10
20
00
7C
C4
86
86
84
84
F8
80
80
80
ENDCHAR
STARTCHAR 1FE5
ENCODING 8165
SWIDTH 576 0
DWIDTH 8 0
BBX 7 14 1 -3
BITMAP
30
20
10
00
7C
C4
86
86
84
84
F8
80
80
80
ENDCHAR
STARTCHAR 1FE6
ENCODING 8166
SWIDTH 576 0
DWIDTH 8 0
BBX 6 10 1 0
BITMAP
78
48
00
84
84
84
84
84
CC
78
ENDCHAR
STARTCHAR 1FE7
ENCODING 8167
SWIDTH 576 0
DWIDTH 8 0
BBX 6 12 1 0
BITMAP
30
48
48
48
00
84
84
84
84
84
CC
78
ENDCHAR
STARTCHAR 1FE8
ENCODING 8168
SWIDTH 576 0
DWIDTH 8 0
BBX 8 13 0 0
BITMAP
24
1C
00
C1
43
62
24
3C
18
18
18
18
18
ENDCHAR
STARTCHAR 1FE9
ENCODING 8169
SWIDTH 576 0
DWIDTH 8 0
BBX 8 12 0 0
BITMAP
3C
00
C1
43
62
24
3C
18
18
18
18
18
ENDCHAR
STARTCHAR 1FEA
ENCODING 8170
SWIDTH 720 0
DWIDTH 10 0
BBX 10 10 0 0
BITMAP
B040
90C0
5880
0900
0F00
0600
0600
0600
0600
0600
ENDCHAR
STARTCHAR 1FEB
ENCODING 8171
SWIDTH 720 0
DWIDTH 10 0
BBX 11 10 0 0
BITMAP
5060
D840
88C0
0C80
0500
0300
0200
0200
0200
0200
ENDCHAR
STARTCHAR 1FEC
ENCODING 8172
SWIDTH 648 0
DWIDTH 9 0
BBX 9 10 0 0
BITMAP
BE00
A300
A180
2180
2180
3F00
2000
2000
2000
2000
ENDCHAR
STARTCHAR 1FED
ENCODING 8173
SWIDTH 360 0
DWIDTH 5 0
BBX 5 3 0 8
BITMAP
20
A8
10
ENDCHAR
STARTCHAR 1FEE
ENCODING 8174
SWIDTH 360 0
DWIDTH 5 0
BBX 5 2 0 9
BITMAP
A8
20
ENDCHAR
STARTCHAR 1FEF
ENCODING 8175
SWIDTH 360 0
DWIDTH 5 0
BBX 2 2 1 8
BITMAP
80
C0
ENDCHAR
STARTCHAR 1FF2
ENCODING 8178
SWIDTH 792 0
DWIDTH 11 0
BBX 10 14 1 -3
BITMAP
1000
1800
0400
0000
4080
C880
88C0
8840
8CC0
CCC0
7780
0000
0C00
0400
ENDCHAR
STARTCHAR 1FF3
ENCODING 8179
SWIDTH 792 0
DWIDTH 11 0
BBX 10 10 1 -3
BITMAP
4080
C880
88C0
8840
8CC0
CCC0
7780
0000
0C00
0400
ENDCHAR
STARTCHAR 1FF4
ENCODING 8180
SWIDTH 792 0
DWIDTH 11 0
BBX 10 13 1 -2
BITMAP
0C00
0800
0000
4080
C880
88C0
8840
8CC0
CCC0
7780
0000
0C00
0400
ENDCHAR
STARTCHAR 1FF6
ENCODING 8182
SWIDTH 792 0
DWIDTH 11 0
BBX 10 10 1 0
BITMAP
1C00
1200
0000
4080
C880
88C0
8840
8CC0
CCC0
7780
ENDCHAR
STARTCHAR 1FF7
ENCODING 8183
SWIDTH 792 0
DWIDTH 11 0
BBX 10 13 1 -3
BITMAP
1C00
1200
0000
4080
C880
88C0
8840
8CC0
CCC0
7780
0000
0C00
0400
ENDCHAR
STARTCHAR 1FF8
ENCODING 8184
SWIDTH 864 0
DWIDTH 12 0
BBX 11 10 0 0
BITMAP
8780
8CC0
5060
3020
3020
3020
3020
1060
1840
0F80
ENDCHAR
STARTCHAR 1FF9
ENCODING 8185
SWIDTH 792 0
DWIDTH 11 0
BBX 11 10 0 0
BITMAP
4F00
D980
B040
2060
2060
2060
2060
3040
10C0
0F80
ENDCHAR
STARTCHAR 1FFA
ENCODING 8186
SWIDTH 864 0
DWIDTH 12 0
BBX 12 10 0 0
BITMAP
8780
8CC0
5060
3020
3020
3020
1020
1060
08C0
3CF0
ENDCHAR
STARTCHAR 1FFB
ENCODING 8187
SWIDTH 792 0
DWIDTH 11 0
BBX 11 10 0 0
BITMAP
4F00
D980
B040
2060
2060
2060
2040
3040
1880
79E0
ENDCHAR
STARTCHAR 1FFC
ENCODING 8188
SWIDTH 1008 0
DWIDTH 14 0
BBX 13 10 1 0
BITMAP
1C00
6300
C100
C190
8090
8190
C190
4110
6310
E798
ENDCHAR
STARTCHAR 1FFD
ENCODING 8189
SWIDTH 360 0
DWIDTH 5 0
BBX 2 2 2 9
BITMAP
C0
80
ENDCHAR
STARTCHAR 1FFE
ENCODING 8190
SWIDTH 360 0
DWIDTH 5 0
BBX 2 3 2 8
BITMAP
80
80
C0
ENDCHAR
STARTCHAR 2013
ENCODING 8211
SWIDTH 432 0
DWIDTH 6 0
BBX 7 1 0 4
BITMAP
FE
ENDCHAR
STARTCHAR 2014
ENCODING 8212
SWIDTH 936 0
DWIDTH 13 0
BBX 14 1 0 4
BITMAP
FFFC
ENDCHAR
STARTCHAR 2015
ENCODING 8213
SWIDTH 936 0
DWIDTH 13 0
BBX 14 1 0 4
BITMAP
FFFC
ENDCHAR
STARTCHAR 2018
ENCODING 8216
SWIDTH 216 0
DWIDTH 3 0
BBX 2 3 1 8
BITMAP
C0
80
80
ENDCHAR
STARTCHAR 2019
ENCODING 8217
SWIDTH 216 0
DWIDTH 3 0
BBX 2 3 0 7
BITMAP
40
40
C0
ENDCHAR
STARTCHAR 201A
ENCODING 8218
SWIDTH 216 0
DWIDTH 3 0
BBX 1 4 1 -2
BITMAP
80
80
80
80
ENDCHAR
STARTCHAR 201C
ENCODING 8220
SWIDTH 360 0
DWIDTH 5 0
BBX 4 4 1 7
BITMAP
10
D0
B0
B0
ENDCHAR
STARTCHAR 201D
ENCODING 8221
SWIDTH 360 0
DWIDTH 5 0
BBX 5 3 0 7
BITMAP
48
58
D0
ENDCHAR
STARTCHAR 201E
ENCODING 8222
SWIDTH 360 0
DWIDTH 5 0
BBX 4 4 1 -2
BITMAP
90
90
B0
A0
ENDCHAR
STARTCHAR 2020
ENCODING 8224
SWIDTH 432 0
DWIDTH 6 0
BBX 5 12 1 -2
BITMAP
20
20
20
F8
20
20
20
20
20
20
20
20
ENDCHAR
STARTCHAR 2021
ENCODING 8225
SWIDTH 432 0
DWIDTH 6 0
BBX 5 12 1 -2
BITMAP
20
20
20
F8
20
20
20
F8
20
20
20
20
ENDCHAR
STARTCHAR 2022
ENCODING 8226
SWIDTH 360 0
DWIDTH 5 0
BBX 3 4 1 3
BITMAP
40
E0
E0
E0
ENDCHAR
STARTCHAR 2026
ENCODING 8230
SWIDTH 936 0
DWIDTH 13 0
BBX 11 2 1 0
BITMAP
4420
C620
ENDCHAR
STARTCHAR 2030
ENCODING 8240
SWIDTH 1224 0
DWIDTH 17 0
BBX 15 10 1 0
BITMAP
6100
9300
9200
9600
F400
098C
0A52
1252
3252
23CE
ENDCHAR
STARTCHAR 2039
ENCODING 8249
SWIDTH 288 0
DWIDTH 4 0
BBX 2 6 1 1
BITMAP
40
40
80
80
C0
40
ENDCHAR
STARTCHAR 203A
ENCODING 8250
SWIDTH 288 0
DWIDTH 4 0
BBX 2 6 1 1
BITMAP
80
C0
40
40
C0
80
ENDCHAR
STARTCHAR 2044
ENCODING 8260
SWIDTH 144 0
DWIDTH 2 0
BBX 6 10 -2 0
BITMAP
04
0C
08
18
10
20
20
40
40
80
ENDCHAR
STARTCHAR 2070
ENCODING 8304
SWIDTH 288 0
DWIDTH 4 0
BBX 5 6 0 4
BITMAP
70
50
88
88
50
20
ENDCHAR
STARTCHAR 2074
ENCODING 8308
SWIDTH 288 0
DWIDTH 4 0
BBX 4 6 0 4
BITMAP
10
30
50
90
70
10
ENDCHAR
STARTCHAR 2075
ENCODING 8309
SWIDTH 288 0
DWIDTH 4 0
BBX 3 6 1 4
BITMAP
E0
80
C0
20
20
C0
ENDCHAR
STARTCHAR 2076
ENCODING 8310
SWIDTH 288 0
DWIDTH 4 0
BBX 4 6 1 4
BITMAP
20
C0
E0
B0
A0
60
ENDCHAR
STARTCHAR 2077
ENCODING 8311
SWIDTH 288 0
DWIDTH 4 0
BBX 3 6 1 4
BITMAP
E0
20
40
40
40
80
ENDCHAR
STARTCHAR 2078
ENCODING 8312
SWIDTH 288 0
DWIDTH 4 0
BBX 4 6 0 4
BITMAP
70
50
70
50
D0
70
ENDCHAR
STARTCHAR 2079
ENCODING 8313
SWIDTH 288 0
DWIDTH 4 0
BBX 4 6 0 4
BITMAP
70
D0
50
70
30
40
ENDCHAR
STARTCHAR 2080
ENCODING 8320
SWIDTH 288 0
DWIDTH 4 0
BBX 5 5 0 0
BITMAP
70
98
88
50
70
ENDCHAR
STARTCHAR 2081
ENCODING 8321
SWIDTH 288 0
DWIDTH 4 0
BBX 2 5 1 0
BITMAP
C0
40
40
40
40
ENDCHAR
STARTCHAR 2082
ENCODING 8322
SWIDTH 288 0
DWIDTH 4 0
BBX 3 5 1 0
BITMAP
E0
20
40
80
E0
ENDCHAR
STARTCHAR 2083
ENCODING 8323
SWIDTH 288 0
DWIDTH 4 0
BBX 3 5 1 0
BITMAP
E0
20
E0
20
E0
ENDCHAR
STARTCHAR 2084
ENCODING 8324
SWIDTH 288 0
DWIDTH 4 0
BBX 5 5 0 0
BITMAP
30
50
50
F8
10
ENDCHAR
STARTCHAR 2085
ENCODING 8325
SWIDTH 288 0
DWIDTH 4 0
BBX 3 5 1 0
BITMAP
E0
80
60
20
E0
ENDCHAR
STARTCHAR 2086
ENCODING 8326
SWIDTH 288 0
DWIDTH 4 0
BBX 4 5 1 0
BITMAP
E0
80
E0
90
E0
ENDCHAR
STARTCHAR 2087
ENCODING 8327
SWIDTH 288 0
DWIDTH 4 0
BBX 3 5 1 0
BITMAP
E0
20
40
40
80
ENDCHAR
STARTCHAR 2088
ENCODING 8328
SWIDTH 288 0
DWIDTH 4 0
BBX 5 5 0 0
BITMAP
70
50
70
88
70
ENDCHAR
STARTCHAR 2089
ENCODING 8329
SWIDTH 288 0
DWIDTH 4 0
BBX 4 5 0 0
BITMAP
70
90
70
10
60
ENDCHAR
STARTCHAR 20AC
ENCODING 8364
SWIDTH 504 0
DWIDTH 7 0
BBX 7 10 1 0
BITMAP
1C
30
60
F8
40
40
F8
40
60
3E
ENDCHAR
STARTCHAR 20AE
ENCODING 8366
SWIDTH 504 0
DWIDTH 7 0
BBX 6 10 1 0
BITMAP
FC
30
30
38
30
F0
38
70
30
30
ENDCHAR
STARTCHAR 20B4
ENCODING 8372
SWIDTH 504 0
DWIDTH 7 0
BBX 6 10 1 0
BITMAP
70
08
0C
FC
18
60
FC
80
C0
7C
ENDCHAR
STARTCHAR 20B9
ENCODING 8377
SWIDTH 504 0
DWIDTH 7 0
BBX 7 10 1 0
BITMAP
FE
18
08
FC
18
F0
C0
60
30
18
ENDCHAR
STARTCHAR 2113
ENCODING 8467
SWIDTH 432 0
DWIDTH 6 0
BBX 6 11 0 0
BITMAP
18
2C
24
64
68
68
70
60
E0
20
3C
ENDCHAR
STARTCHAR 2116
ENCODING 8470
SWIDTH 1080 0
DWIDTH 15 0
BBX 14 10 1 0
BITMAP
C338
C34C
A344
B344
9368
8B10
8F00
877C
8700
8300
ENDCHAR
STARTCHAR 2122
ENCODING 8482
SWIDTH 720 0
DWIDTH 10 0
BBX 10 5 0 5
BITMAP
F400
24C0
2B40
2B40
2840
ENDCHAR
STARTCHAR 2126
ENCODING 8486
SWIDTH 720 0
DWIDTH 10 0
BBX 9 10 1 0
BITMAP
1C00
6300
C100
C180
8080
8180
C180
4100
6300
E780
ENDCHAR
STARTCHAR 212E
ENCODING 8494
SWIDTH 864 0
DWIDTH 12 0
BBX 11 10 1 0
BITMAP
1E00
2180
4040
C060
C060
FF80
C000
4000
4040
3F80
ENDCHAR
STARTCHAR 2153
ENCODING 8531
SWIDTH 864 0
DWIDTH 12 0
BBX 10 10 1 0
BITMAP
4100
C200
4200
4400
4400
49C0
1840
10C0
2040
21C0
ENDCHAR
STARTCHAR 2154
ENCODING 8532
SWIDTH 864 0
DWIDTH 12 0
BBX 10 10 1 0
BITMAP
E100
2100
2200
4600
8400
E9C0
0840
10C0
1040
21C0
ENDCHAR
STARTCHAR 2155
ENCODING 8533
SWIDTH 864 0
DWIDTH 12 0
BBX 11 10 1 0
BITMAP
4100
C200
4200
4400
4400
49C0
1900
10C0
2020
21C0
ENDCHAR
STARTCHAR 2156
ENCODING 8534
SWIDTH 864 0
DWIDTH 12 0
BBX 11 10 1 0
BITMAP
E100
2100
2200
4200
8400
EDC0
0900
18C0
1020
21C0
ENDCHAR
STARTCHAR 2157
ENCODING 8535
SWIDTH 864 0
DWIDTH 12 0
BBX 11 10 1 0
BITMAP
E100
2100
E200
2600
2400
C9C0
0900
10C0
1020
21C0
ENDCHAR
STARTCHAR 2158
ENCODING 8536
SWIDTH 864 0
DWIDTH 12 0
BBX 12 10 0 0
BITMAP
1080
3080
5100
9100
7200
16E0
0480
0860
0810
10E0
ENDCHAR
STARTCHAR 2159
ENCODING 8537
SWIDTH 864 0
DWIDTH 12 0
BBX 11 10 1 0
BITMAP
4100
C100
4200
4600
4400
48C0
0900
11E0
1120
21C0
ENDCHAR
STARTCHAR 215A
ENCODING 8538
SWIDTH 864 0
DWIDTH 12 0
BBX 11 10 1 0
BITMAP
E100
8100
C200
2200
2400
CCC0
0900
11E0
1120
21C0
ENDCHAR
STARTCHAR 215B
ENCODING 8539
SWIDTH 864 0
DWIDTH 12 0
BBX 11 10 1 0
BITMAP
4100
C200
4200
4400
4400
49C0
1940
11C0
2120
21C0
ENDCHAR
STARTCHAR 215C
ENCODING 8540
SWIDTH 864 0
DWIDTH 12 0
BBX 11 10 1 0
BITMAP
E100
2100
E200
2600
2400
C9C0
0940
11C0
1120
21C0
ENDCHAR
STARTCHAR 215D
ENCODING 8541
SWIDTH 864 0
DWIDTH 12 0
BBX 11 10 1 0
BITMAP
E100
8100
C200
2600
2400
C9C0
0940
11C0
1120
21C0
ENDCHAR
STARTCHAR 215E
ENCODING 8542
SWIDTH 864 0
DWIDTH 12 0
BBX 11 10 1 0
BITMAP
E100
2200
4600
4400
4800
89C0
1140
11C0
2120
61C0
ENDCHAR
STARTCHAR 2202
ENCODING 8706
SWIDTH 576 0
DWIDTH 8 0
BBX 6 11 1 0
BITMAP
F0
98
0C
04
7C
C4
84
84
84
88
78
ENDCHAR
STARTCHAR 2206
ENCODING 8710
SWIDTH 648 0
DWIDTH 9 0
BBX 9 10 0 0
BITMAP
0800
1C00
1400
3600
2200
2200
6300
4100
4100
FF80
ENDCHAR
STARTCHAR 220F
ENCODING 8719
SWIDTH 648 0
DWIDTH 9 0
BBX 7 12 1 -2
BITMAP
FE
FE
C2
C2
C2
C2
C2
C2
C2
C2
C2
C2
ENDCHAR
STARTCHAR 2211
ENCODING 8721
SWIDTH 504 0
DWIDTH 7 0
BBX 7 12 0 -2
BITMAP
FE
FE
60
20
10
18
10
30
20
40
FE
FE
ENDCHAR
STARTCHAR 2212
ENCODING 8722
SWIDTH 504 0
DWIDTH 7 0
BBX 6 1 1 4
BITMAP
FC
ENDCHAR
STARTCHAR 2215
ENCODING 8725
SWIDTH 144 0
DWIDTH 2 0
BBX 6 10 -2 0
BITMAP
04
0C
08
18
10
20
20
40
40
80
ENDCHAR
STARTCHAR 2219
ENCODING 8729
SWIDTH 216 0
DWIDTH 3 0
BBX 2 2 1 3
BITMAP
C0
80
ENDCHAR
STARTCHAR 221A
ENCODING 8730
SWIDTH 504 0
DWIDTH 7 0
BBX 8 11 0 0
BITMAP
01
03
02
02
02
04
E4
24
3C
18
18
ENDCHAR
STARTCHAR 221E
ENCODING 8734
SWIDTH 576 0
DWIDTH 8 0
BBX 8 4 0 2
BITMAP
76
99
D9
66
ENDCHAR
STARTCHAR 222B
ENCODING 8747
SWIDTH 360 0
DWIDTH 5 0
BBX 5 14 0 -3
BITMAP
18
30
20
20
20
20
20
20
20
20
20
20
E0
80
ENDCHAR
STARTCHAR 2248
ENCODING 8776
SWIDTH 504 0
DWIDTH 7 0
BBX 6 5 1 2
BITMAP
E4
BC
00
E4
BC
ENDCHAR
STARTCHAR 2260
ENCODING 8800
SWIDTH 504 0
DWIDTH 7 0
BBX 6 8 1 0
BITMAP
08
08
FC
10
20
FC
40
40
ENDCHAR
STARTCHAR 2264
ENCODING 8804
SWIDTH 504 0
DWIDTH 7 0
BBX 6 8 1 0
BITMAP
0C
38
C0
E0
38
04
00
FC
ENDCHAR
STARTCHAR 2265
ENCODING 8805
SWIDTH 504 0
DWIDTH 7 0
BBX 6 8 1 0
BITMAP
C0
70
0C
1C
70
80
00
FC
ENDCHAR
STARTCHAR 25CA
ENCODING 9674
SWIDTH 504 0
DWIDTH 7 0
BBX 6 9 1 1
BITMAP
30
50
48
8C
84
C8
58
30
20
ENDCHAR
STARTCHAR E0FF
ENCODING 57599
SWIDTH 720 0
DWIDTH 10 0
BBX 10 10 0 0
BITMAP
0E00
3F80
72C0
6DC0
EEC0
9FC0
6EC0
73C0
3E80
1F00
ENDCHAR
STARTCHAR EFFD
ENCODING 61437
SWIDTH 1656 0
DWIDTH 23 0
BBX 23 6 0 0
BITMAP
200000
507B9E
984892
887992
524852
737B9C
ENDCHAR
STARTCHAR F000
ENCODING 61440
SWIDTH 936 0
DWIDTH 13 0
BBX 12 10 1 0
BITMAP
F9E0
0210
8A10
8A10
0210
72D0
8A10
8A10
8A10
72D0
ENDCHAR
STARTCHAR F001
ENCODING 61441
SWIDTH 576 0
DWIDTH 8 0
BBX 7 11 1 0
BITMAP
70
C6
80
80
F2
82
82
82
82
82
82
ENDCHAR
STARTCHAR F002
ENCODING 61442
SWIDTH 648 0
DWIDTH 9 0
BBX 8 11 1 0
BITMAP
76
C6
86
86
F6
86
86
86
86
82
83
ENDCHAR
STARTCHAR F0FF
ENCODING 61695
SWIDTH 432 0
DWIDTH 6 0
BBX 6 6 0 5
BITMAP
30
7C
FC
FC
EC
78
ENDCHAR
STARTCHAR F200
ENCODING 61952
SWIDTH 3456 0
DWIDTH 48 0
BBX 48 11 0 0
BITMAP
00800000000E
00800000001D
00800003003F
00800003002F
C4F989F3E89B
C48D891B089E
C485890B0880
C485890B0880
C484890B0880
448C89090880
7CF8F909EF80
ENDCHAR
STARTCHAR F506
ENCODING 62726
SWIDTH 864 0
DWIDTH 12 0
BBX 11 10 1 0
BITMAP
4100
C200
4200
4400
4C00
49E0
1840
1080
2080
2080
ENDCHAR
STARTCHAR F507
ENCODING 62727
SWIDTH 864 0
DWIDTH 12 0
BBX 11 10 1 0
BITMAP
E100
2100
2200
4600
8400
E9E0
0840
1080
1080
2080
ENDCHAR
STARTCHAR F508
ENCODING 62728
SWIDTH 864 0
DWIDTH 12 0
BBX 11 10 1 0
BITMAP
E100
2300
E200
2400
2400
C9E0
0840
1080
3080
2080
ENDCHAR
STARTCHAR F509
ENCODING 62729
SWIDTH 864 0
DWIDTH 12 0
BBX 12 10 0 0
BITMAP
1080
3180
5100
9200
7200
14F0
0420
0840
1840
1040
ENDCHAR
STARTCHAR F50A
ENCODING 62730
SWIDTH 864 0
DWIDTH 12 0
BBX 11 10 1 0
BITMAP
E100
8300
C200
2400
2400
C9E0
0840
1080
3080
2080
ENDCHAR
STARTCHAR F50B
ENCODING 62731
SWIDTH 864 0
DWIDTH 12 0
BBX 11 10 1 0
BITMAP
2100
C300
E200
B400
A400
69E0
0840
1080
3080
2080
ENDCHAR
STARTCHAR F50C
ENCODING 62732
SWIDTH 864 0
DWIDTH 12 0
BBX 11 10 1 0
BITMAP
4100
C200
4200
4400
4400
49C0
1920
11E0
2040
2180
ENDCHAR
STARTCHAR F50D
ENCODING 62733
SWIDTH 864 0
DWIDTH 12 0
BBX 11 10 1 0
BITMAP
E100
2100
2200
4200
8400
EDC0
0920
11E0
1040
2180
ENDCHAR
STARTCHAR F50E
ENCODING 62734
SWIDTH 864 0
DWIDTH 12 0
BBX 12 10 0 0
BITMAP
1080
3080
5100
9100
7200
16E0
0490
08F0
0820
10C0
ENDCHAR
STARTCHAR F50F
ENCODING 62735
SWIDTH 864 0
DWIDTH 12 0
BBX 11 10 1 0
BITMAP
E100
8100
C200
2600
2400
C9C0
0920
11E0
1040
2180
ENDCHAR
STARTCHAR F510
ENCODING 62736
SWIDTH 864 0
DWIDTH 12 0
BBX 11 10 1 0
BITMAP
E100
2200
4600
4400
4800
89C0
1120
11E0
2040
6180
ENDCHAR
STARTCHAR F511
ENCODING 62737
SWIDTH 864 0
DWIDTH 12 0
BBX 12 10 0 0
BITMAP
7080
5080
7100
5300
D200
74E0
0490
08F0
0820
10C0
ENDCHAR
STARTCHAR F800
ENCODING 63488
SWIDTH 504 0
DWIDTH 7 0
BBX 6 10 1 0
BITMAP
30
48
8C
84
84
84
84
84
CC
78
ENDCHAR
STARTCHAR F801
ENCODING 63489
SWIDTH 360 0
DWIDTH 5 0
BBX 4 10 0 0
BITMAP
10
30
D0
10
10
10
10
10
10
10
ENDCHAR
STARTCHAR F802
ENCODING 63490
SWIDTH 432 0
DWIDTH 6 0
BBX 6 10 0 0
BITMAP
78
CC
04
04
08
18
30
60
40
7C
ENDCHAR
STARTCHAR F803
ENCODING 63491
SWIDTH 504 0
DWIDTH 7 0
BBX 6 10 0 0
BITMAP
78
4C
04
0C
38
1C
04
04
04
F8
ENDCHAR
STARTCHAR F804
ENCODING 63492
SWIDTH 504 0
DWIDTH 7 0
BBX 7 10 0 0
BITMAP
04
0C
14
24
24
44
FE
FE
04
04
ENDCHAR
STARTCHAR F805
ENCODING 63493
SWIDTH 432 0
DWIDTH 6 0
BBX 6 10 0 0
BITMAP
7C
40
40
40
70
0C
04
04
0C
F8
ENDCHAR
STARTCHAR F806
ENCODING 63494
SWIDTH 504 0
DWIDTH 7 0
BBX 6 10 1 0
BITMAP
08
30
40
C0
F8
8C
84
84
CC
78
ENDCHAR
STARTCHAR F807
ENCODING 63495
SWIDTH 432 0
DWIDTH 6 0
BBX 6 10 0 0
BITMAP
FC
FC
0C
08
10
10
30
20
20
20
ENDCHAR
STARTCHAR F808
ENCODING 63496
SWIDTH 504 0
DWIDTH 7 0
BBX 6 10 1 0
BITMAP
70
C8
8C
8C
78
78
8C
84
8C
78
ENDCHAR
STARTCHAR F809
ENCODING 63497
SWIDTH 504 0
DWIDTH 7 0
BBX 6 10 1 0
BITMAP
70
C8
8C
84
84
FC
0C
08
18
E0
ENDCHAR
STARTCHAR F80A
ENCODING 63498
SWIDTH 288 0
DWIDTH 4 0
BBX 5 6 0 6
BITMAP
20
50
98
88
50
70
ENDCHAR
STARTCHAR F80B
ENCODING 63499
SWIDTH 288 0
DWIDTH 4 0
BBX 2 5 1 6
BITMAP
C0
40
40
40
40
ENDCHAR
STARTCHAR F80C
ENCODING 63500
SWIDTH 288 0
DWIDTH 4 0
BBX 3 6 1 6
BITMAP
40
A0
20
40
80
E0
ENDCHAR
STARTCHAR F80D
ENCODING 63501
SWIDTH 288 0
DWIDTH 4 0
BBX 3 5 1 7
BITMAP
A0
20
E0
20
E0
ENDCHAR
STARTCHAR F80E
ENCODING 63502
SWIDTH 288 0
DWIDTH 4 0
BBX 5 5 0 6
BITMAP
30
50
50
F8
10
ENDCHAR
STARTCHAR F80F
ENCODING 63503
SWIDTH 288 0
DWIDTH 4 0
BBX 3 5 1 6
BITMAP
E0
80
60
20
E0
ENDCHAR
STARTCHAR F810
ENCODING 63504
SWIDTH 288 0
DWIDTH 4 0
BBX 4 5 1 6
BITMAP
E0
80
E0
90
E0
ENDCHAR
STARTCHAR F811
ENCODING 63505
SWIDTH 288 0
DWIDTH 4 0
BBX 3 5 1 6
BITMAP
E0
20
40
40
80
ENDCHAR
STARTCHAR F812
ENCODING 63506
SWIDTH 288 0
DWIDTH 4 0
BBX 5 6 0 6
BITMAP
20
50
50
70
88
70
ENDCHAR
STARTCHAR F813
ENCODING 63507
SWIDTH 288 0
DWIDTH 4 0
BBX 4 6 0 6
BITMAP
20
50
90
70
10
60
ENDCHAR
STARTCHAR F814
ENCODING 63508
SWIDTH 288 0
DWIDTH 4 0
BBX 5 6 0 -2
BITMAP
70
50
88
88
50
70
ENDCHAR
STARTCHAR F815
ENCODING 63509
SWIDTH 288 0
DWIDTH 4 0
BBX 2 6 1 -2
BITMAP
40
C0
40
40
40
40
ENDCHAR
STARTCHAR F816
ENCODING 63510
SWIDTH 288 0
DWIDTH 4 0
BBX 3 6 1 -2
BITMAP
E0
20
20
40
80
E0
ENDCHAR
STARTCHAR F817
ENCODING 63511
SWIDTH 288 0
DWIDTH 4 0
BBX 3 6 1 -2
BITMAP
C0
20
E0
20
20
C0
ENDCHAR
STARTCHAR F818
ENCODING 63512
SWIDTH 288 0
DWIDTH 4 0
BBX 4 6 0 -2
BITMAP
10
30
50
90
70
10
ENDCHAR
STARTCHAR F819
ENCODING 63513
SWIDTH 288 0
DWIDTH 4 0
BBX 3 6 1 -2
BITMAP
E0
80
C0
20
20
E0
ENDCHAR
STARTCHAR F81A
ENCODING 63514
SWIDTH 288 0
DWIDTH 4 0
BBX 4 6 1 -2
BITMAP
20
C0
E0
B0
A0
E0
ENDCHAR
STARTCHAR F81B
ENCODING 63515
SWIDTH 288 0
DWIDTH 4 0
BBX 3 6 1 -2
BITMAP
E0
20
40
40
40
80
ENDCHAR
STARTCHAR F81C
ENCODING 63516
SWIDTH 288 0
DWIDTH 4 0
BBX 5 6 0 -2
BITMAP
70
50
50
70
98
70
ENDCHAR
STARTCHAR F81D
ENCODING 63517
SWIDTH 288 0
DWIDTH 4 0
BBX 3 6 1 -2
BITMAP
E0
A0
A0
E0
60
80
ENDCHAR
STARTCHAR FB00
ENCODING 64256
SWIDTH 720 0
DWIDTH 10 0
BBX 10 11 1 0
BITMAP
71C0
C300
8200
8200
F3C0
8200
8200
8200
8200
8200
8200
ENDCHAR
STARTCHAR FB01
ENCODING 64257
SWIDTH 576 0
DWIDTH 8 0
BBX 7 11 1 0
BITMAP
70
C6
80
80
F2
82
82
82
82
82
82
ENDCHAR
STARTCHAR FB02
ENCODING 64258
SWIDTH 648 0
DWIDTH 9 0
BBX 8 11 1 0
BITMAP
76
C6
86
86
F6
86
86
86
86
82
83
ENDCHAR
STARTCHAR FB03
ENCODING 64259
SWIDTH 1008 0
DWIDTH 14 0
BBX 12 11 1 0
BITMAP
71C0
C350
8200
8200
F3D0
8210
8210
8210
8210
8210
8210
ENDCHAR
STARTCHAR FB04
ENCODING 64260
SWIDTH 1008 0
DWIDTH 14 0
BBX 13 11 1 0
BITMAP
71D0
C350
8210
8210
F3D0
8210
8210
8210
8210
8210
8218
ENDCHAR
ENDFONT
